M48
; DRILL file {KiCad 8.0.2} date 2025-08-03T00:44:14+0200
; FORMAT={-:-/ absolute / inch / decimal}
; #@! TF.CreationDate,2025-08-03T00:44:14+02:00
; #@! TF.GenerationSoftware,Kicad,Pcbnew,8.0.2
; #@! TF.FileFunction,Plated,1,2,PTH
FMAT,2
INCH
; #@! TA.AperFunction,Plated,PTH,ComponentDrill
T1C0.0079
; #@! TA.AperFunction,Plated,PTH,ViaDrill
T2C0.0118
; #@! TA.AperFunction,Plated,PTH,ComponentDrill
T3C0.0236
; #@! TA.AperFunction,Plated,PTH,ComponentDrill
T4C0.0512
; #@! TA.AperFunction,Plated,PTH,ComponentDrill
T5C0.0709
; #@! TA.AperFunction,Plated,PTH,ComponentDrill
T6C0.1260
%
G90
G05
T1
X5.3976Y-3.5732
X5.3976Y-3.6283
X5.4252Y-3.5457
X5.4252Y-3.6008
X5.4252Y-3.6559
X5.4528Y-3.5732
X5.4528Y-3.6283
X5.4803Y-3.5457
X5.4803Y-3.6008
X5.4803Y-3.6559
X5.5079Y-3.5732
X5.5079Y-3.6283
X7.2303Y-3.9488
X7.2303Y-3.9862
X7.2303Y-4.0236
X7.2313Y-3.6457
X7.2313Y-3.6831
X7.2313Y-3.7205
T2
X4.5307Y-3.7685
X4.5307Y-3.8685
X4.5307Y-4.9685
X4.5307Y-5.0685
X4.7307Y-5.1685
X4.8307Y-3.6685
X4.8307Y-3.7685
X4.8307Y-3.8685
X4.8307Y-4.8685
X4.8307Y-4.9685
X4.8307Y-5.0685
X4.8307Y-5.1685
X4.9307Y-3.2685
X4.9307Y-3.6685
X4.9307Y-3.7685
X4.9307Y-3.8685
X4.9307Y-4.0685
X4.9307Y-4.3685
X4.9307Y-4.4685
X4.9307Y-4.5685
X4.9307Y-4.6685
X4.9307Y-4.8685
X4.9307Y-4.9685
X4.9307Y-5.0685
X4.9307Y-5.1685
X4.9307Y-5.3685
X4.9307Y-5.4685
X4.9307Y-5.5685
X4.9307Y-5.6685
X4.9307Y-5.8685
X4.9744Y-5.7106
X5.0307Y-3.2685
X5.0307Y-3.7685
X5.0307Y-3.8685
X5.0307Y-4.0685
X5.0307Y-4.3685
X5.0307Y-4.4685
X5.0307Y-4.5685
X5.0307Y-4.6685
X5.0307Y-4.8685
X5.0307Y-4.9685
X5.0307Y-5.0685
X5.0307Y-5.1685
X5.0307Y-5.8685
X5.0307Y-5.9685
X5.0551Y-3.9291
X5.1083Y-3.3469
X5.1102Y-3.8469
X5.1307Y-4.0685
X5.1307Y-4.1685
X5.1307Y-4.2685
X5.1307Y-4.3685
X5.1307Y-4.4685
X5.1307Y-4.5685
X5.1307Y-4.6685
X5.1307Y-4.7685
X5.1307Y-4.8685
X5.1307Y-4.9685
X5.1307Y-5.0685
X5.1307Y-5.1685
X5.1307Y-5.8685
X5.1307Y-5.9685
X5.1634Y-5.7126
X5.2307Y-3.2685
X5.2307Y-3.6685
X5.2307Y-3.7685
X5.2307Y-4.0685
X5.2307Y-4.3685
X5.2307Y-4.4685
X5.2307Y-4.5685
X5.2307Y-4.8685
X5.2307Y-4.9685
X5.2307Y-5.0685
X5.2307Y-5.1685
X5.2307Y-5.3685
X5.2307Y-5.4685
X5.2307Y-5.5685
X5.2307Y-5.6685
X5.2307Y-5.8685
X5.3307Y-3.2685
X5.3307Y-3.6685
X5.3307Y-3.7685
X5.3307Y-4.3685
X5.3307Y-4.4685
X5.3307Y-4.5685
X5.3307Y-4.8685
X5.3307Y-4.9685
X5.3307Y-5.0685
X5.3307Y-5.1685
X5.3307Y-5.2685
X5.3307Y-5.3685
X5.3307Y-5.4685
X5.3307Y-5.5685
X5.3307Y-5.6685
X5.3307Y-5.9685
X5.3366Y-4.061
X5.4307Y-3.2685
X5.4307Y-3.7685
X5.4307Y-4.0685
X5.4307Y-4.3685
X5.4307Y-4.4685
X5.4307Y-4.5685
X5.4307Y-4.6685
X5.4307Y-4.8685
X5.4307Y-4.9685
X5.4307Y-5.0685
X5.4307Y-5.1685
X5.4307Y-5.2685
X5.4307Y-5.3685
X5.4307Y-5.4685
X5.4307Y-5.5685
X5.4307Y-5.6685
X5.4307Y-5.7685
X5.4307Y-5.9685
X5.4902Y-3.3091
X5.4961Y-3.2697
X5.5307Y-3.4685
X5.5307Y-3.7685
X5.5307Y-4.1685
X5.5307Y-4.3685
X5.5307Y-4.4685
X5.5307Y-4.5685
X5.5307Y-4.6685
X5.5307Y-4.7685
X5.5307Y-4.8685
X5.5307Y-4.9685
X5.5307Y-5.0685
X5.5307Y-5.1685
X5.5307Y-5.2685
X5.5307Y-5.3685
X5.5307Y-5.4685
X5.5307Y-5.5685
X5.5307Y-5.6685
X5.5307Y-5.7685
X5.5728Y-3.9193
X5.6307Y-3.4685
X5.6307Y-3.5685
X5.6307Y-3.6685
X5.6307Y-3.7685
X5.6307Y-4.2685
X5.6307Y-4.4685
X5.6307Y-4.5685
X5.6307Y-4.6685
X5.6307Y-4.7685
X5.6307Y-4.8685
X5.6307Y-4.9685
X5.6307Y-5.0685
X5.6307Y-5.1685
X5.6307Y-5.2685
X5.6307Y-5.3685
X5.6307Y-5.4685
X5.6307Y-5.5685
X5.6307Y-5.6685
X5.6307Y-5.7685
X5.6673Y-3.8681
X5.7307Y-3.4685
X5.7307Y-3.5685
X5.7307Y-3.6685
X5.7307Y-3.7685
X5.7307Y-4.3685
X5.7307Y-4.5685
X5.7307Y-4.6685
X5.7307Y-4.7685
X5.7307Y-4.8685
X5.7307Y-4.9685
X5.7307Y-5.0685
X5.7307Y-5.1685
X5.7307Y-5.2685
X5.7307Y-5.3685
X5.7307Y-5.4685
X5.7307Y-5.5685
X5.7307Y-5.6685
X5.8307Y-4.4685
X5.8307Y-4.6685
X5.8307Y-4.7685
X5.8307Y-4.8685
X5.8307Y-4.9685
X5.8307Y-5.0685
X5.8307Y-5.1685
X5.8307Y-5.2685
X5.8307Y-5.3685
X5.8307Y-5.4685
X5.8307Y-5.5685
X5.8307Y-5.7685
X5.8563Y-4.0782
X5.9307Y-3.4685
X5.9307Y-3.5685
X5.9307Y-3.6685
X5.9307Y-3.8685
X5.9307Y-3.9685
X5.9307Y-4.0685
X5.9307Y-4.1685
X5.9307Y-4.2685
X5.9307Y-4.5685
X5.9307Y-4.7685
X5.9307Y-4.8685
X5.9307Y-4.9685
X5.9307Y-5.0685
X5.9307Y-5.1685
X5.9307Y-5.2685
X5.9307Y-5.3685
X5.9307Y-5.4685
X5.9307Y-5.6685
X5.9715Y-3.752
X6.0307Y-3.7685
X6.0307Y-3.8685
X6.0307Y-4.2685
X6.0307Y-4.3685
X6.0307Y-4.6685
X6.0307Y-4.8685
X6.0307Y-4.9685
X6.0307Y-5.0685
X6.0307Y-5.1685
X6.0307Y-5.2685
X6.0307Y-5.3685
X6.0307Y-5.5685
X6.0307Y-5.7685
X6.0906Y-3.4764
X6.0906Y-3.7008
X6.1307Y-3.5685
X6.1307Y-5.4685
X6.1307Y-5.6685
X6.1417Y-3.7781
X6.2307Y-3.4685
X6.2307Y-4.2685
X6.2307Y-4.3685
X6.2307Y-4.4685
X6.2307Y-4.5685
X6.2307Y-4.8685
X6.2307Y-5.0685
X6.2307Y-5.1685
X6.2307Y-5.2685
X6.2307Y-5.3685
X6.2307Y-5.5685
X6.2307Y-5.7685
X6.252Y-3.5669
X6.2776Y-4.1639
X6.3108Y-3.9476
X6.3307Y-3.5685
X6.3307Y-3.6685
X6.3307Y-4.2685
X6.3307Y-4.3685
X6.3307Y-4.4685
X6.3307Y-4.5685
X6.3307Y-4.6685
X6.3307Y-4.9685
X6.3307Y-5.1685
X6.3307Y-5.2685
X6.3307Y-5.4685
X6.3307Y-5.6685
X6.4307Y-3.4685
X6.4307Y-4.2685
X6.4307Y-4.3685
X6.4307Y-4.4685
X6.4307Y-4.5685
X6.4307Y-4.6685
X6.4307Y-4.7685
X6.4307Y-5.0685
X6.4307Y-5.3685
X6.4307Y-5.5685
X6.4307Y-5.7685
X6.5307Y-3.4685
X6.5307Y-3.5685
X6.5307Y-3.6685
X6.5307Y-3.8685
X6.5307Y-3.9685
X6.5307Y-4.2685
X6.5307Y-4.3685
X6.5307Y-4.4685
X6.5307Y-4.5685
X6.5307Y-4.6685
X6.5307Y-4.7685
X6.5307Y-4.8685
X6.5307Y-5.4685
X6.5307Y-5.6685
X6.5307Y-5.7685
X6.6307Y-3.1685
X6.6307Y-3.5685
X6.6307Y-3.6685
X6.6307Y-3.7685
X6.6307Y-5.5685
X6.6307Y-5.6685
X6.6988Y-3.2849
X6.7307Y-3.0685
X6.7307Y-3.5685
X6.7307Y-3.6685
X6.7307Y-3.7685
X6.7307Y-5.9685
X6.7323Y-3.127
X6.8083Y-4.0047
X6.815Y-3.3957
X6.8307Y-5.9685
X6.8504Y-3.2402
X6.872Y-3.0748
X6.9307Y-3.0685
X6.9307Y-3.9685
X6.9307Y-4.0685
X6.9307Y-4.1685
X6.9307Y-4.2685
X6.9307Y-4.3685
X6.9307Y-4.4685
X6.9307Y-4.5685
X6.9307Y-4.6685
X6.9307Y-4.7685
X6.9307Y-4.8685
X6.9307Y-4.9685
X6.9307Y-5.0685
X6.9307Y-5.1685
X6.9307Y-5.2685
X6.9307Y-5.5685
X6.9307Y-5.7685
X6.9307Y-5.8685
X6.9307Y-5.9685
X7.0307Y-3.0685
X7.0307Y-3.1685
X7.0307Y-3.2685
X7.0307Y-3.4685
X7.0307Y-4.1685
X7.0307Y-4.2685
X7.0307Y-4.3685
X7.0307Y-4.4685
X7.0307Y-4.5685
X7.0307Y-4.6685
X7.0307Y-4.7685
X7.0307Y-4.8685
X7.0307Y-4.9685
X7.0307Y-5.0685
X7.0307Y-5.1685
X7.0307Y-5.2685
X7.0307Y-5.3685
X7.0307Y-5.6685
X7.0307Y-5.9685
X7.0787Y-3.3366
X7.1307Y-3.0685
X7.1307Y-3.1685
X7.1307Y-3.2685
X7.1307Y-3.4685
X7.1307Y-4.1685
X7.1307Y-4.2685
X7.1307Y-4.3685
X7.1307Y-4.4685
X7.1307Y-4.5685
X7.1307Y-4.6685
X7.1307Y-4.7685
X7.1307Y-4.8685
X7.1307Y-4.9685
X7.1307Y-5.0685
X7.1307Y-5.1685
X7.1307Y-5.2685
X7.1307Y-5.3685
X7.1307Y-5.4685
X7.1307Y-5.7685
X7.1307Y-5.9685
X7.2185Y-3.5472
X7.2307Y-3.0685
X7.2307Y-3.7685
X7.2307Y-3.8685
X7.2307Y-4.0685
X7.2307Y-4.1685
X7.2307Y-4.2685
X7.2307Y-4.3685
X7.2307Y-4.4685
X7.2307Y-4.5685
X7.2307Y-4.6685
X7.2307Y-4.7685
X7.2307Y-4.8685
X7.2307Y-4.9685
X7.2307Y-5.0685
X7.2307Y-5.1685
X7.2307Y-5.2685
X7.2307Y-5.3685
X7.2307Y-5.4685
X7.2307Y-5.5685
X7.2307Y-5.9685
X7.3307Y-3.0685
X7.3307Y-3.4685
X7.3307Y-4.3685
X7.3307Y-4.4685
X7.3307Y-4.5685
X7.3307Y-4.6685
X7.3307Y-4.8685
X7.3307Y-4.9685
X7.3307Y-5.0685
X7.3307Y-5.1685
X7.3307Y-5.2685
X7.3307Y-5.3685
X7.3307Y-5.4685
X7.3307Y-5.5685
X7.3307Y-5.6685
X7.3307Y-5.9685
X7.4307Y-3.0685
X7.4307Y-4.3685
X7.4307Y-4.4685
X7.4307Y-4.5685
X7.4307Y-4.8685
X7.4307Y-4.9685
X7.4307Y-5.0685
X7.4307Y-5.1685
X7.4307Y-5.2685
X7.4307Y-5.3685
X7.4307Y-5.4685
X7.4307Y-5.5685
X7.4307Y-5.6685
X7.4307Y-5.7685
X7.4307Y-5.9685
X7.5307Y-3.0685
X7.5307Y-3.1685
X7.5307Y-3.3685
X7.5307Y-4.0685
X7.5307Y-4.3685
X7.5307Y-4.4685
X7.5307Y-4.5685
X7.5307Y-4.8685
X7.5307Y-4.9685
X7.5307Y-5.0685
X7.5307Y-5.1685
X7.5307Y-5.2685
X7.5307Y-5.3685
X7.5307Y-5.4685
X7.5307Y-5.5685
X7.5307Y-5.6685
X7.5307Y-5.7685
X7.5307Y-5.8685
X7.6307Y-3.0685
X7.6307Y-3.1685
X7.6307Y-3.6685
X7.6307Y-3.7685
X7.6307Y-5.9685
X7.7307Y-3.0685
X7.7307Y-3.1685
X7.7307Y-3.2685
X7.7307Y-3.4685
X7.7307Y-3.5685
X7.7307Y-3.6685
X7.7307Y-3.9685
X7.7307Y-4.3685
X7.7307Y-4.4685
X7.7307Y-4.5685
X7.7307Y-4.6685
X7.7307Y-4.8685
X7.7307Y-4.9685
X7.7307Y-5.2685
X7.7307Y-5.3685
X7.7307Y-5.4685
X7.7307Y-5.5685
X7.7307Y-5.6685
X7.7307Y-5.7685
X7.7307Y-5.8685
X7.7307Y-5.9685
X7.8307Y-3.0685
X7.8307Y-3.1685
X7.8307Y-3.2685
X7.8307Y-3.4685
X7.8307Y-3.5685
X7.8307Y-3.6685
X7.8307Y-3.7685
X7.8307Y-3.8685
X7.8307Y-3.9685
X7.8307Y-4.0685
X7.8307Y-4.3685
X7.8307Y-4.4685
X7.8307Y-4.5685
X7.8307Y-4.6685
X7.8307Y-4.8685
X7.8307Y-4.9685
X7.8307Y-5.0685
X7.8307Y-5.1685
X7.8307Y-5.2685
X7.8307Y-5.3685
X7.8307Y-5.4685
X7.8307Y-5.5685
X7.8307Y-5.6685
X7.8307Y-5.7685
X7.8307Y-5.8685
X7.8307Y-5.9685
X7.9307Y-3.6685
X7.9307Y-3.7685
X7.9307Y-3.8685
X7.9307Y-4.8685
X7.9307Y-4.9685
X7.9307Y-5.0685
X7.9307Y-5.1685
X8.0307Y-5.1685
X8.1307Y-5.1685
X8.2307Y-3.7685
X8.2307Y-4.9685
X8.2307Y-5.0685
T4
X5.3878Y-5.8957
X5.5878Y-5.8957
X5.7878Y-5.8957
X5.9878Y-5.8957
X6.1878Y-5.8957
X6.3878Y-5.8957
X6.6083Y-5.8957
X6.8083Y-5.8957
X7.0083Y-5.8957
X7.2083Y-5.8957
X7.4083Y-5.8957
X7.6083Y-5.8957
T5
X4.9724Y-4.2126
X4.9724Y-4.7441
X7.7835Y-4.2126
X7.7835Y-4.7441
T6
X4.6614Y-3.7795
X4.6614Y-5.0394
X8.0906Y-3.7795
X8.0906Y-5.0394
T3
G00X4.8988Y-5.7707
M15
G01X4.8988Y-5.814
M16
G05
G00X4.8988Y-5.9419
M15
G01X4.8988Y-5.9734
M16
G05
G00X5.239Y-5.7707
M15
G01X5.239Y-5.814
M16
G05
G00X5.239Y-5.9419
M15
G01X5.239Y-5.9734
M16
G05
M30
