%TF.GenerationSoftware,KiCad,Pcbnew,8.0.2*%
%TF.CreationDate,2025-08-03T00:44:16+02:00*%
%TF.ProjectId,MarinaWatch,4d617269-6e61-4576-9174-63682e6b6963,rev?*%
%TF.SameCoordinates,Original*%
%TF.FileFunction,Copper,L2,Bot*%
%TF.FilePolarity,Positive*%
%FSLAX46Y46*%
G04 Gerber Fmt 4.6, Leading zero omitted, Abs format (unit mm)*
G04 Created by KiCad (PCBNEW 8.0.2) date 2025-08-03 00:44:16*
%MOMM*%
%LPD*%
G01*
G04 APERTURE LIST*
%TA.AperFunction,ComponentPad*%
%ADD10C,3.000000*%
%TD*%
%TA.AperFunction,WasherPad*%
%ADD11C,3.000000*%
%TD*%
%TA.AperFunction,WasherPad*%
%ADD12C,5.000000*%
%TD*%
%TA.AperFunction,HeatsinkPad*%
%ADD13C,0.600000*%
%TD*%
%TA.AperFunction,ComponentPad*%
%ADD14C,0.400000*%
%TD*%
%TA.AperFunction,ComponentPad*%
%ADD15C,2.500000*%
%TD*%
%TA.AperFunction,ComponentPad*%
%ADD16O,1.000000X2.100000*%
%TD*%
%TA.AperFunction,ComponentPad*%
%ADD17O,1.000000X1.800000*%
%TD*%
%TA.AperFunction,ComponentPad*%
%ADD18C,5.600000*%
%TD*%
%TA.AperFunction,ViaPad*%
%ADD19C,0.600000*%
%TD*%
%TA.AperFunction,Conductor*%
%ADD20C,0.200000*%
%TD*%
%TA.AperFunction,Conductor*%
%ADD21C,0.300000*%
%TD*%
%TA.AperFunction,Conductor*%
%ADD22C,0.400000*%
%TD*%
%TA.AperFunction,Conductor*%
%ADD23C,0.500000*%
%TD*%
%TA.AperFunction,Conductor*%
%ADD24C,0.600000*%
%TD*%
G04 APERTURE END LIST*
D10*
%TO.P,BT402,2,-*%
%TO.N,GND*%
X126300000Y-107000000D03*
%TO.P,BT402,1,+*%
%TO.N,+BATT*%
X197700000Y-107000000D03*
D11*
%TO.P,BT402,*%
%TO.N,*%
X196250000Y-97300000D03*
D12*
X188850000Y-107000000D03*
X135150000Y-107000000D03*
%TD*%
D13*
%TO.P,U304,41,GND*%
%TO.N,GND*%
X139900000Y-92160000D03*
X139900000Y-90760000D03*
X139200000Y-92860000D03*
X139200000Y-91460000D03*
X139200000Y-90060000D03*
X138500000Y-92160000D03*
X138500000Y-90760000D03*
X137800000Y-92860000D03*
X137800000Y-91460000D03*
X137800000Y-90060000D03*
X137100000Y-92160000D03*
X137100000Y-90760000D03*
%TD*%
D14*
%TO.P,U501,3,VSS*%
%TO.N,GND*%
X183675000Y-92600000D03*
X183675000Y-93550000D03*
X183675000Y-94500000D03*
%TD*%
%TO.P,U601,3,VSS*%
%TO.N,GND*%
X183650000Y-100300000D03*
X183650000Y-101250000D03*
X183650000Y-102200000D03*
%TD*%
D12*
%TO.P,BT401,*%
%TO.N,*%
X135150000Y-120500000D03*
X188850000Y-120500000D03*
D11*
X196250000Y-130200000D03*
D10*
%TO.P,BT401,1,+*%
%TO.N,+BATT*%
X197700000Y-120500000D03*
%TO.P,BT401,2,-*%
%TO.N,GND*%
X126300000Y-120500000D03*
%TD*%
D15*
%TO.P,J901,1,Pin_1*%
%TO.N,GND*%
X136850000Y-149750000D03*
%TO.P,J901,2,Pin_2*%
%TO.N,/SIG*%
X141930000Y-149750000D03*
%TO.P,J901,3,Pin_3*%
%TO.N,/ANALOG_1*%
X147010000Y-149750000D03*
%TO.P,J901,4,Pin_4*%
%TO.N,/ANALOG_2*%
X152090000Y-149750000D03*
%TO.P,J901,5,Pin_5*%
%TO.N,/ANALOG_3*%
X157170000Y-149750000D03*
%TO.P,J901,6,Pin_6*%
%TO.N,+3V3*%
X162250000Y-149750000D03*
%TD*%
D16*
%TO.P,J201,S1,SHIELD*%
%TO.N,GND*%
X124430000Y-147125000D03*
D17*
X124430000Y-151325000D03*
D16*
X133070000Y-147125000D03*
D17*
X133070000Y-151325000D03*
%TD*%
D15*
%TO.P,J902,1,Pin_1*%
%TO.N,GND*%
X167850000Y-149750000D03*
%TO.P,J902,2,Pin_2*%
%TO.N,SOLAR*%
X172930000Y-149750000D03*
%TO.P,J902,3,Pin_3*%
%TO.N,GND*%
X178010000Y-149750000D03*
%TO.P,J902,4,Pin_4*%
%TO.N,/I2C_SCL*%
X183090000Y-149750000D03*
%TO.P,J902,5,Pin_5*%
%TO.N,/I2C_SDA*%
X188170000Y-149750000D03*
%TO.P,J902,6,Pin_6*%
%TO.N,+3V3*%
X193250000Y-149750000D03*
%TD*%
D18*
%TO.P,H3,1,1*%
%TO.N,unconnected-(H3-Pad1)*%
X118400000Y-128000000D03*
%TD*%
%TO.P,H2,1,1*%
%TO.N,unconnected-(H2-Pad1)*%
X205500000Y-96000000D03*
%TD*%
%TO.P,H1,1,1*%
%TO.N,unconnected-(H1-Pad1)*%
X118400000Y-96000000D03*
%TD*%
%TO.P,H4,1,1*%
%TO.N,unconnected-(H4-Pad1)*%
X205500000Y-128000000D03*
%TD*%
D19*
%TO.N,/BOOT*%
X148750000Y-103587500D03*
X128400000Y-99800000D03*
%TO.N,GND*%
X209060000Y-128740000D03*
X209060000Y-126200000D03*
X209060000Y-95720000D03*
X206520000Y-131280000D03*
X203980000Y-131280000D03*
X201440000Y-131280000D03*
X201440000Y-128740000D03*
X201440000Y-126200000D03*
X201440000Y-123660000D03*
X201440000Y-98260000D03*
X201440000Y-95720000D03*
X201440000Y-93180000D03*
X198900000Y-151600000D03*
X198900000Y-149060000D03*
X198900000Y-146520000D03*
X198900000Y-143980000D03*
X198900000Y-141440000D03*
X198900000Y-138900000D03*
X198900000Y-136360000D03*
X198900000Y-133820000D03*
X198900000Y-131280000D03*
X198900000Y-128740000D03*
X198900000Y-126200000D03*
X198900000Y-123660000D03*
X198900000Y-118580000D03*
X198900000Y-116040000D03*
X198900000Y-113500000D03*
X198900000Y-110960000D03*
X198900000Y-103340000D03*
X198900000Y-100800000D03*
X198900000Y-98260000D03*
X198900000Y-95720000D03*
X198900000Y-93180000D03*
X198900000Y-90640000D03*
X198900000Y-88100000D03*
X198900000Y-83020000D03*
X198900000Y-80480000D03*
X198900000Y-77940000D03*
X196360000Y-151600000D03*
X196360000Y-149060000D03*
X196360000Y-146520000D03*
X196360000Y-143980000D03*
X196360000Y-141440000D03*
X196360000Y-138900000D03*
X196360000Y-136360000D03*
X196360000Y-133820000D03*
X196360000Y-126200000D03*
X196360000Y-123660000D03*
X196360000Y-118580000D03*
X196360000Y-116040000D03*
X196360000Y-113500000D03*
X196360000Y-110960000D03*
X196360000Y-100800000D03*
X196360000Y-93180000D03*
X196360000Y-90640000D03*
X196360000Y-88100000D03*
X196360000Y-83020000D03*
X196360000Y-80480000D03*
X196360000Y-77940000D03*
X193820000Y-151600000D03*
X193820000Y-95720000D03*
X193820000Y-93180000D03*
X193820000Y-80480000D03*
X193820000Y-77940000D03*
X191280000Y-149060000D03*
X191280000Y-146520000D03*
X191280000Y-143980000D03*
X191280000Y-141440000D03*
X191280000Y-138900000D03*
X191280000Y-136360000D03*
X191280000Y-133820000D03*
X191280000Y-131280000D03*
X191280000Y-128740000D03*
X191280000Y-126200000D03*
X191280000Y-123660000D03*
X191280000Y-116040000D03*
X191280000Y-113500000D03*
X191280000Y-110960000D03*
X191280000Y-103340000D03*
X191280000Y-85560000D03*
X191280000Y-80480000D03*
X191280000Y-77940000D03*
X188740000Y-151600000D03*
X188740000Y-146520000D03*
X188740000Y-143980000D03*
X188740000Y-141440000D03*
X188740000Y-138900000D03*
X188740000Y-136360000D03*
X188740000Y-133820000D03*
X188740000Y-131280000D03*
X188740000Y-128740000D03*
X188740000Y-126200000D03*
X188740000Y-123660000D03*
X188740000Y-116040000D03*
X188740000Y-113500000D03*
X188740000Y-110960000D03*
X188740000Y-77940000D03*
X186200000Y-151600000D03*
X186200000Y-143980000D03*
X186200000Y-141440000D03*
X186200000Y-138900000D03*
X186200000Y-136360000D03*
X186200000Y-133820000D03*
X186200000Y-131280000D03*
X186200000Y-128740000D03*
X186200000Y-126200000D03*
X186200000Y-123660000D03*
X186200000Y-118580000D03*
X186200000Y-116040000D03*
X186200000Y-113500000D03*
X186200000Y-110960000D03*
X186200000Y-88100000D03*
X186200000Y-77940000D03*
X183660000Y-151600000D03*
X183660000Y-141440000D03*
X183660000Y-138900000D03*
X183660000Y-136360000D03*
X183660000Y-133820000D03*
X183660000Y-131280000D03*
X183660000Y-128740000D03*
X183660000Y-126200000D03*
X183660000Y-123660000D03*
X183660000Y-121120000D03*
X183660000Y-118580000D03*
X183660000Y-116040000D03*
X183660000Y-113500000D03*
X183660000Y-110960000D03*
X183660000Y-108420000D03*
X183660000Y-105880000D03*
X183660000Y-103340000D03*
X183660000Y-98260000D03*
X183660000Y-95720000D03*
X183660000Y-77940000D03*
X181120000Y-151600000D03*
X181120000Y-146520000D03*
X181120000Y-138900000D03*
X181120000Y-136360000D03*
X181120000Y-133820000D03*
X181120000Y-131280000D03*
X181120000Y-128740000D03*
X181120000Y-126200000D03*
X181120000Y-123660000D03*
X181120000Y-121120000D03*
X181120000Y-118580000D03*
X181120000Y-116040000D03*
X181120000Y-113500000D03*
X181120000Y-110960000D03*
X181120000Y-108420000D03*
X181120000Y-105880000D03*
X181120000Y-88100000D03*
X181120000Y-83020000D03*
X181120000Y-80480000D03*
X181120000Y-77940000D03*
X178580000Y-151600000D03*
X178580000Y-143980000D03*
X178580000Y-136360000D03*
X178580000Y-133820000D03*
X178580000Y-131280000D03*
X178580000Y-128740000D03*
X178580000Y-126200000D03*
X178580000Y-123660000D03*
X178580000Y-121120000D03*
X178580000Y-118580000D03*
X178580000Y-116040000D03*
X178580000Y-113500000D03*
X178580000Y-110960000D03*
X178580000Y-108420000D03*
X178580000Y-105880000D03*
X178580000Y-88100000D03*
X178580000Y-83020000D03*
X178580000Y-80480000D03*
X178580000Y-77940000D03*
X176040000Y-151600000D03*
X176040000Y-149060000D03*
X176040000Y-146520000D03*
X176040000Y-141440000D03*
X176040000Y-133820000D03*
X176040000Y-131280000D03*
X176040000Y-128740000D03*
X176040000Y-126200000D03*
X176040000Y-123660000D03*
X176040000Y-121120000D03*
X176040000Y-118580000D03*
X176040000Y-116040000D03*
X176040000Y-113500000D03*
X176040000Y-110960000D03*
X176040000Y-108420000D03*
X176040000Y-105880000D03*
X176040000Y-103340000D03*
X176040000Y-100800000D03*
X176040000Y-77940000D03*
X173500000Y-151600000D03*
X170960000Y-151600000D03*
X170960000Y-95720000D03*
X170960000Y-93180000D03*
X170960000Y-90640000D03*
X170960000Y-77940000D03*
X168420000Y-143980000D03*
X168420000Y-141440000D03*
X168420000Y-95720000D03*
X168420000Y-93180000D03*
X168420000Y-90640000D03*
X168420000Y-80480000D03*
X165880000Y-146520000D03*
X165880000Y-143980000D03*
X165880000Y-138900000D03*
X165880000Y-123660000D03*
X165880000Y-121120000D03*
X165880000Y-118580000D03*
X165880000Y-116040000D03*
X165880000Y-113500000D03*
X165880000Y-110960000D03*
X165880000Y-108420000D03*
X165880000Y-100800000D03*
X165880000Y-98260000D03*
X165880000Y-93180000D03*
X165880000Y-90640000D03*
X165880000Y-88100000D03*
X163340000Y-146520000D03*
X163340000Y-141440000D03*
X163340000Y-136360000D03*
X163340000Y-128740000D03*
X163340000Y-121120000D03*
X163340000Y-118580000D03*
X163340000Y-116040000D03*
X163340000Y-113500000D03*
X163340000Y-110960000D03*
X163340000Y-108420000D03*
X163340000Y-88100000D03*
X160800000Y-143980000D03*
X160800000Y-138900000D03*
X160800000Y-133820000D03*
X160800000Y-131280000D03*
X160800000Y-126200000D03*
X160800000Y-118580000D03*
X160800000Y-116040000D03*
X160800000Y-113500000D03*
X160800000Y-110960000D03*
X160800000Y-108420000D03*
X160800000Y-93180000D03*
X160800000Y-90640000D03*
X158260000Y-146520000D03*
X158260000Y-141440000D03*
X158260000Y-136360000D03*
X158260000Y-133820000D03*
X158260000Y-131280000D03*
X158260000Y-128740000D03*
X158260000Y-123660000D03*
X158260000Y-116040000D03*
X158260000Y-113500000D03*
X158260000Y-110960000D03*
X158260000Y-108420000D03*
X158260000Y-88100000D03*
X155720000Y-143980000D03*
X155720000Y-138900000D03*
X155720000Y-90640000D03*
X153180000Y-146520000D03*
X153180000Y-141440000D03*
X153180000Y-136360000D03*
X153180000Y-133820000D03*
X153180000Y-131280000D03*
X153180000Y-128740000D03*
X153180000Y-126200000D03*
X153180000Y-123660000D03*
X153180000Y-118580000D03*
X153180000Y-110960000D03*
X153180000Y-108420000D03*
X153180000Y-98260000D03*
X153180000Y-95720000D03*
X150640000Y-143980000D03*
X150640000Y-138900000D03*
X150640000Y-136360000D03*
X150640000Y-133820000D03*
X150640000Y-131280000D03*
X150640000Y-128740000D03*
X150640000Y-126200000D03*
X150640000Y-123660000D03*
X150640000Y-121120000D03*
X150640000Y-116040000D03*
X150640000Y-108420000D03*
X150640000Y-105880000D03*
X150640000Y-103340000D03*
X150640000Y-100800000D03*
X150640000Y-98260000D03*
X150640000Y-93180000D03*
X150640000Y-90640000D03*
X150640000Y-88100000D03*
X148100000Y-146520000D03*
X148100000Y-141440000D03*
X148100000Y-138900000D03*
X148100000Y-136360000D03*
X148100000Y-133820000D03*
X148100000Y-131280000D03*
X148100000Y-128740000D03*
X148100000Y-126200000D03*
X148100000Y-123660000D03*
X148100000Y-121120000D03*
X148100000Y-118580000D03*
X148100000Y-113500000D03*
X145560000Y-143980000D03*
X145560000Y-141440000D03*
X145560000Y-138900000D03*
X145560000Y-136360000D03*
X145560000Y-133820000D03*
X145560000Y-131280000D03*
X145560000Y-128740000D03*
X145560000Y-126200000D03*
X145560000Y-123660000D03*
X145560000Y-121120000D03*
X145560000Y-118580000D03*
X145560000Y-116040000D03*
X145560000Y-110960000D03*
X145560000Y-95720000D03*
X145560000Y-93180000D03*
X145560000Y-90640000D03*
X145560000Y-88100000D03*
X143020000Y-146520000D03*
X143020000Y-143980000D03*
X143020000Y-141440000D03*
X143020000Y-138900000D03*
X143020000Y-136360000D03*
X143020000Y-133820000D03*
X143020000Y-131280000D03*
X143020000Y-128740000D03*
X143020000Y-126200000D03*
X143020000Y-123660000D03*
X143020000Y-121120000D03*
X143020000Y-118580000D03*
X143020000Y-116040000D03*
X143020000Y-113500000D03*
X143020000Y-108420000D03*
X143020000Y-95720000D03*
X143020000Y-93180000D03*
X143020000Y-90640000D03*
X143020000Y-88100000D03*
X140480000Y-146520000D03*
X140480000Y-143980000D03*
X140480000Y-141440000D03*
X140480000Y-138900000D03*
X140480000Y-136360000D03*
X140480000Y-133820000D03*
X140480000Y-131280000D03*
X140480000Y-128740000D03*
X140480000Y-126200000D03*
X140480000Y-123660000D03*
X140480000Y-121120000D03*
X140480000Y-118580000D03*
X140480000Y-116040000D03*
X140480000Y-113500000D03*
X140480000Y-110960000D03*
X140480000Y-105880000D03*
X140480000Y-95720000D03*
X140480000Y-88100000D03*
X137940000Y-151600000D03*
X137940000Y-146520000D03*
X137940000Y-143980000D03*
X137940000Y-141440000D03*
X137940000Y-138900000D03*
X137940000Y-136360000D03*
X137940000Y-133820000D03*
X137940000Y-131280000D03*
X137940000Y-128740000D03*
X137940000Y-126200000D03*
X137940000Y-123660000D03*
X137940000Y-118580000D03*
X137940000Y-116040000D03*
X137940000Y-113500000D03*
X137940000Y-110960000D03*
X137940000Y-103340000D03*
X137940000Y-95720000D03*
X137940000Y-83020000D03*
X135400000Y-151600000D03*
X135400000Y-143980000D03*
X135400000Y-141440000D03*
X135400000Y-138900000D03*
X135400000Y-136360000D03*
X135400000Y-133820000D03*
X135400000Y-131280000D03*
X135400000Y-128740000D03*
X135400000Y-126200000D03*
X135400000Y-123660000D03*
X135400000Y-116040000D03*
X135400000Y-113500000D03*
X135400000Y-110960000D03*
X135400000Y-95720000D03*
X135400000Y-93180000D03*
X135400000Y-83020000D03*
X132860000Y-149060000D03*
X132860000Y-143980000D03*
X132860000Y-141440000D03*
X132860000Y-138900000D03*
X132860000Y-136360000D03*
X132860000Y-131280000D03*
X132860000Y-128740000D03*
X132860000Y-126200000D03*
X132860000Y-123660000D03*
X132860000Y-116040000D03*
X132860000Y-113500000D03*
X132860000Y-110960000D03*
X132860000Y-103340000D03*
X132860000Y-95720000D03*
X132860000Y-93180000D03*
X132860000Y-83020000D03*
X130320000Y-151600000D03*
X130320000Y-149060000D03*
X130320000Y-131280000D03*
X130320000Y-128740000D03*
X130320000Y-126200000D03*
X130320000Y-123660000D03*
X130320000Y-121120000D03*
X130320000Y-118580000D03*
X130320000Y-116040000D03*
X130320000Y-113500000D03*
X130320000Y-110960000D03*
X130320000Y-108420000D03*
X130320000Y-105880000D03*
X130320000Y-103340000D03*
X127780000Y-151600000D03*
X127780000Y-149060000D03*
X127780000Y-131280000D03*
X127780000Y-128740000D03*
X127780000Y-126200000D03*
X127780000Y-123660000D03*
X127780000Y-118580000D03*
X127780000Y-116040000D03*
X127780000Y-113500000D03*
X127780000Y-110960000D03*
X127780000Y-103340000D03*
X127780000Y-98260000D03*
X127780000Y-95720000D03*
X127780000Y-83020000D03*
X125240000Y-149060000D03*
X125240000Y-143980000D03*
X125240000Y-141440000D03*
X125240000Y-138900000D03*
X125240000Y-136360000D03*
X125240000Y-131280000D03*
X125240000Y-128740000D03*
X125240000Y-126200000D03*
X125240000Y-123660000D03*
X125240000Y-118580000D03*
X125240000Y-116040000D03*
X125240000Y-113500000D03*
X125240000Y-110960000D03*
X125240000Y-103340000D03*
X125240000Y-98260000D03*
X125240000Y-95720000D03*
X125240000Y-93180000D03*
X125240000Y-83020000D03*
X122700000Y-131280000D03*
X122700000Y-128740000D03*
X122700000Y-126200000D03*
X122700000Y-123660000D03*
X122700000Y-98260000D03*
X122700000Y-95720000D03*
X122700000Y-93180000D03*
X120160000Y-131280000D03*
X115080000Y-128740000D03*
X115080000Y-126200000D03*
X115080000Y-98260000D03*
X115080000Y-95720000D03*
%TO.N,/ONE_WIRE*%
X159450000Y-105762500D03*
X141550000Y-99550000D03*
%TO.N,+BATT*%
X183350000Y-90100000D03*
X154700000Y-88300000D03*
%TO.N,SOLAR*%
X172930000Y-101720000D03*
X154700000Y-94000000D03*
%TO.N,/SOLAR_SENSE*%
X151675000Y-95300000D03*
X143950000Y-98250000D03*
%TO.N,/A2*%
X139450000Y-84050000D03*
X170150000Y-83437500D03*
%TO.N,/A3*%
X171000000Y-79425000D03*
X139600000Y-83050000D03*
%TO.N,/I2C_SDA*%
X129800000Y-97710000D03*
%TO.N,/I2C_SCL*%
X135550000Y-103150000D03*
%TO.N,+3V3*%
X158800000Y-90600000D03*
X173100000Y-86250000D03*
X174550000Y-78100000D03*
X174000000Y-82300000D03*
X129750000Y-85010000D03*
X179800000Y-84750000D03*
X160293750Y-100268750D03*
X156000000Y-95962500D03*
%TO.N,VBUS*%
X131150000Y-145100000D03*
X126350000Y-145050000D03*
%TD*%
D20*
%TO.N,/BOOT*%
X136900000Y-96900000D02*
X143587500Y-103587500D01*
X129400000Y-96900000D02*
X136900000Y-96900000D01*
X129000000Y-97300000D02*
X129400000Y-96900000D01*
X143587500Y-103587500D02*
X148750000Y-103587500D01*
X129000000Y-99200000D02*
X129000000Y-97300000D01*
X128400000Y-99800000D02*
X129000000Y-99200000D01*
%TO.N,/ONE_WIRE*%
X153237500Y-99550000D02*
X159450000Y-105762500D01*
X141550000Y-99550000D02*
X153237500Y-99550000D01*
%TO.N,+BATT*%
X157850000Y-91450000D02*
X154700000Y-88300000D01*
X182000000Y-91450000D02*
X157850000Y-91450000D01*
X183350000Y-90100000D02*
X182000000Y-91450000D01*
%TO.N,SOLAR*%
X165210000Y-94000000D02*
X172930000Y-101720000D01*
X154700000Y-94000000D02*
X165210000Y-94000000D01*
%TO.N,/SOLAR_SENSE*%
X148725000Y-98250000D02*
X151675000Y-95300000D01*
X143950000Y-98250000D02*
X148725000Y-98250000D01*
%TO.N,/A3*%
X167375000Y-83050000D02*
X171000000Y-79425000D01*
X139600000Y-83050000D02*
X167375000Y-83050000D01*
%TO.N,/A2*%
X139500000Y-84100000D02*
X169487500Y-84100000D01*
X169487500Y-84100000D02*
X170150000Y-83437500D01*
X139450000Y-84050000D02*
X139500000Y-84100000D01*
D21*
%TO.N,/I2C_SDA*%
X136130000Y-97710000D02*
X188170000Y-149750000D01*
X129800000Y-97710000D02*
X136130000Y-97710000D01*
%TO.N,/I2C_SCL*%
X182150000Y-149750000D02*
X135550000Y-103150000D01*
X183090000Y-149750000D02*
X182150000Y-149750000D01*
D22*
%TO.N,+3V3*%
X164700000Y-85010000D02*
X177350000Y-85010000D01*
X164390000Y-85010000D02*
X158800000Y-90600000D01*
X129750000Y-85010000D02*
X164700000Y-85010000D01*
D20*
X173100000Y-86250000D02*
X174340000Y-85010000D01*
X174000000Y-78650000D02*
X174000000Y-82300000D01*
X174550000Y-78100000D02*
X174000000Y-78650000D01*
D22*
X177350000Y-85010000D02*
X179540000Y-85010000D01*
D20*
X174000000Y-82300000D02*
X176710000Y-85010000D01*
D22*
X179540000Y-85010000D02*
X179800000Y-84750000D01*
X193250000Y-98200000D02*
X193250000Y-149750000D01*
X179800000Y-84750000D02*
X193250000Y-98200000D01*
X156000000Y-95962500D02*
X156000000Y-95975000D01*
X156000000Y-95975000D02*
X160293750Y-100268750D01*
D23*
X190200000Y-152800000D02*
X193250000Y-149750000D01*
X165300000Y-152800000D02*
X190200000Y-152800000D01*
X162250000Y-149750000D02*
X165300000Y-152800000D01*
D22*
%TO.N,VBUS*%
X131150000Y-145100000D02*
X131100000Y-145050000D01*
D24*
X131100000Y-145050000D02*
X126350000Y-145050000D01*
D22*
%TO.N,SOLAR*%
X172930000Y-149680000D02*
X172930000Y-149750000D01*
D20*
%TO.N,/ANALOG_3*%
X157170000Y-149750000D02*
X157170000Y-148470000D01*
%TD*%
%TA.AperFunction,Conductor*%
%TO.N,GND*%
G36*
X198703564Y-76300845D02*
G01*
X198726039Y-76302525D01*
X198931870Y-76317911D01*
X198949274Y-76320465D01*
X199156391Y-76366078D01*
X199168770Y-76368805D01*
X199185659Y-76373805D01*
X199396084Y-76452753D01*
X199412084Y-76460091D01*
X199609212Y-76568059D01*
X199624017Y-76577595D01*
X199803843Y-76712392D01*
X199817150Y-76723930D01*
X199976069Y-76882849D01*
X199987607Y-76896156D01*
X200122404Y-77075982D01*
X200131941Y-77090789D01*
X200239906Y-77287910D01*
X200247248Y-77303919D01*
X200326194Y-77514341D01*
X200331194Y-77531229D01*
X200379532Y-77750713D01*
X200382089Y-77768139D01*
X200399155Y-77996433D01*
X200399500Y-78005677D01*
X200399500Y-88952405D01*
X200399500Y-89000000D01*
X200399500Y-89139155D01*
X200433046Y-89415435D01*
X200478414Y-89599500D01*
X200499651Y-89685662D01*
X200598341Y-89945884D01*
X200679228Y-90100000D01*
X200727677Y-90192311D01*
X200885774Y-90421355D01*
X201070327Y-90629673D01*
X201278645Y-90814226D01*
X201507689Y-90972323D01*
X201662221Y-91053428D01*
X201754115Y-91101658D01*
X201754119Y-91101659D01*
X201754120Y-91101660D01*
X201774278Y-91109305D01*
X202014337Y-91200348D01*
X202014339Y-91200348D01*
X202014343Y-91200350D01*
X202284565Y-91266954D01*
X202498222Y-91292896D01*
X202560842Y-91300500D01*
X202560845Y-91300500D01*
X202660438Y-91300500D01*
X205452405Y-91300500D01*
X205497220Y-91300500D01*
X205502783Y-91300625D01*
X205915712Y-91319169D01*
X205926753Y-91320163D01*
X206333625Y-91375277D01*
X206344546Y-91377259D01*
X206619906Y-91440109D01*
X206744811Y-91468618D01*
X206755536Y-91471578D01*
X206874776Y-91510321D01*
X207146004Y-91598447D01*
X207156400Y-91602350D01*
X207362544Y-91690460D01*
X207533908Y-91763705D01*
X207543933Y-91768532D01*
X207905470Y-91963083D01*
X207915019Y-91968789D01*
X208053198Y-92060000D01*
X208257646Y-92194955D01*
X208266648Y-92201495D01*
X208587625Y-92457466D01*
X208596004Y-92464786D01*
X208892753Y-92748507D01*
X208900438Y-92756545D01*
X209170566Y-93065731D01*
X209177488Y-93074413D01*
X209284939Y-93222306D01*
X209418798Y-93406547D01*
X209424928Y-93415832D01*
X209635505Y-93768278D01*
X209640777Y-93778076D01*
X209818906Y-94147964D01*
X209823279Y-94158196D01*
X209967533Y-94542561D01*
X209970971Y-94553142D01*
X210080192Y-94948894D01*
X210082668Y-94959742D01*
X210155972Y-95363686D01*
X210157466Y-95374711D01*
X210175347Y-95573373D01*
X210192139Y-95759953D01*
X210194269Y-95783612D01*
X210194768Y-95794728D01*
X210194768Y-96205271D01*
X210194269Y-96216387D01*
X210157466Y-96625288D01*
X210155972Y-96636313D01*
X210082668Y-97040257D01*
X210080192Y-97051105D01*
X209970971Y-97446857D01*
X209967533Y-97457438D01*
X209823279Y-97841803D01*
X209818906Y-97852035D01*
X209640777Y-98221923D01*
X209635505Y-98231721D01*
X209424928Y-98584167D01*
X209418798Y-98593452D01*
X209177491Y-98925583D01*
X209170557Y-98934278D01*
X209112702Y-99000500D01*
X208900442Y-99243450D01*
X208892753Y-99251492D01*
X208596004Y-99535213D01*
X208587625Y-99542533D01*
X208266648Y-99798504D01*
X208257646Y-99805044D01*
X207915021Y-100031209D01*
X207905470Y-100036916D01*
X207543933Y-100231467D01*
X207533908Y-100236294D01*
X207156411Y-100397645D01*
X207145994Y-100401555D01*
X206755536Y-100528421D01*
X206744811Y-100531381D01*
X206344559Y-100622737D01*
X206333611Y-100624724D01*
X205926774Y-100679834D01*
X205915692Y-100680831D01*
X205502783Y-100699375D01*
X205497220Y-100699500D01*
X202560842Y-100699500D01*
X202395077Y-100719627D01*
X202284565Y-100733046D01*
X202147493Y-100766831D01*
X202014337Y-100799651D01*
X201754115Y-100898341D01*
X201507691Y-101027676D01*
X201507682Y-101027681D01*
X201278650Y-101185770D01*
X201278647Y-101185772D01*
X201278645Y-101185774D01*
X201070327Y-101370327D01*
X200886751Y-101577543D01*
X200885770Y-101578650D01*
X200727681Y-101807682D01*
X200727676Y-101807691D01*
X200598341Y-102054115D01*
X200499651Y-102314337D01*
X200466831Y-102447493D01*
X200445047Y-102535878D01*
X200433046Y-102584567D01*
X200399500Y-102860842D01*
X200399500Y-121139157D01*
X200406776Y-121199076D01*
X200433046Y-121415435D01*
X200474603Y-121584038D01*
X200499651Y-121685662D01*
X200598341Y-121945884D01*
X200672610Y-122087389D01*
X200727677Y-122192311D01*
X200885774Y-122421355D01*
X201070327Y-122629673D01*
X201278645Y-122814226D01*
X201507689Y-122972323D01*
X201662221Y-123053428D01*
X201754115Y-123101658D01*
X202014337Y-123200348D01*
X202014339Y-123200348D01*
X202014343Y-123200350D01*
X202284565Y-123266954D01*
X202498222Y-123292896D01*
X202560842Y-123300500D01*
X202560845Y-123300500D01*
X202660438Y-123300500D01*
X205452405Y-123300500D01*
X205497220Y-123300500D01*
X205502783Y-123300625D01*
X205915712Y-123319169D01*
X205926753Y-123320163D01*
X206333625Y-123375277D01*
X206344546Y-123377259D01*
X206669168Y-123451352D01*
X206744811Y-123468618D01*
X206755536Y-123471578D01*
X206874776Y-123510321D01*
X207146004Y-123598447D01*
X207156400Y-123602350D01*
X207415678Y-123713171D01*
X207533908Y-123763705D01*
X207543933Y-123768532D01*
X207905470Y-123963083D01*
X207915019Y-123968789D01*
X208086333Y-124081872D01*
X208257646Y-124194955D01*
X208266648Y-124201495D01*
X208587625Y-124457466D01*
X208596004Y-124464786D01*
X208892753Y-124748507D01*
X208900438Y-124756545D01*
X209170566Y-125065731D01*
X209177491Y-125074416D01*
X209418798Y-125406547D01*
X209424928Y-125415832D01*
X209635505Y-125768278D01*
X209640777Y-125778076D01*
X209818906Y-126147964D01*
X209823279Y-126158196D01*
X209967533Y-126542561D01*
X209970971Y-126553142D01*
X210080192Y-126948894D01*
X210082668Y-126959742D01*
X210155972Y-127363686D01*
X210157466Y-127374711D01*
X210194269Y-127783612D01*
X210194768Y-127794728D01*
X210194768Y-128205271D01*
X210194269Y-128216387D01*
X210157466Y-128625288D01*
X210155972Y-128636313D01*
X210082668Y-129040257D01*
X210080192Y-129051105D01*
X209970971Y-129446857D01*
X209967533Y-129457438D01*
X209823279Y-129841803D01*
X209818906Y-129852035D01*
X209640777Y-130221923D01*
X209635505Y-130231721D01*
X209424928Y-130584167D01*
X209418798Y-130593452D01*
X209177491Y-130925583D01*
X209170557Y-130934278D01*
X209112702Y-131000500D01*
X208900442Y-131243450D01*
X208892753Y-131251492D01*
X208596004Y-131535213D01*
X208587625Y-131542533D01*
X208266648Y-131798504D01*
X208257646Y-131805044D01*
X207915021Y-132031209D01*
X207905470Y-132036916D01*
X207543933Y-132231467D01*
X207533908Y-132236294D01*
X207156411Y-132397645D01*
X207145994Y-132401555D01*
X206755536Y-132528421D01*
X206744811Y-132531381D01*
X206344559Y-132622737D01*
X206333611Y-132624724D01*
X205926774Y-132679834D01*
X205915692Y-132680831D01*
X205502783Y-132699375D01*
X205497220Y-132699500D01*
X202560842Y-132699500D01*
X202395077Y-132719627D01*
X202284565Y-132733046D01*
X202147493Y-132766831D01*
X202014337Y-132799651D01*
X201754115Y-132898341D01*
X201507691Y-133027676D01*
X201507682Y-133027681D01*
X201278650Y-133185770D01*
X201278647Y-133185772D01*
X201278645Y-133185774D01*
X201149146Y-133300500D01*
X201070327Y-133370327D01*
X200885770Y-133578650D01*
X200727681Y-133807682D01*
X200727676Y-133807691D01*
X200598341Y-134054115D01*
X200499651Y-134314337D01*
X200433046Y-134584567D01*
X200399500Y-134860842D01*
X200399500Y-151995572D01*
X200399184Y-152004418D01*
X200382834Y-152233017D01*
X200380316Y-152250529D01*
X200332543Y-152470137D01*
X200327559Y-152487112D01*
X200249019Y-152697688D01*
X200241669Y-152713782D01*
X200133959Y-152911036D01*
X200124394Y-152925919D01*
X199989710Y-153105836D01*
X199978124Y-153119207D01*
X199819207Y-153278124D01*
X199805836Y-153289710D01*
X199625919Y-153424394D01*
X199611036Y-153433959D01*
X199413782Y-153541669D01*
X199397688Y-153549019D01*
X199187112Y-153627559D01*
X199170137Y-153632543D01*
X198950529Y-153680316D01*
X198933017Y-153682834D01*
X198704418Y-153699184D01*
X198695572Y-153699500D01*
X125204428Y-153699500D01*
X125195582Y-153699184D01*
X124966982Y-153682834D01*
X124949470Y-153680316D01*
X124729862Y-153632543D01*
X124712887Y-153627559D01*
X124502311Y-153549019D01*
X124486217Y-153541669D01*
X124288963Y-153433959D01*
X124274080Y-153424394D01*
X124094163Y-153289710D01*
X124080792Y-153278124D01*
X123921875Y-153119207D01*
X123910289Y-153105836D01*
X123775605Y-152925919D01*
X123766040Y-152911036D01*
X123658330Y-152713782D01*
X123650985Y-152697700D01*
X123640832Y-152670480D01*
X123635849Y-152600792D01*
X123669334Y-152539469D01*
X123730657Y-152505984D01*
X123800348Y-152510968D01*
X123825906Y-152524048D01*
X123956315Y-152611185D01*
X123956328Y-152611192D01*
X124138308Y-152686569D01*
X124180000Y-152694862D01*
X124180000Y-151891988D01*
X124189940Y-151909205D01*
X124245795Y-151965060D01*
X124314204Y-152004556D01*
X124390504Y-152025000D01*
X124469496Y-152025000D01*
X124545796Y-152004556D01*
X124614205Y-151965060D01*
X124670060Y-151909205D01*
X124680000Y-151891988D01*
X124680000Y-152694862D01*
X124721690Y-152686569D01*
X124721692Y-152686569D01*
X124903671Y-152611192D01*
X124903684Y-152611185D01*
X125067462Y-152501751D01*
X125067466Y-152501748D01*
X125206748Y-152362466D01*
X125206751Y-152362462D01*
X125316185Y-152198684D01*
X125316192Y-152198671D01*
X125391569Y-152016693D01*
X125391572Y-152016681D01*
X125429999Y-151823495D01*
X125430000Y-151823492D01*
X125430000Y-151575000D01*
X124730000Y-151575000D01*
X124730000Y-151075000D01*
X125430000Y-151075000D01*
X125430000Y-150826508D01*
X125429999Y-150826504D01*
X132070000Y-150826504D01*
X132070000Y-151075000D01*
X132770000Y-151075000D01*
X132770000Y-151575000D01*
X132070000Y-151575000D01*
X132070000Y-151823495D01*
X132108427Y-152016681D01*
X132108430Y-152016693D01*
X132183807Y-152198671D01*
X132183814Y-152198684D01*
X132293248Y-152362462D01*
X132293251Y-152362466D01*
X132432533Y-152501748D01*
X132432537Y-152501751D01*
X132596315Y-152611185D01*
X132596328Y-152611192D01*
X132778308Y-152686569D01*
X132820000Y-152694862D01*
X132820000Y-151891988D01*
X132829940Y-151909205D01*
X132885795Y-151965060D01*
X132954204Y-152004556D01*
X133030504Y-152025000D01*
X133109496Y-152025000D01*
X133185796Y-152004556D01*
X133254205Y-151965060D01*
X133310060Y-151909205D01*
X133320000Y-151891988D01*
X133320000Y-152694862D01*
X133361690Y-152686569D01*
X133361692Y-152686569D01*
X133543671Y-152611192D01*
X133543684Y-152611185D01*
X133707462Y-152501751D01*
X133707466Y-152501748D01*
X133846748Y-152362466D01*
X133846751Y-152362462D01*
X133956185Y-152198684D01*
X133956192Y-152198671D01*
X134031569Y-152016693D01*
X134031572Y-152016681D01*
X134069999Y-151823495D01*
X134070000Y-151823492D01*
X134070000Y-151575000D01*
X133370000Y-151575000D01*
X133370000Y-151075000D01*
X134070000Y-151075000D01*
X134070000Y-150826508D01*
X134069999Y-150826504D01*
X134031572Y-150633318D01*
X134031569Y-150633306D01*
X133956192Y-150451328D01*
X133956185Y-150451315D01*
X133846751Y-150287537D01*
X133846748Y-150287533D01*
X133707466Y-150148251D01*
X133707462Y-150148248D01*
X133543684Y-150038814D01*
X133543671Y-150038807D01*
X133361691Y-149963429D01*
X133361683Y-149963427D01*
X133320000Y-149955135D01*
X133320000Y-150758011D01*
X133310060Y-150740795D01*
X133254205Y-150684940D01*
X133185796Y-150645444D01*
X133109496Y-150625000D01*
X133030504Y-150625000D01*
X132954204Y-150645444D01*
X132885795Y-150684940D01*
X132829940Y-150740795D01*
X132820000Y-150758011D01*
X132820000Y-149955136D01*
X132819999Y-149955135D01*
X132778316Y-149963427D01*
X132778308Y-149963429D01*
X132596328Y-150038807D01*
X132596315Y-150038814D01*
X132432537Y-150148248D01*
X132432533Y-150148251D01*
X132293251Y-150287533D01*
X132293248Y-150287537D01*
X132183814Y-150451315D01*
X132183807Y-150451328D01*
X132108430Y-150633306D01*
X132108427Y-150633318D01*
X132070000Y-150826504D01*
X125429999Y-150826504D01*
X125391572Y-150633318D01*
X125391569Y-150633306D01*
X125316192Y-150451328D01*
X125316185Y-150451315D01*
X125206751Y-150287537D01*
X125206748Y-150287533D01*
X125067466Y-150148251D01*
X125067462Y-150148248D01*
X124903684Y-150038814D01*
X124903671Y-150038807D01*
X124721691Y-149963429D01*
X124721683Y-149963427D01*
X124680000Y-149955135D01*
X124680000Y-150758011D01*
X124670060Y-150740795D01*
X124614205Y-150684940D01*
X124545796Y-150645444D01*
X124469496Y-150625000D01*
X124390504Y-150625000D01*
X124314204Y-150645444D01*
X124245795Y-150684940D01*
X124189940Y-150740795D01*
X124180000Y-150758011D01*
X124180000Y-149955136D01*
X124179999Y-149955135D01*
X124138316Y-149963427D01*
X124138308Y-149963429D01*
X123956328Y-150038807D01*
X123956315Y-150038814D01*
X123792537Y-150148248D01*
X123792533Y-150148251D01*
X123712181Y-150228604D01*
X123650858Y-150262089D01*
X123581166Y-150257105D01*
X123525233Y-150215233D01*
X123500816Y-150149769D01*
X123500500Y-150140923D01*
X123500500Y-149749995D01*
X135095093Y-149749995D01*
X135095093Y-149750004D01*
X135114692Y-150011545D01*
X135114693Y-150011550D01*
X135173058Y-150267270D01*
X135268883Y-150511426D01*
X135268882Y-150511426D01*
X135400027Y-150738573D01*
X135447874Y-150798571D01*
X136248958Y-149997488D01*
X136273978Y-150057890D01*
X136345112Y-150164351D01*
X136435649Y-150254888D01*
X136542110Y-150326022D01*
X136602510Y-150351041D01*
X135800830Y-151152720D01*
X135972546Y-151269793D01*
X135972550Y-151269795D01*
X136208854Y-151383594D01*
X136208858Y-151383595D01*
X136459494Y-151460907D01*
X136459500Y-151460909D01*
X136718848Y-151499999D01*
X136718857Y-151500000D01*
X136981143Y-151500000D01*
X136981151Y-151499999D01*
X137240499Y-151460909D01*
X137240505Y-151460907D01*
X137491143Y-151383595D01*
X137727445Y-151269798D01*
X137727447Y-151269797D01*
X137899168Y-151152720D01*
X137097488Y-150351041D01*
X137157890Y-150326022D01*
X137264351Y-150254888D01*
X137354888Y-150164351D01*
X137426022Y-150057890D01*
X137451041Y-149997488D01*
X138252125Y-150798572D01*
X138299971Y-150738573D01*
X138431116Y-150511426D01*
X138526941Y-150267270D01*
X138585306Y-150011550D01*
X138585307Y-150011545D01*
X138604907Y-149750004D01*
X138604907Y-149749995D01*
X138604907Y-149749994D01*
X140474529Y-149749994D01*
X140474529Y-149750005D01*
X140494379Y-149989559D01*
X140553389Y-150222589D01*
X140649951Y-150442729D01*
X140769036Y-150625000D01*
X140781429Y-150643969D01*
X140944236Y-150820825D01*
X140944239Y-150820827D01*
X140944242Y-150820830D01*
X141133924Y-150968466D01*
X141133930Y-150968470D01*
X141133933Y-150968472D01*
X141345344Y-151082882D01*
X141345347Y-151082883D01*
X141572699Y-151160933D01*
X141572701Y-151160933D01*
X141572703Y-151160934D01*
X141809808Y-151200500D01*
X141809809Y-151200500D01*
X142050191Y-151200500D01*
X142050192Y-151200500D01*
X142287297Y-151160934D01*
X142514656Y-151082882D01*
X142726067Y-150968472D01*
X142915764Y-150820825D01*
X143078571Y-150643969D01*
X143210049Y-150442728D01*
X143306610Y-150222591D01*
X143365620Y-149989563D01*
X143380166Y-149814019D01*
X143385471Y-149750005D01*
X143385471Y-149749994D01*
X145554529Y-149749994D01*
X145554529Y-149750005D01*
X145574379Y-149989559D01*
X145633389Y-150222589D01*
X145729951Y-150442729D01*
X145849036Y-150625000D01*
X145861429Y-150643969D01*
X146024236Y-150820825D01*
X146024239Y-150820827D01*
X146024242Y-150820830D01*
X146213924Y-150968466D01*
X146213930Y-150968470D01*
X146213933Y-150968472D01*
X146425344Y-151082882D01*
X146425347Y-151082883D01*
X146652699Y-151160933D01*
X146652701Y-151160933D01*
X146652703Y-151160934D01*
X146889808Y-151200500D01*
X146889809Y-151200500D01*
X147130191Y-151200500D01*
X147130192Y-151200500D01*
X147367297Y-151160934D01*
X147594656Y-151082882D01*
X147806067Y-150968472D01*
X147995764Y-150820825D01*
X148158571Y-150643969D01*
X148290049Y-150442728D01*
X148386610Y-150222591D01*
X148445620Y-149989563D01*
X148460166Y-149814019D01*
X148465471Y-149750005D01*
X148465471Y-149749994D01*
X150634529Y-149749994D01*
X150634529Y-149750005D01*
X150654379Y-149989559D01*
X150713389Y-150222589D01*
X150809951Y-150442729D01*
X150929036Y-150625000D01*
X150941429Y-150643969D01*
X151104236Y-150820825D01*
X151104239Y-150820827D01*
X151104242Y-150820830D01*
X151293924Y-150968466D01*
X151293930Y-150968470D01*
X151293933Y-150968472D01*
X151505344Y-151082882D01*
X151505347Y-151082883D01*
X151732699Y-151160933D01*
X151732701Y-151160933D01*
X151732703Y-151160934D01*
X151969808Y-151200500D01*
X151969809Y-151200500D01*
X152210191Y-151200500D01*
X152210192Y-151200500D01*
X152447297Y-151160934D01*
X152674656Y-151082882D01*
X152886067Y-150968472D01*
X153075764Y-150820825D01*
X153238571Y-150643969D01*
X153370049Y-150442728D01*
X153466610Y-150222591D01*
X153525620Y-149989563D01*
X153540166Y-149814019D01*
X153545471Y-149750005D01*
X153545471Y-149749994D01*
X155714529Y-149749994D01*
X155714529Y-149750005D01*
X155734379Y-149989559D01*
X155793389Y-150222589D01*
X155889951Y-150442729D01*
X156009036Y-150625000D01*
X156021429Y-150643969D01*
X156184236Y-150820825D01*
X156184239Y-150820827D01*
X156184242Y-150820830D01*
X156373924Y-150968466D01*
X156373930Y-150968470D01*
X156373933Y-150968472D01*
X156585344Y-151082882D01*
X156585347Y-151082883D01*
X156812699Y-151160933D01*
X156812701Y-151160933D01*
X156812703Y-151160934D01*
X157049808Y-151200500D01*
X157049809Y-151200500D01*
X157290191Y-151200500D01*
X157290192Y-151200500D01*
X157527297Y-151160934D01*
X157754656Y-151082882D01*
X157966067Y-150968472D01*
X158155764Y-150820825D01*
X158318571Y-150643969D01*
X158450049Y-150442728D01*
X158546610Y-150222591D01*
X158605620Y-149989563D01*
X158620166Y-149814019D01*
X158625471Y-149750005D01*
X158625471Y-149749994D01*
X158605620Y-149510440D01*
X158605620Y-149510437D01*
X158546610Y-149277409D01*
X158450049Y-149057272D01*
X158405165Y-148988573D01*
X158369293Y-148933666D01*
X158318571Y-148856031D01*
X158155764Y-148679175D01*
X158155759Y-148679171D01*
X158155757Y-148679169D01*
X157966075Y-148531533D01*
X157966069Y-148531529D01*
X157754657Y-148417118D01*
X157754652Y-148417116D01*
X157527300Y-148339066D01*
X157488660Y-148332618D01*
X157425775Y-148302166D01*
X157410699Y-148285800D01*
X157410461Y-148285490D01*
X157354512Y-148229541D01*
X157354504Y-148229535D01*
X157285995Y-148189982D01*
X157285990Y-148189979D01*
X157253528Y-148181281D01*
X157209562Y-148169500D01*
X157130438Y-148169500D01*
X157092224Y-148179739D01*
X157054009Y-148189979D01*
X157054004Y-148189982D01*
X156985495Y-148229535D01*
X156985487Y-148229541D01*
X156929534Y-148285494D01*
X156929293Y-148285809D01*
X156929022Y-148286006D01*
X156923793Y-148291236D01*
X156922976Y-148290419D01*
X156872860Y-148327004D01*
X156851343Y-148332617D01*
X156812696Y-148339067D01*
X156585347Y-148417116D01*
X156585342Y-148417118D01*
X156373930Y-148531529D01*
X156373924Y-148531533D01*
X156184242Y-148679169D01*
X156184239Y-148679172D01*
X156021430Y-148856029D01*
X156021427Y-148856033D01*
X155889951Y-149057270D01*
X155793389Y-149277410D01*
X155734379Y-149510440D01*
X155714529Y-149749994D01*
X153545471Y-149749994D01*
X153525620Y-149510440D01*
X153525620Y-149510437D01*
X153466610Y-149277409D01*
X153370049Y-149057272D01*
X153325165Y-148988573D01*
X153289293Y-148933666D01*
X153238571Y-148856031D01*
X153075764Y-148679175D01*
X153075759Y-148679171D01*
X153075757Y-148679169D01*
X152886075Y-148531533D01*
X152886069Y-148531529D01*
X152674657Y-148417118D01*
X152674652Y-148417116D01*
X152447300Y-148339066D01*
X152226168Y-148302166D01*
X152210192Y-148299500D01*
X151969808Y-148299500D01*
X151953832Y-148302166D01*
X151732699Y-148339066D01*
X151505347Y-148417116D01*
X151505342Y-148417118D01*
X151293930Y-148531529D01*
X151293924Y-148531533D01*
X151104242Y-148679169D01*
X151104239Y-148679172D01*
X150941430Y-148856029D01*
X150941427Y-148856033D01*
X150809951Y-149057270D01*
X150713389Y-149277410D01*
X150654379Y-149510440D01*
X150634529Y-149749994D01*
X148465471Y-149749994D01*
X148445620Y-149510440D01*
X148445620Y-149510437D01*
X148386610Y-149277409D01*
X148290049Y-149057272D01*
X148245165Y-148988573D01*
X148209293Y-148933666D01*
X148158571Y-148856031D01*
X147995764Y-148679175D01*
X147995759Y-148679171D01*
X147995757Y-148679169D01*
X147806075Y-148531533D01*
X147806069Y-148531529D01*
X147594657Y-148417118D01*
X147594652Y-148417116D01*
X147367300Y-148339066D01*
X147146168Y-148302166D01*
X147130192Y-148299500D01*
X146889808Y-148299500D01*
X146873832Y-148302166D01*
X146652699Y-148339066D01*
X146425347Y-148417116D01*
X146425342Y-148417118D01*
X146213930Y-148531529D01*
X146213924Y-148531533D01*
X146024242Y-148679169D01*
X146024239Y-148679172D01*
X145861430Y-148856029D01*
X145861427Y-148856033D01*
X145729951Y-149057270D01*
X145633389Y-149277410D01*
X145574379Y-149510440D01*
X145554529Y-149749994D01*
X143385471Y-149749994D01*
X143365620Y-149510440D01*
X143365620Y-149510437D01*
X143306610Y-149277409D01*
X143210049Y-149057272D01*
X143165165Y-148988573D01*
X143129293Y-148933666D01*
X143078571Y-148856031D01*
X142915764Y-148679175D01*
X142915759Y-148679171D01*
X142915757Y-148679169D01*
X142726075Y-148531533D01*
X142726069Y-148531529D01*
X142514657Y-148417118D01*
X142514652Y-148417116D01*
X142287300Y-148339066D01*
X142066168Y-148302166D01*
X142050192Y-148299500D01*
X141809808Y-148299500D01*
X141793832Y-148302166D01*
X141572699Y-148339066D01*
X141345347Y-148417116D01*
X141345342Y-148417118D01*
X141133930Y-148531529D01*
X141133924Y-148531533D01*
X140944242Y-148679169D01*
X140944239Y-148679172D01*
X140781430Y-148856029D01*
X140781427Y-148856033D01*
X140649951Y-149057270D01*
X140553389Y-149277410D01*
X140494379Y-149510440D01*
X140474529Y-149749994D01*
X138604907Y-149749994D01*
X138585307Y-149488454D01*
X138585306Y-149488449D01*
X138526941Y-149232729D01*
X138431116Y-148988573D01*
X138431117Y-148988573D01*
X138299972Y-148761426D01*
X138252124Y-148701427D01*
X137451041Y-149502510D01*
X137426022Y-149442110D01*
X137354888Y-149335649D01*
X137264351Y-149245112D01*
X137157890Y-149173978D01*
X137097488Y-149148958D01*
X137899168Y-148347278D01*
X137727454Y-148230206D01*
X137727445Y-148230201D01*
X137491142Y-148116404D01*
X137491144Y-148116404D01*
X137240505Y-148039092D01*
X137240499Y-148039090D01*
X136981151Y-148000000D01*
X136718848Y-148000000D01*
X136459500Y-148039090D01*
X136459494Y-148039092D01*
X136208858Y-148116404D01*
X136208854Y-148116405D01*
X135972547Y-148230205D01*
X135972539Y-148230210D01*
X135800830Y-148347277D01*
X136602511Y-149148958D01*
X136542110Y-149173978D01*
X136435649Y-149245112D01*
X136345112Y-149335649D01*
X136273978Y-149442110D01*
X136248958Y-149502510D01*
X135447874Y-148701427D01*
X135400028Y-148761425D01*
X135268883Y-148988573D01*
X135173058Y-149232729D01*
X135114693Y-149488449D01*
X135114692Y-149488454D01*
X135095093Y-149749995D01*
X123500500Y-149749995D01*
X123500500Y-148459077D01*
X123520185Y-148392038D01*
X123572989Y-148346283D01*
X123642147Y-148336339D01*
X123705703Y-148365364D01*
X123712181Y-148371396D01*
X123792533Y-148451748D01*
X123792537Y-148451751D01*
X123956315Y-148561185D01*
X123956328Y-148561192D01*
X124138308Y-148636569D01*
X124180000Y-148644862D01*
X124180000Y-147841988D01*
X124189940Y-147859205D01*
X124245795Y-147915060D01*
X124314204Y-147954556D01*
X124390504Y-147975000D01*
X124469496Y-147975000D01*
X124545796Y-147954556D01*
X124614205Y-147915060D01*
X124670060Y-147859205D01*
X124680000Y-147841988D01*
X124680000Y-148644862D01*
X124721690Y-148636569D01*
X124721692Y-148636569D01*
X124903671Y-148561192D01*
X124903684Y-148561185D01*
X125067462Y-148451751D01*
X125067466Y-148451748D01*
X125206748Y-148312466D01*
X125206751Y-148312462D01*
X125316181Y-148148690D01*
X125319037Y-148143346D01*
X125367993Y-148093495D01*
X125436128Y-148078025D01*
X125501811Y-148101847D01*
X125503895Y-148103412D01*
X125506632Y-148105512D01*
X125506635Y-148105515D01*
X125637865Y-148181281D01*
X125784234Y-148220500D01*
X125784236Y-148220500D01*
X125935764Y-148220500D01*
X125935766Y-148220500D01*
X126082135Y-148181281D01*
X126213365Y-148105515D01*
X126320515Y-147998365D01*
X126396281Y-147867135D01*
X126435500Y-147720766D01*
X126435500Y-147569234D01*
X131064500Y-147569234D01*
X131064500Y-147720765D01*
X131103719Y-147867136D01*
X131141602Y-147932750D01*
X131179485Y-147998365D01*
X131286635Y-148105515D01*
X131417865Y-148181281D01*
X131564234Y-148220500D01*
X131564236Y-148220500D01*
X131715764Y-148220500D01*
X131715766Y-148220500D01*
X131862135Y-148181281D01*
X131993365Y-148105515D01*
X131993373Y-148105506D01*
X131996105Y-148103412D01*
X131998834Y-148102356D01*
X132000403Y-148101451D01*
X132000544Y-148101695D01*
X132061274Y-148078215D01*
X132129719Y-148092251D01*
X132179710Y-148141064D01*
X132180955Y-148143335D01*
X132183812Y-148148680D01*
X132293248Y-148312462D01*
X132293251Y-148312466D01*
X132432533Y-148451748D01*
X132432537Y-148451751D01*
X132596315Y-148561185D01*
X132596328Y-148561192D01*
X132778308Y-148636569D01*
X132820000Y-148644862D01*
X132820000Y-147841988D01*
X132829940Y-147859205D01*
X132885795Y-147915060D01*
X132954204Y-147954556D01*
X133030504Y-147975000D01*
X133109496Y-147975000D01*
X133185796Y-147954556D01*
X133254205Y-147915060D01*
X133310060Y-147859205D01*
X133320000Y-147841988D01*
X133320000Y-148644862D01*
X133361690Y-148636569D01*
X133361692Y-148636569D01*
X133543671Y-148561192D01*
X133543684Y-148561185D01*
X133707462Y-148451751D01*
X133707466Y-148451748D01*
X133846748Y-148312466D01*
X133846751Y-148312462D01*
X133956185Y-148148684D01*
X133956192Y-148148671D01*
X134031569Y-147966693D01*
X134031572Y-147966681D01*
X134069999Y-147773495D01*
X134070000Y-147773492D01*
X134070000Y-147375000D01*
X133370000Y-147375000D01*
X133370000Y-146875000D01*
X134070000Y-146875000D01*
X134070000Y-146476508D01*
X134069999Y-146476504D01*
X134031572Y-146283318D01*
X134031569Y-146283306D01*
X133956192Y-146101328D01*
X133956185Y-146101315D01*
X133846751Y-145937537D01*
X133846748Y-145937533D01*
X133707466Y-145798251D01*
X133707462Y-145798248D01*
X133543684Y-145688814D01*
X133543671Y-145688807D01*
X133361691Y-145613429D01*
X133361683Y-145613427D01*
X133320000Y-145605135D01*
X133320000Y-146408011D01*
X133310060Y-146390795D01*
X133254205Y-146334940D01*
X133185796Y-146295444D01*
X133109496Y-146275000D01*
X133030504Y-146275000D01*
X132954204Y-146295444D01*
X132885795Y-146334940D01*
X132829940Y-146390795D01*
X132820000Y-146408011D01*
X132820000Y-145605136D01*
X132819999Y-145605135D01*
X132778316Y-145613427D01*
X132778308Y-145613429D01*
X132596328Y-145688807D01*
X132596315Y-145688814D01*
X132432537Y-145798248D01*
X132432533Y-145798251D01*
X132293251Y-145937533D01*
X132293248Y-145937537D01*
X132183814Y-146101315D01*
X132183807Y-146101328D01*
X132108430Y-146283306D01*
X132108427Y-146283318D01*
X132070000Y-146476504D01*
X132070000Y-147013955D01*
X132050315Y-147080994D01*
X131997511Y-147126749D01*
X131928353Y-147136693D01*
X131884000Y-147121342D01*
X131862138Y-147108720D01*
X131862135Y-147108719D01*
X131715766Y-147069500D01*
X131564234Y-147069500D01*
X131417863Y-147108719D01*
X131286635Y-147184485D01*
X131286632Y-147184487D01*
X131179487Y-147291632D01*
X131179485Y-147291635D01*
X131103719Y-147422863D01*
X131064500Y-147569234D01*
X126435500Y-147569234D01*
X126396281Y-147422865D01*
X126320515Y-147291635D01*
X126213365Y-147184485D01*
X126103999Y-147121342D01*
X126082136Y-147108719D01*
X126008950Y-147089109D01*
X125935766Y-147069500D01*
X125784234Y-147069500D01*
X125637865Y-147108719D01*
X125637864Y-147108719D01*
X125637862Y-147108720D01*
X125637861Y-147108720D01*
X125616000Y-147121342D01*
X125548099Y-147137815D01*
X125482073Y-147114962D01*
X125438882Y-147060041D01*
X125430000Y-147013955D01*
X125430000Y-146476508D01*
X125429999Y-146476504D01*
X125391572Y-146283318D01*
X125391569Y-146283306D01*
X125316192Y-146101328D01*
X125316185Y-146101315D01*
X125206751Y-145937537D01*
X125206748Y-145937533D01*
X125067466Y-145798251D01*
X125067462Y-145798248D01*
X124903684Y-145688814D01*
X124903671Y-145688807D01*
X124721691Y-145613429D01*
X124721683Y-145613427D01*
X124680000Y-145605135D01*
X124680000Y-146408011D01*
X124670060Y-146390795D01*
X124614205Y-146334940D01*
X124545796Y-146295444D01*
X124469496Y-146275000D01*
X124390504Y-146275000D01*
X124314204Y-146295444D01*
X124245795Y-146334940D01*
X124189940Y-146390795D01*
X124180000Y-146408011D01*
X124180000Y-145605136D01*
X124179999Y-145605135D01*
X124138316Y-145613427D01*
X124138308Y-145613429D01*
X123956328Y-145688807D01*
X123956315Y-145688814D01*
X123792537Y-145798248D01*
X123792533Y-145798251D01*
X123712181Y-145878604D01*
X123650858Y-145912089D01*
X123581166Y-145907105D01*
X123525233Y-145865233D01*
X123500816Y-145799769D01*
X123500500Y-145790923D01*
X123500500Y-145049999D01*
X125844353Y-145049999D01*
X125848238Y-145077020D01*
X125849500Y-145094667D01*
X125849500Y-145115894D01*
X125856923Y-145143596D01*
X125859885Y-145158037D01*
X125864835Y-145192456D01*
X125864837Y-145192464D01*
X125873069Y-145210489D01*
X125880050Y-145229907D01*
X125883607Y-145243183D01*
X125883610Y-145243190D01*
X125901681Y-145274491D01*
X125907086Y-145284974D01*
X125924623Y-145323373D01*
X125932694Y-145332687D01*
X125946368Y-145351890D01*
X125949497Y-145357310D01*
X125949501Y-145357315D01*
X125980322Y-145388136D01*
X125986354Y-145394615D01*
X126018870Y-145432141D01*
X126018874Y-145432145D01*
X126022928Y-145434750D01*
X126038211Y-145447066D01*
X126042684Y-145450498D01*
X126042686Y-145450500D01*
X126086887Y-145476019D01*
X126091871Y-145479056D01*
X126139947Y-145509953D01*
X126139950Y-145509954D01*
X126139952Y-145509955D01*
X126140994Y-145510431D01*
X126150621Y-145513827D01*
X126156811Y-145516390D01*
X126156814Y-145516392D01*
X126213261Y-145531516D01*
X126216098Y-145532312D01*
X126278039Y-145550500D01*
X126284108Y-145550500D01*
X130892273Y-145550500D01*
X130931004Y-145558926D01*
X130931437Y-145557455D01*
X131078036Y-145600499D01*
X131078038Y-145600500D01*
X131078039Y-145600500D01*
X131221962Y-145600500D01*
X131221962Y-145600499D01*
X131360053Y-145559953D01*
X131481128Y-145482143D01*
X131575377Y-145373373D01*
X131635165Y-145242457D01*
X131655647Y-145100000D01*
X131635165Y-144957543D01*
X131575377Y-144826627D01*
X131575375Y-144826625D01*
X131575374Y-144826622D01*
X131481133Y-144717862D01*
X131481125Y-144717854D01*
X131477066Y-144715246D01*
X131456428Y-144698614D01*
X131407316Y-144649502D01*
X131407314Y-144649500D01*
X131304339Y-144590047D01*
X131293187Y-144583608D01*
X131229539Y-144566554D01*
X131165892Y-144549500D01*
X126421961Y-144549500D01*
X126278039Y-144549500D01*
X126216145Y-144567673D01*
X126213307Y-144568469D01*
X126156817Y-144583606D01*
X126150609Y-144586177D01*
X126140985Y-144589572D01*
X126139949Y-144590045D01*
X126091915Y-144620914D01*
X126086880Y-144623983D01*
X126042689Y-144649497D01*
X126038266Y-144652892D01*
X126022945Y-144665238D01*
X126018877Y-144667852D01*
X126018868Y-144667860D01*
X125986355Y-144705383D01*
X125980324Y-144711860D01*
X125949498Y-144742686D01*
X125946364Y-144748115D01*
X125932701Y-144767303D01*
X125924623Y-144776626D01*
X125924623Y-144776627D01*
X125907088Y-144815019D01*
X125901687Y-144825495D01*
X125883607Y-144856813D01*
X125883606Y-144856816D01*
X125880046Y-144870103D01*
X125873069Y-144889511D01*
X125864835Y-144907541D01*
X125859886Y-144941956D01*
X125856925Y-144956394D01*
X125849500Y-144984105D01*
X125849500Y-145005331D01*
X125848238Y-145022977D01*
X125844353Y-145049999D01*
X123500500Y-145049999D01*
X123500500Y-134860842D01*
X123488029Y-134758136D01*
X123466954Y-134584565D01*
X123400350Y-134314343D01*
X123301660Y-134054120D01*
X123301659Y-134054119D01*
X123301658Y-134054115D01*
X123213982Y-133887064D01*
X123172323Y-133807689D01*
X123014226Y-133578645D01*
X122829673Y-133370327D01*
X122621355Y-133185774D01*
X122392311Y-133027677D01*
X122307728Y-132983284D01*
X122145884Y-132898341D01*
X121885662Y-132799651D01*
X121821041Y-132783723D01*
X121615435Y-132733046D01*
X121477295Y-132716273D01*
X121339158Y-132699500D01*
X121339155Y-132699500D01*
X121239562Y-132699500D01*
X118402780Y-132699500D01*
X118397217Y-132699375D01*
X117984307Y-132680831D01*
X117973225Y-132679834D01*
X117566388Y-132624724D01*
X117555440Y-132622737D01*
X117155188Y-132531381D01*
X117144463Y-132528421D01*
X116754005Y-132401555D01*
X116743588Y-132397645D01*
X116366091Y-132236294D01*
X116356066Y-132231467D01*
X115994529Y-132036916D01*
X115984978Y-132031209D01*
X115642353Y-131805044D01*
X115633351Y-131798504D01*
X115312374Y-131542533D01*
X115303995Y-131535213D01*
X115007246Y-131251492D01*
X114999557Y-131243450D01*
X114729431Y-130934265D01*
X114722508Y-130925583D01*
X114688895Y-130879319D01*
X114481199Y-130593449D01*
X114475071Y-130584167D01*
X114264494Y-130231721D01*
X114259222Y-130221923D01*
X114248666Y-130200004D01*
X114081088Y-129852023D01*
X114076725Y-129841815D01*
X113932462Y-129457428D01*
X113929031Y-129446867D01*
X113819804Y-129051094D01*
X113817333Y-129040268D01*
X113744026Y-128636308D01*
X113742533Y-128625287D01*
X113726749Y-128449919D01*
X113705731Y-128216386D01*
X113705232Y-128205271D01*
X113705232Y-127999996D01*
X115394415Y-127999996D01*
X115394415Y-128000003D01*
X115414738Y-128348927D01*
X115414739Y-128348938D01*
X115475428Y-128693127D01*
X115475430Y-128693134D01*
X115575674Y-129027972D01*
X115714107Y-129348895D01*
X115714113Y-129348908D01*
X115888870Y-129651597D01*
X116097584Y-129931949D01*
X116097585Y-129931950D01*
X116110694Y-129945845D01*
X116337442Y-130186183D01*
X116513903Y-130334251D01*
X116605186Y-130410847D01*
X116605194Y-130410853D01*
X116897203Y-130602911D01*
X116897207Y-130602913D01*
X117209549Y-130759777D01*
X117537989Y-130879319D01*
X117878086Y-130959923D01*
X118225241Y-131000500D01*
X118225248Y-131000500D01*
X118574752Y-131000500D01*
X118574759Y-131000500D01*
X118921914Y-130959923D01*
X119262011Y-130879319D01*
X119590451Y-130759777D01*
X119902793Y-130602913D01*
X120194811Y-130410849D01*
X120462558Y-130186183D01*
X120689306Y-129945845D01*
X120702415Y-129931950D01*
X120702415Y-129931949D01*
X120761909Y-129852035D01*
X120911130Y-129651596D01*
X121085889Y-129348904D01*
X121224326Y-129027971D01*
X121324569Y-128693136D01*
X121334589Y-128636313D01*
X121385260Y-128348938D01*
X121385259Y-128348938D01*
X121385262Y-128348927D01*
X121405585Y-128000000D01*
X121385262Y-127651073D01*
X121385260Y-127651061D01*
X121324571Y-127306872D01*
X121324569Y-127306865D01*
X121324569Y-127306864D01*
X121224326Y-126972029D01*
X121085889Y-126651096D01*
X120911130Y-126348404D01*
X120911129Y-126348402D01*
X120702415Y-126068050D01*
X120702410Y-126068044D01*
X120586433Y-125945117D01*
X120462558Y-125813817D01*
X120314488Y-125689572D01*
X120194813Y-125589152D01*
X120194805Y-125589146D01*
X119902796Y-125397088D01*
X119590458Y-125240226D01*
X119590452Y-125240223D01*
X119262012Y-125120681D01*
X119262009Y-125120680D01*
X118921915Y-125040077D01*
X118878519Y-125035004D01*
X118574759Y-124999500D01*
X118225241Y-124999500D01*
X117921480Y-125035004D01*
X117878085Y-125040077D01*
X117878083Y-125040077D01*
X117537990Y-125120680D01*
X117537987Y-125120681D01*
X117209547Y-125240223D01*
X117209541Y-125240226D01*
X116897203Y-125397088D01*
X116605194Y-125589146D01*
X116605186Y-125589152D01*
X116337442Y-125813817D01*
X116337440Y-125813819D01*
X116097589Y-126068044D01*
X116097584Y-126068050D01*
X115888870Y-126348402D01*
X115714113Y-126651091D01*
X115714107Y-126651104D01*
X115575674Y-126972027D01*
X115475430Y-127306865D01*
X115475428Y-127306872D01*
X115414739Y-127651061D01*
X115414738Y-127651072D01*
X115394415Y-127999996D01*
X113705232Y-127999996D01*
X113705232Y-127794728D01*
X113705731Y-127783613D01*
X113717661Y-127651061D01*
X113742533Y-127374705D01*
X113744027Y-127363686D01*
X113754337Y-127306872D01*
X113817334Y-126959726D01*
X113819803Y-126948909D01*
X113929033Y-126553125D01*
X113932460Y-126542577D01*
X114076728Y-126158176D01*
X114081084Y-126147984D01*
X114259227Y-125778066D01*
X114264489Y-125768287D01*
X114475079Y-125415818D01*
X114481192Y-125406560D01*
X114722521Y-125074399D01*
X114729422Y-125065744D01*
X114999572Y-124756533D01*
X115007240Y-124748512D01*
X115304000Y-124464781D01*
X115312368Y-124457470D01*
X115633359Y-124201488D01*
X115642344Y-124194961D01*
X115984990Y-123968782D01*
X115994516Y-123963090D01*
X116356069Y-123768530D01*
X116366091Y-123763705D01*
X116743606Y-123602347D01*
X116753987Y-123598450D01*
X117144464Y-123471577D01*
X117155188Y-123468618D01*
X117555457Y-123377258D01*
X117566370Y-123375278D01*
X117973248Y-123320162D01*
X117984285Y-123319169D01*
X118397217Y-123300625D01*
X118402780Y-123300500D01*
X121339158Y-123300500D01*
X121397378Y-123293430D01*
X121615435Y-123266954D01*
X121885657Y-123200350D01*
X122145880Y-123101660D01*
X122392311Y-122972323D01*
X122621355Y-122814226D01*
X122829673Y-122629673D01*
X123014226Y-122421355D01*
X123172323Y-122192311D01*
X123301660Y-121945880D01*
X123400350Y-121685657D01*
X123466954Y-121415435D01*
X123495430Y-121180903D01*
X123500500Y-121139157D01*
X123500500Y-120499998D01*
X124294891Y-120499998D01*
X124294891Y-120500001D01*
X124315300Y-120785362D01*
X124376109Y-121064895D01*
X124476091Y-121332958D01*
X124613191Y-121584038D01*
X124613196Y-121584046D01*
X124719882Y-121726561D01*
X124719883Y-121726562D01*
X125509521Y-120936923D01*
X125600924Y-121073717D01*
X125726283Y-121199076D01*
X125863074Y-121290477D01*
X125073436Y-122080115D01*
X125215960Y-122186807D01*
X125215961Y-122186808D01*
X125467042Y-122323908D01*
X125467041Y-122323908D01*
X125735104Y-122423890D01*
X126014637Y-122484699D01*
X126299999Y-122505109D01*
X126300001Y-122505109D01*
X126585362Y-122484699D01*
X126864895Y-122423890D01*
X127132958Y-122323908D01*
X127384047Y-122186803D01*
X127526561Y-122080116D01*
X127526562Y-122080115D01*
X126736924Y-121290477D01*
X126873717Y-121199076D01*
X126999076Y-121073717D01*
X127090477Y-120936924D01*
X127880115Y-121726562D01*
X127880116Y-121726561D01*
X127986803Y-121584047D01*
X128123908Y-121332958D01*
X128223890Y-121064895D01*
X128284699Y-120785362D01*
X128305109Y-120500001D01*
X128305109Y-120500000D01*
X132444564Y-120500000D01*
X132464289Y-120826099D01*
X132523178Y-121147452D01*
X132620366Y-121459342D01*
X132620370Y-121459354D01*
X132620373Y-121459361D01*
X132754455Y-121757279D01*
X132887166Y-121976809D01*
X132923473Y-122036868D01*
X133124954Y-122294039D01*
X133355960Y-122525045D01*
X133613131Y-122726526D01*
X133613134Y-122726528D01*
X133613137Y-122726530D01*
X133892721Y-122895545D01*
X134190639Y-123029627D01*
X134190652Y-123029631D01*
X134190657Y-123029633D01*
X134421802Y-123101660D01*
X134502547Y-123126821D01*
X134823896Y-123185710D01*
X135150000Y-123205436D01*
X135476104Y-123185710D01*
X135797453Y-123126821D01*
X136109361Y-123029627D01*
X136407279Y-122895545D01*
X136686863Y-122726530D01*
X136944036Y-122525048D01*
X137175048Y-122294036D01*
X137376530Y-122036863D01*
X137545545Y-121757279D01*
X137679627Y-121459361D01*
X137776821Y-121147453D01*
X137835710Y-120826104D01*
X137855436Y-120500000D01*
X137835710Y-120173896D01*
X137776821Y-119852547D01*
X137730043Y-119702430D01*
X137679633Y-119540657D01*
X137679631Y-119540652D01*
X137679627Y-119540639D01*
X137545545Y-119242721D01*
X137376530Y-118963137D01*
X137376528Y-118963134D01*
X137376526Y-118963131D01*
X137175045Y-118705960D01*
X136944039Y-118474954D01*
X136686868Y-118273473D01*
X136679306Y-118268901D01*
X136407279Y-118104455D01*
X136109361Y-117970373D01*
X136109354Y-117970370D01*
X136109342Y-117970366D01*
X135797452Y-117873178D01*
X135476099Y-117814289D01*
X135150000Y-117794564D01*
X134823900Y-117814289D01*
X134502547Y-117873178D01*
X134190657Y-117970366D01*
X134190641Y-117970372D01*
X134190639Y-117970373D01*
X134000933Y-118055752D01*
X133892725Y-118104453D01*
X133892723Y-118104454D01*
X133613131Y-118273473D01*
X133355960Y-118474954D01*
X133124954Y-118705960D01*
X132923473Y-118963131D01*
X132800370Y-119166768D01*
X132754455Y-119242721D01*
X132676487Y-119415960D01*
X132620372Y-119540642D01*
X132620366Y-119540657D01*
X132523178Y-119852547D01*
X132464289Y-120173900D01*
X132444564Y-120500000D01*
X128305109Y-120500000D01*
X128305109Y-120499998D01*
X128284699Y-120214637D01*
X128223890Y-119935104D01*
X128123908Y-119667041D01*
X127986808Y-119415961D01*
X127986807Y-119415960D01*
X127880115Y-119273436D01*
X127090477Y-120063074D01*
X126999076Y-119926283D01*
X126873717Y-119800924D01*
X126736924Y-119709522D01*
X127526562Y-118919883D01*
X127526561Y-118919882D01*
X127384046Y-118813196D01*
X127384038Y-118813191D01*
X127132957Y-118676091D01*
X127132958Y-118676091D01*
X126864895Y-118576109D01*
X126585362Y-118515300D01*
X126300001Y-118494891D01*
X126299999Y-118494891D01*
X126014637Y-118515300D01*
X125735104Y-118576109D01*
X125467041Y-118676091D01*
X125215961Y-118813191D01*
X125215953Y-118813196D01*
X125073437Y-118919882D01*
X125073436Y-118919883D01*
X125863075Y-119709522D01*
X125726283Y-119800924D01*
X125600924Y-119926283D01*
X125509522Y-120063075D01*
X124719883Y-119273436D01*
X124719882Y-119273437D01*
X124613196Y-119415953D01*
X124613191Y-119415961D01*
X124476091Y-119667041D01*
X124376109Y-119935104D01*
X124315300Y-120214637D01*
X124294891Y-120499998D01*
X123500500Y-120499998D01*
X123500500Y-106999998D01*
X124294891Y-106999998D01*
X124294891Y-107000001D01*
X124315300Y-107285362D01*
X124376109Y-107564895D01*
X124476091Y-107832958D01*
X124613191Y-108084038D01*
X124613196Y-108084046D01*
X124719882Y-108226561D01*
X124719883Y-108226562D01*
X125509521Y-107436923D01*
X125600924Y-107573717D01*
X125726283Y-107699076D01*
X125863074Y-107790477D01*
X125073436Y-108580115D01*
X125215960Y-108686807D01*
X125215961Y-108686808D01*
X125467042Y-108823908D01*
X125467041Y-108823908D01*
X125735104Y-108923890D01*
X126014637Y-108984699D01*
X126299999Y-109005109D01*
X126300001Y-109005109D01*
X126585362Y-108984699D01*
X126864895Y-108923890D01*
X127132958Y-108823908D01*
X127384047Y-108686803D01*
X127526561Y-108580116D01*
X127526562Y-108580115D01*
X126736924Y-107790477D01*
X126873717Y-107699076D01*
X126999076Y-107573717D01*
X127090477Y-107436924D01*
X127880115Y-108226562D01*
X127880116Y-108226561D01*
X127986803Y-108084047D01*
X128123908Y-107832958D01*
X128223890Y-107564895D01*
X128284699Y-107285362D01*
X128305109Y-107000001D01*
X128305109Y-107000000D01*
X132444564Y-107000000D01*
X132464289Y-107326099D01*
X132523178Y-107647452D01*
X132620366Y-107959342D01*
X132620370Y-107959354D01*
X132620373Y-107959361D01*
X132754455Y-108257279D01*
X132887166Y-108476809D01*
X132923473Y-108536868D01*
X133124954Y-108794039D01*
X133355960Y-109025045D01*
X133613131Y-109226526D01*
X133613134Y-109226528D01*
X133613137Y-109226530D01*
X133892721Y-109395545D01*
X134190639Y-109529627D01*
X134190652Y-109529631D01*
X134190657Y-109529633D01*
X134502547Y-109626821D01*
X134823896Y-109685710D01*
X135150000Y-109705436D01*
X135476104Y-109685710D01*
X135797453Y-109626821D01*
X136109361Y-109529627D01*
X136407279Y-109395545D01*
X136686863Y-109226530D01*
X136944036Y-109025048D01*
X137175048Y-108794036D01*
X137376530Y-108536863D01*
X137545545Y-108257279D01*
X137679627Y-107959361D01*
X137776821Y-107647453D01*
X137835710Y-107326104D01*
X137855436Y-107000000D01*
X137835710Y-106673896D01*
X137776821Y-106352547D01*
X137736283Y-106222454D01*
X137709190Y-106135509D01*
X137708038Y-106065649D01*
X137744839Y-106006257D01*
X137807908Y-105976189D01*
X137877221Y-105984991D01*
X137915256Y-106010938D01*
X181600599Y-149696281D01*
X181634084Y-149757604D01*
X181636494Y-149773722D01*
X181654379Y-149989559D01*
X181713389Y-150222589D01*
X181809951Y-150442729D01*
X181929036Y-150625000D01*
X181941429Y-150643969D01*
X182104236Y-150820825D01*
X182104239Y-150820827D01*
X182104242Y-150820830D01*
X182293924Y-150968466D01*
X182293930Y-150968470D01*
X182293933Y-150968472D01*
X182505344Y-151082882D01*
X182505347Y-151082883D01*
X182732699Y-151160933D01*
X182732701Y-151160933D01*
X182732703Y-151160934D01*
X182969808Y-151200500D01*
X182969809Y-151200500D01*
X183210191Y-151200500D01*
X183210192Y-151200500D01*
X183447297Y-151160934D01*
X183674656Y-151082882D01*
X183886067Y-150968472D01*
X184075764Y-150820825D01*
X184238571Y-150643969D01*
X184370049Y-150442728D01*
X184466610Y-150222591D01*
X184525620Y-149989563D01*
X184540166Y-149814019D01*
X184545471Y-149750005D01*
X184545471Y-149749994D01*
X184525620Y-149510440D01*
X184525620Y-149510437D01*
X184466610Y-149277409D01*
X184370049Y-149057272D01*
X184325165Y-148988573D01*
X184289293Y-148933666D01*
X184238571Y-148856031D01*
X184075764Y-148679175D01*
X184075759Y-148679171D01*
X184075757Y-148679169D01*
X183886075Y-148531533D01*
X183886069Y-148531529D01*
X183674657Y-148417118D01*
X183674652Y-148417116D01*
X183447300Y-148339066D01*
X183226168Y-148302166D01*
X183210192Y-148299500D01*
X182969808Y-148299500D01*
X182953832Y-148302166D01*
X182732699Y-148339066D01*
X182505347Y-148417116D01*
X182505342Y-148417118D01*
X182293930Y-148531529D01*
X182293924Y-148531533D01*
X182104242Y-148679169D01*
X182104232Y-148679178D01*
X181938021Y-148859731D01*
X181878134Y-148895722D01*
X181808296Y-148893621D01*
X181759111Y-148863429D01*
X136086503Y-103190821D01*
X136053018Y-103129498D01*
X136051449Y-103120805D01*
X136035165Y-103007543D01*
X135975377Y-102876627D01*
X135881128Y-102767857D01*
X135760053Y-102690047D01*
X135760051Y-102690046D01*
X135760049Y-102690045D01*
X135760050Y-102690045D01*
X135621963Y-102649500D01*
X135621961Y-102649500D01*
X135478039Y-102649500D01*
X135478036Y-102649500D01*
X135339949Y-102690045D01*
X135218873Y-102767856D01*
X135124623Y-102876626D01*
X135124622Y-102876628D01*
X135064834Y-103007543D01*
X135044353Y-103150000D01*
X135064834Y-103292456D01*
X135124622Y-103423371D01*
X135124623Y-103423373D01*
X135218872Y-103532143D01*
X135339947Y-103609953D01*
X135339950Y-103609954D01*
X135339949Y-103609954D01*
X135478036Y-103650499D01*
X135478038Y-103650500D01*
X135478039Y-103650500D01*
X135503456Y-103650500D01*
X135570495Y-103670185D01*
X135591137Y-103686819D01*
X136139061Y-104234743D01*
X136172546Y-104296066D01*
X136167562Y-104365758D01*
X136125690Y-104421691D01*
X136060226Y-104446108D01*
X136014490Y-104440810D01*
X135797444Y-104373176D01*
X135476099Y-104314289D01*
X135150000Y-104294564D01*
X134823900Y-104314289D01*
X134502547Y-104373178D01*
X134190657Y-104470366D01*
X134190641Y-104470372D01*
X134190639Y-104470373D01*
X134000933Y-104555752D01*
X133892725Y-104604453D01*
X133892723Y-104604454D01*
X133613131Y-104773473D01*
X133355960Y-104974954D01*
X133124954Y-105205960D01*
X132923473Y-105463131D01*
X132754454Y-105742723D01*
X132754453Y-105742725D01*
X132745553Y-105762500D01*
X132633741Y-106010938D01*
X132620372Y-106040642D01*
X132620366Y-106040657D01*
X132523178Y-106352547D01*
X132464289Y-106673900D01*
X132444564Y-107000000D01*
X128305109Y-107000000D01*
X128305109Y-106999998D01*
X128284699Y-106714637D01*
X128223890Y-106435104D01*
X128123908Y-106167041D01*
X127986808Y-105915961D01*
X127986807Y-105915960D01*
X127880115Y-105773436D01*
X127090477Y-106563074D01*
X126999076Y-106426283D01*
X126873717Y-106300924D01*
X126736924Y-106209522D01*
X127526562Y-105419883D01*
X127526561Y-105419882D01*
X127384046Y-105313196D01*
X127384038Y-105313191D01*
X127132957Y-105176091D01*
X127132958Y-105176091D01*
X126864895Y-105076109D01*
X126585362Y-105015300D01*
X126300001Y-104994891D01*
X126299999Y-104994891D01*
X126014637Y-105015300D01*
X125735104Y-105076109D01*
X125467041Y-105176091D01*
X125215961Y-105313191D01*
X125215953Y-105313196D01*
X125073437Y-105419882D01*
X125073436Y-105419883D01*
X125863075Y-106209522D01*
X125726283Y-106300924D01*
X125600924Y-106426283D01*
X125509522Y-106563075D01*
X124719883Y-105773436D01*
X124719882Y-105773437D01*
X124613196Y-105915953D01*
X124613191Y-105915961D01*
X124476091Y-106167041D01*
X124376109Y-106435104D01*
X124315300Y-106714637D01*
X124294891Y-106999998D01*
X123500500Y-106999998D01*
X123500500Y-102860842D01*
X123488029Y-102758136D01*
X123466954Y-102584565D01*
X123400350Y-102314343D01*
X123394910Y-102300000D01*
X123301658Y-102054115D01*
X123213982Y-101887064D01*
X123172323Y-101807689D01*
X123014226Y-101578645D01*
X122829673Y-101370327D01*
X122621355Y-101185774D01*
X122392311Y-101027677D01*
X122277000Y-100967157D01*
X122145884Y-100898341D01*
X121885662Y-100799651D01*
X121785648Y-100775000D01*
X121615435Y-100733046D01*
X121477295Y-100716273D01*
X121339158Y-100699500D01*
X121339155Y-100699500D01*
X121239562Y-100699500D01*
X118402780Y-100699500D01*
X118397217Y-100699375D01*
X117984307Y-100680831D01*
X117973225Y-100679834D01*
X117566388Y-100624724D01*
X117555440Y-100622737D01*
X117155188Y-100531381D01*
X117144463Y-100528421D01*
X116754005Y-100401555D01*
X116743588Y-100397645D01*
X116366091Y-100236294D01*
X116356066Y-100231467D01*
X115994529Y-100036916D01*
X115984978Y-100031209D01*
X115642353Y-99805044D01*
X115635410Y-99800000D01*
X127894353Y-99800000D01*
X127914834Y-99942456D01*
X127957973Y-100036916D01*
X127974623Y-100073373D01*
X128068872Y-100182143D01*
X128189947Y-100259953D01*
X128189950Y-100259954D01*
X128189949Y-100259954D01*
X128297107Y-100291417D01*
X128326336Y-100300000D01*
X128328036Y-100300499D01*
X128328038Y-100300500D01*
X128328039Y-100300500D01*
X128471962Y-100300500D01*
X128471962Y-100300499D01*
X128610053Y-100259953D01*
X128731128Y-100182143D01*
X128825377Y-100073373D01*
X128885165Y-99942457D01*
X128905647Y-99800000D01*
X128904339Y-99790905D01*
X128914279Y-99721749D01*
X128939390Y-99685579D01*
X129240460Y-99384511D01*
X129270267Y-99332883D01*
X129280021Y-99315989D01*
X129300500Y-99239562D01*
X129300500Y-98211026D01*
X129320185Y-98143987D01*
X129372989Y-98098232D01*
X129442147Y-98088288D01*
X129491538Y-98106709D01*
X129589947Y-98169953D01*
X129589950Y-98169954D01*
X129589949Y-98169954D01*
X129728036Y-98210499D01*
X129728038Y-98210500D01*
X129728039Y-98210500D01*
X129871962Y-98210500D01*
X129871962Y-98210499D01*
X130010053Y-98169953D01*
X130131128Y-98092143D01*
X130131136Y-98092133D01*
X130132688Y-98090790D01*
X130134572Y-98089929D01*
X130138589Y-98087348D01*
X130138960Y-98087925D01*
X130196243Y-98061763D01*
X130213895Y-98060500D01*
X135933456Y-98060500D01*
X136000495Y-98080185D01*
X136021137Y-98096819D01*
X186857984Y-148933666D01*
X186891469Y-148994989D01*
X186886485Y-149064681D01*
X186883859Y-149071156D01*
X186793391Y-149277406D01*
X186793389Y-149277410D01*
X186734379Y-149510440D01*
X186714529Y-149749994D01*
X186714529Y-149750005D01*
X186734379Y-149989559D01*
X186793389Y-150222589D01*
X186889951Y-150442729D01*
X187009036Y-150625000D01*
X187021429Y-150643969D01*
X187184236Y-150820825D01*
X187184239Y-150820827D01*
X187184242Y-150820830D01*
X187373924Y-150968466D01*
X187373930Y-150968470D01*
X187373933Y-150968472D01*
X187585344Y-151082882D01*
X187585347Y-151082883D01*
X187812699Y-151160933D01*
X187812701Y-151160933D01*
X187812703Y-151160934D01*
X188049808Y-151200500D01*
X188049809Y-151200500D01*
X188290191Y-151200500D01*
X188290192Y-151200500D01*
X188527297Y-151160934D01*
X188754656Y-151082882D01*
X188966067Y-150968472D01*
X189155764Y-150820825D01*
X189318571Y-150643969D01*
X189450049Y-150442728D01*
X189546610Y-150222591D01*
X189605620Y-149989563D01*
X189620166Y-149814019D01*
X189625471Y-149750005D01*
X189625471Y-149749994D01*
X189605620Y-149510440D01*
X189605620Y-149510437D01*
X189546610Y-149277409D01*
X189450049Y-149057272D01*
X189405165Y-148988573D01*
X189369293Y-148933666D01*
X189318571Y-148856031D01*
X189155764Y-148679175D01*
X189155759Y-148679171D01*
X189155757Y-148679169D01*
X188966075Y-148531533D01*
X188966069Y-148531529D01*
X188754657Y-148417118D01*
X188754652Y-148417116D01*
X188527300Y-148339066D01*
X188306168Y-148302166D01*
X188290192Y-148299500D01*
X188049808Y-148299500D01*
X188033832Y-148302166D01*
X187812699Y-148339066D01*
X187585347Y-148417116D01*
X187585337Y-148417121D01*
X187502796Y-148461790D01*
X187434468Y-148476385D01*
X187369096Y-148451722D01*
X187356098Y-148440416D01*
X159415682Y-120500000D01*
X186144564Y-120500000D01*
X186164289Y-120826099D01*
X186223178Y-121147452D01*
X186320366Y-121459342D01*
X186320370Y-121459354D01*
X186320373Y-121459361D01*
X186454455Y-121757279D01*
X186587166Y-121976809D01*
X186623473Y-122036868D01*
X186824954Y-122294039D01*
X187055960Y-122525045D01*
X187313131Y-122726526D01*
X187313134Y-122726528D01*
X187313137Y-122726530D01*
X187592721Y-122895545D01*
X187890639Y-123029627D01*
X187890652Y-123029631D01*
X187890657Y-123029633D01*
X188121802Y-123101660D01*
X188202547Y-123126821D01*
X188523896Y-123185710D01*
X188850000Y-123205436D01*
X189176104Y-123185710D01*
X189497453Y-123126821D01*
X189809361Y-123029627D01*
X190107279Y-122895545D01*
X190386863Y-122726530D01*
X190644036Y-122525048D01*
X190875048Y-122294036D01*
X191076530Y-122036863D01*
X191245545Y-121757279D01*
X191379627Y-121459361D01*
X191476821Y-121147453D01*
X191535710Y-120826104D01*
X191555436Y-120500000D01*
X191535710Y-120173896D01*
X191476821Y-119852547D01*
X191430043Y-119702430D01*
X191379633Y-119540657D01*
X191379631Y-119540652D01*
X191379627Y-119540639D01*
X191245545Y-119242721D01*
X191076530Y-118963137D01*
X191076528Y-118963134D01*
X191076526Y-118963131D01*
X190875045Y-118705960D01*
X190644039Y-118474954D01*
X190386868Y-118273473D01*
X190379306Y-118268901D01*
X190107279Y-118104455D01*
X189809361Y-117970373D01*
X189809354Y-117970370D01*
X189809342Y-117970366D01*
X189497452Y-117873178D01*
X189176099Y-117814289D01*
X188850000Y-117794564D01*
X188523900Y-117814289D01*
X188202547Y-117873178D01*
X187890657Y-117970366D01*
X187890641Y-117970372D01*
X187890639Y-117970373D01*
X187700933Y-118055752D01*
X187592725Y-118104453D01*
X187592723Y-118104454D01*
X187313131Y-118273473D01*
X187055960Y-118474954D01*
X186824954Y-118705960D01*
X186623473Y-118963131D01*
X186500370Y-119166768D01*
X186454455Y-119242721D01*
X186376487Y-119415960D01*
X186320372Y-119540642D01*
X186320366Y-119540657D01*
X186223178Y-119852547D01*
X186164289Y-120173900D01*
X186144564Y-120500000D01*
X159415682Y-120500000D01*
X145915682Y-107000000D01*
X186144564Y-107000000D01*
X186164289Y-107326099D01*
X186223178Y-107647452D01*
X186320366Y-107959342D01*
X186320370Y-107959354D01*
X186320373Y-107959361D01*
X186454455Y-108257279D01*
X186587166Y-108476809D01*
X186623473Y-108536868D01*
X186824954Y-108794039D01*
X187055960Y-109025045D01*
X187313131Y-109226526D01*
X187313134Y-109226528D01*
X187313137Y-109226530D01*
X187592721Y-109395545D01*
X187890639Y-109529627D01*
X187890652Y-109529631D01*
X187890657Y-109529633D01*
X188202547Y-109626821D01*
X188523896Y-109685710D01*
X188850000Y-109705436D01*
X189176104Y-109685710D01*
X189497453Y-109626821D01*
X189809361Y-109529627D01*
X190107279Y-109395545D01*
X190386863Y-109226530D01*
X190644036Y-109025048D01*
X190875048Y-108794036D01*
X191076530Y-108536863D01*
X191245545Y-108257279D01*
X191379627Y-107959361D01*
X191476821Y-107647453D01*
X191535710Y-107326104D01*
X191555436Y-107000000D01*
X191535710Y-106673896D01*
X191476821Y-106352547D01*
X191430043Y-106202430D01*
X191379633Y-106040657D01*
X191379631Y-106040652D01*
X191379627Y-106040639D01*
X191245545Y-105742721D01*
X191076530Y-105463137D01*
X191076528Y-105463134D01*
X191076526Y-105463131D01*
X190875045Y-105205960D01*
X190644039Y-104974954D01*
X190386868Y-104773473D01*
X190363916Y-104759598D01*
X190107279Y-104604455D01*
X189809361Y-104470373D01*
X189809354Y-104470370D01*
X189809342Y-104470366D01*
X189497452Y-104373178D01*
X189176099Y-104314289D01*
X188850000Y-104294564D01*
X188523900Y-104314289D01*
X188202547Y-104373178D01*
X187890657Y-104470366D01*
X187890641Y-104470372D01*
X187890639Y-104470373D01*
X187700933Y-104555752D01*
X187592725Y-104604453D01*
X187592723Y-104604454D01*
X187313131Y-104773473D01*
X187055960Y-104974954D01*
X186824954Y-105205960D01*
X186623473Y-105463131D01*
X186454454Y-105742723D01*
X186454453Y-105742725D01*
X186445553Y-105762500D01*
X186333741Y-106010938D01*
X186320372Y-106040642D01*
X186320366Y-106040657D01*
X186223178Y-106352547D01*
X186164289Y-106673900D01*
X186144564Y-107000000D01*
X145915682Y-107000000D01*
X136345213Y-97429531D01*
X136338761Y-97424580D01*
X136340351Y-97422506D01*
X136301080Y-97381322D01*
X136287856Y-97312715D01*
X136313823Y-97247850D01*
X136370736Y-97207321D01*
X136411295Y-97200500D01*
X136724167Y-97200500D01*
X136791206Y-97220185D01*
X136811848Y-97236819D01*
X143347040Y-103772011D01*
X143402989Y-103827960D01*
X143402991Y-103827961D01*
X143402995Y-103827964D01*
X143459993Y-103860871D01*
X143471511Y-103867521D01*
X143547938Y-103888000D01*
X148291499Y-103888000D01*
X148358538Y-103907685D01*
X148385211Y-103930796D01*
X148418872Y-103969643D01*
X148539947Y-104047453D01*
X148539950Y-104047454D01*
X148539949Y-104047454D01*
X148678036Y-104087999D01*
X148678038Y-104088000D01*
X148678039Y-104088000D01*
X148821962Y-104088000D01*
X148821962Y-104087999D01*
X148960053Y-104047453D01*
X149081128Y-103969643D01*
X149175377Y-103860873D01*
X149235165Y-103729957D01*
X149255647Y-103587500D01*
X149235165Y-103445043D01*
X149175377Y-103314127D01*
X149081128Y-103205357D01*
X148960053Y-103127547D01*
X148960051Y-103127546D01*
X148960049Y-103127545D01*
X148960050Y-103127545D01*
X148821963Y-103087000D01*
X148821961Y-103087000D01*
X148678039Y-103087000D01*
X148678036Y-103087000D01*
X148539949Y-103127545D01*
X148418873Y-103205356D01*
X148385212Y-103244203D01*
X148326433Y-103281977D01*
X148291499Y-103287000D01*
X143763333Y-103287000D01*
X143696294Y-103267315D01*
X143675652Y-103250681D01*
X139974971Y-99550000D01*
X141044353Y-99550000D01*
X141064834Y-99692456D01*
X141113949Y-99800000D01*
X141124623Y-99823373D01*
X141218872Y-99932143D01*
X141339947Y-100009953D01*
X141339950Y-100009954D01*
X141339949Y-100009954D01*
X141478036Y-100050499D01*
X141478038Y-100050500D01*
X141478039Y-100050500D01*
X141621962Y-100050500D01*
X141621962Y-100050499D01*
X141760053Y-100009953D01*
X141881128Y-99932143D01*
X141914788Y-99893296D01*
X141973567Y-99855523D01*
X142008501Y-99850500D01*
X153061667Y-99850500D01*
X153128706Y-99870185D01*
X153149348Y-99886819D01*
X158910604Y-105648075D01*
X158944089Y-105709398D01*
X158945661Y-105753402D01*
X158944353Y-105762500D01*
X158947297Y-105782981D01*
X158964834Y-105904956D01*
X159013235Y-106010938D01*
X159024623Y-106035873D01*
X159118872Y-106144643D01*
X159239947Y-106222453D01*
X159239950Y-106222454D01*
X159239949Y-106222454D01*
X159347107Y-106253917D01*
X159368203Y-106260112D01*
X159378036Y-106262999D01*
X159378038Y-106263000D01*
X159378039Y-106263000D01*
X159521962Y-106263000D01*
X159521962Y-106262999D01*
X159660053Y-106222453D01*
X159781128Y-106144643D01*
X159875377Y-106035873D01*
X159935165Y-105904957D01*
X159955647Y-105762500D01*
X159935165Y-105620043D01*
X159875377Y-105489127D01*
X159781128Y-105380357D01*
X159660053Y-105302547D01*
X159660051Y-105302546D01*
X159660049Y-105302545D01*
X159660050Y-105302545D01*
X159521963Y-105262000D01*
X159521961Y-105262000D01*
X159425833Y-105262000D01*
X159358794Y-105242315D01*
X159338152Y-105225681D01*
X156928272Y-102815801D01*
X183317039Y-102815801D01*
X183399955Y-102859318D01*
X183565006Y-102900000D01*
X183734994Y-102900000D01*
X183900044Y-102859318D01*
X183982959Y-102815801D01*
X183650001Y-102482843D01*
X183650000Y-102482843D01*
X183317039Y-102815801D01*
X156928272Y-102815801D01*
X153422012Y-99309541D01*
X153422007Y-99309537D01*
X153404624Y-99299502D01*
X153404620Y-99299498D01*
X153404620Y-99299499D01*
X153379055Y-99284739D01*
X153353490Y-99269979D01*
X153328013Y-99263152D01*
X153277062Y-99249500D01*
X153277060Y-99249500D01*
X142008501Y-99249500D01*
X141941462Y-99229815D01*
X141914788Y-99206703D01*
X141881128Y-99167857D01*
X141760053Y-99090047D01*
X141760051Y-99090046D01*
X141760049Y-99090045D01*
X141760050Y-99090045D01*
X141621963Y-99049500D01*
X141621961Y-99049500D01*
X141478039Y-99049500D01*
X141478036Y-99049500D01*
X141339949Y-99090045D01*
X141218873Y-99167856D01*
X141124623Y-99276626D01*
X141124622Y-99276628D01*
X141064834Y-99407543D01*
X141044353Y-99550000D01*
X139974971Y-99550000D01*
X138674971Y-98250000D01*
X143444353Y-98250000D01*
X143464834Y-98392456D01*
X143495625Y-98459877D01*
X143524623Y-98523373D01*
X143618872Y-98632143D01*
X143739947Y-98709953D01*
X143739950Y-98709954D01*
X143739949Y-98709954D01*
X143878036Y-98750499D01*
X143878038Y-98750500D01*
X143878039Y-98750500D01*
X144021962Y-98750500D01*
X144021962Y-98750499D01*
X144160053Y-98709953D01*
X144281128Y-98632143D01*
X144314788Y-98593296D01*
X144373567Y-98555523D01*
X144408501Y-98550500D01*
X148764560Y-98550500D01*
X148764562Y-98550500D01*
X148840989Y-98530021D01*
X148909511Y-98490460D01*
X148965460Y-98434511D01*
X151437469Y-95962500D01*
X155494353Y-95962500D01*
X155514834Y-96104956D01*
X155565723Y-96216386D01*
X155574623Y-96235873D01*
X155668872Y-96344643D01*
X155789947Y-96422453D01*
X155888567Y-96451410D01*
X155941312Y-96482705D01*
X159769119Y-100310512D01*
X159802604Y-100371835D01*
X159804176Y-100380545D01*
X159808584Y-100411203D01*
X159808585Y-100411208D01*
X159857174Y-100517601D01*
X159868373Y-100542123D01*
X159962622Y-100650893D01*
X160083697Y-100728703D01*
X160083700Y-100728704D01*
X160083699Y-100728704D01*
X160221786Y-100769249D01*
X160221788Y-100769250D01*
X160221789Y-100769250D01*
X160365712Y-100769250D01*
X160365712Y-100769249D01*
X160503803Y-100728703D01*
X160624878Y-100650893D01*
X160719127Y-100542123D01*
X160778915Y-100411207D01*
X160799397Y-100268750D01*
X160778915Y-100126293D01*
X160719127Y-99995377D01*
X160624878Y-99886607D01*
X160576510Y-99855523D01*
X160503801Y-99808795D01*
X160387486Y-99774643D01*
X160334740Y-99743347D01*
X156526728Y-95935335D01*
X156493243Y-95874012D01*
X156491671Y-95865298D01*
X156485617Y-95823191D01*
X156485165Y-95820043D01*
X156476239Y-95800499D01*
X156425377Y-95689128D01*
X156425376Y-95689126D01*
X156392402Y-95651072D01*
X156331128Y-95580357D01*
X156210053Y-95502547D01*
X156210051Y-95502546D01*
X156210049Y-95502545D01*
X156210050Y-95502545D01*
X156071963Y-95462000D01*
X156071961Y-95462000D01*
X155928039Y-95462000D01*
X155928036Y-95462000D01*
X155789949Y-95502545D01*
X155668873Y-95580356D01*
X155574623Y-95689126D01*
X155574622Y-95689128D01*
X155514834Y-95820043D01*
X155494353Y-95962500D01*
X151437469Y-95962500D01*
X151563151Y-95836818D01*
X151624474Y-95803334D01*
X151650832Y-95800500D01*
X151746962Y-95800500D01*
X151746962Y-95800499D01*
X151885053Y-95759953D01*
X152006128Y-95682143D01*
X152100377Y-95573373D01*
X152160165Y-95442457D01*
X152180647Y-95300000D01*
X152160165Y-95157543D01*
X152100377Y-95026627D01*
X152006128Y-94917857D01*
X151885053Y-94840047D01*
X151885051Y-94840046D01*
X151885049Y-94840045D01*
X151885050Y-94840045D01*
X151746963Y-94799500D01*
X151746961Y-94799500D01*
X151603039Y-94799500D01*
X151603036Y-94799500D01*
X151464949Y-94840045D01*
X151343873Y-94917856D01*
X151249623Y-95026626D01*
X151249622Y-95026628D01*
X151189834Y-95157543D01*
X151169353Y-95300000D01*
X151169353Y-95300001D01*
X151170661Y-95309103D01*
X151160713Y-95378261D01*
X151135603Y-95414424D01*
X148636848Y-97913181D01*
X148575525Y-97946666D01*
X148549167Y-97949500D01*
X144408501Y-97949500D01*
X144341462Y-97929815D01*
X144314788Y-97906703D01*
X144281128Y-97867857D01*
X144160053Y-97790047D01*
X144160051Y-97790046D01*
X144160049Y-97790045D01*
X144160050Y-97790045D01*
X144021963Y-97749500D01*
X144021961Y-97749500D01*
X143878039Y-97749500D01*
X143878036Y-97749500D01*
X143739949Y-97790045D01*
X143618873Y-97867856D01*
X143524623Y-97976626D01*
X143524622Y-97976628D01*
X143464834Y-98107543D01*
X143444353Y-98250000D01*
X138674971Y-98250000D01*
X137084512Y-96659541D01*
X137084504Y-96659535D01*
X137015995Y-96619982D01*
X137015990Y-96619979D01*
X136990513Y-96613152D01*
X136939562Y-96599500D01*
X129360438Y-96599500D01*
X129322224Y-96609739D01*
X129284009Y-96619979D01*
X129284004Y-96619982D01*
X129215495Y-96659535D01*
X129215487Y-96659541D01*
X128759541Y-97115487D01*
X128759535Y-97115495D01*
X128719982Y-97184004D01*
X128719979Y-97184009D01*
X128699500Y-97260439D01*
X128699500Y-99024166D01*
X128679815Y-99091205D01*
X128663181Y-99111847D01*
X128511847Y-99263181D01*
X128450524Y-99296666D01*
X128424166Y-99299500D01*
X128328036Y-99299500D01*
X128189949Y-99340045D01*
X128068873Y-99417856D01*
X127974623Y-99526626D01*
X127974622Y-99526628D01*
X127914834Y-99657543D01*
X127894353Y-99800000D01*
X115635410Y-99800000D01*
X115633351Y-99798504D01*
X115312374Y-99542533D01*
X115303995Y-99535213D01*
X115007246Y-99251492D01*
X114999557Y-99243450D01*
X114729431Y-98934265D01*
X114722508Y-98925583D01*
X114694758Y-98887389D01*
X114481199Y-98593449D01*
X114475071Y-98584167D01*
X114419082Y-98490458D01*
X114264494Y-98231721D01*
X114259222Y-98221923D01*
X114253721Y-98210500D01*
X114081088Y-97852023D01*
X114076725Y-97841815D01*
X113932462Y-97457428D01*
X113929031Y-97446867D01*
X113819804Y-97051094D01*
X113817333Y-97040268D01*
X113744026Y-96636308D01*
X113742533Y-96625287D01*
X113726749Y-96449919D01*
X113705731Y-96216386D01*
X113705232Y-96205271D01*
X113705232Y-95999996D01*
X115394415Y-95999996D01*
X115394415Y-96000003D01*
X115414738Y-96348927D01*
X115414739Y-96348938D01*
X115475428Y-96693127D01*
X115475430Y-96693134D01*
X115575674Y-97027972D01*
X115714107Y-97348895D01*
X115714113Y-97348908D01*
X115888870Y-97651597D01*
X116097584Y-97931949D01*
X116097589Y-97931955D01*
X116199421Y-98039890D01*
X116337442Y-98186183D01*
X116508329Y-98329574D01*
X116605186Y-98410847D01*
X116605194Y-98410853D01*
X116897203Y-98602911D01*
X116897207Y-98602913D01*
X117209549Y-98759777D01*
X117537989Y-98879319D01*
X117878086Y-98959923D01*
X118225241Y-99000500D01*
X118225248Y-99000500D01*
X118574752Y-99000500D01*
X118574759Y-99000500D01*
X118921914Y-98959923D01*
X119262011Y-98879319D01*
X119590451Y-98759777D01*
X119902793Y-98602913D01*
X120194811Y-98410849D01*
X120462558Y-98186183D01*
X120702412Y-97931953D01*
X120911130Y-97651596D01*
X121085889Y-97348904D01*
X121224326Y-97027971D01*
X121324569Y-96693136D01*
X121334589Y-96636313D01*
X121385260Y-96348938D01*
X121385259Y-96348938D01*
X121385262Y-96348927D01*
X121405585Y-96000000D01*
X121403649Y-95966768D01*
X121397739Y-95865298D01*
X121385262Y-95651073D01*
X121382867Y-95637488D01*
X121324571Y-95306872D01*
X121324569Y-95306865D01*
X121292576Y-95200000D01*
X121224326Y-94972029D01*
X121085889Y-94651096D01*
X120965950Y-94443355D01*
X120911129Y-94348402D01*
X120702415Y-94068050D01*
X120702410Y-94068044D01*
X120638213Y-94000000D01*
X154194353Y-94000000D01*
X154214834Y-94142456D01*
X154256002Y-94232600D01*
X154274623Y-94273373D01*
X154368872Y-94382143D01*
X154489947Y-94459953D01*
X154489950Y-94459954D01*
X154489949Y-94459954D01*
X154597107Y-94491417D01*
X154626336Y-94500000D01*
X154628036Y-94500499D01*
X154628038Y-94500500D01*
X154628039Y-94500500D01*
X154771962Y-94500500D01*
X154771962Y-94500499D01*
X154910053Y-94459953D01*
X155031128Y-94382143D01*
X155064788Y-94343296D01*
X155123567Y-94305523D01*
X155158501Y-94300500D01*
X165034167Y-94300500D01*
X165101206Y-94320185D01*
X165121848Y-94336819D01*
X172390604Y-101605575D01*
X172424089Y-101666898D01*
X172425661Y-101710902D01*
X172424353Y-101719999D01*
X172444834Y-101862456D01*
X172469816Y-101917157D01*
X172504623Y-101993373D01*
X172598872Y-102102143D01*
X172719947Y-102179953D01*
X172719950Y-102179954D01*
X172719949Y-102179954D01*
X172858036Y-102220499D01*
X172858038Y-102220500D01*
X172858039Y-102220500D01*
X173001962Y-102220500D01*
X173001962Y-102220499D01*
X173071781Y-102199999D01*
X182944859Y-102199999D01*
X182944859Y-102200000D01*
X182965348Y-102368748D01*
X182965349Y-102368751D01*
X183025629Y-102527694D01*
X183031277Y-102535878D01*
X183367157Y-102200000D01*
X183367157Y-102199999D01*
X183347267Y-102180109D01*
X183550000Y-102180109D01*
X183550000Y-102219891D01*
X183565224Y-102256645D01*
X183593355Y-102284776D01*
X183630109Y-102300000D01*
X183669891Y-102300000D01*
X183706645Y-102284776D01*
X183734776Y-102256645D01*
X183750000Y-102219891D01*
X183750000Y-102199999D01*
X183932843Y-102199999D01*
X183932843Y-102200001D01*
X184268721Y-102535879D01*
X184274370Y-102527694D01*
X184334650Y-102368751D01*
X184334651Y-102368748D01*
X184355141Y-102200000D01*
X184355141Y-102199999D01*
X184334651Y-102031251D01*
X184334650Y-102031245D01*
X184274371Y-101872305D01*
X184268722Y-101864120D01*
X184268721Y-101864120D01*
X183932843Y-102199999D01*
X183750000Y-102199999D01*
X183750000Y-102180109D01*
X183734776Y-102143355D01*
X183706645Y-102115224D01*
X183669891Y-102100000D01*
X183630109Y-102100000D01*
X183593355Y-102115224D01*
X183565224Y-102143355D01*
X183550000Y-102180109D01*
X183347267Y-102180109D01*
X183031277Y-101864119D01*
X183025629Y-101872303D01*
X183025628Y-101872306D01*
X182965349Y-102031245D01*
X182965348Y-102031251D01*
X182944859Y-102199999D01*
X173071781Y-102199999D01*
X173140053Y-102179953D01*
X173261128Y-102102143D01*
X173355377Y-101993373D01*
X173415165Y-101862457D01*
X173434928Y-101725000D01*
X183457843Y-101725000D01*
X183650000Y-101917157D01*
X183842157Y-101725000D01*
X183650000Y-101532843D01*
X183457843Y-101725000D01*
X173434928Y-101725000D01*
X173435647Y-101720000D01*
X173415165Y-101577543D01*
X173355377Y-101446627D01*
X173261128Y-101337857D01*
X173140053Y-101260047D01*
X173140051Y-101260046D01*
X173140049Y-101260045D01*
X173140050Y-101260045D01*
X173105836Y-101249999D01*
X182944859Y-101249999D01*
X182944859Y-101250000D01*
X182965348Y-101418748D01*
X182965349Y-101418751D01*
X183025629Y-101577694D01*
X183031277Y-101585878D01*
X183367157Y-101250000D01*
X183367157Y-101249999D01*
X183347267Y-101230109D01*
X183550000Y-101230109D01*
X183550000Y-101269891D01*
X183565224Y-101306645D01*
X183593355Y-101334776D01*
X183630109Y-101350000D01*
X183669891Y-101350000D01*
X183706645Y-101334776D01*
X183734776Y-101306645D01*
X183750000Y-101269891D01*
X183750000Y-101249999D01*
X183932843Y-101249999D01*
X183932843Y-101250001D01*
X184268721Y-101585879D01*
X184274370Y-101577694D01*
X184334650Y-101418751D01*
X184334651Y-101418748D01*
X184355141Y-101250000D01*
X184355141Y-101249999D01*
X184334651Y-101081251D01*
X184334650Y-101081245D01*
X184274371Y-100922305D01*
X184268722Y-100914120D01*
X184268721Y-100914120D01*
X183932843Y-101249999D01*
X183750000Y-101249999D01*
X183750000Y-101230109D01*
X183734776Y-101193355D01*
X183706645Y-101165224D01*
X183669891Y-101150000D01*
X183630109Y-101150000D01*
X183593355Y-101165224D01*
X183565224Y-101193355D01*
X183550000Y-101230109D01*
X183347267Y-101230109D01*
X183031277Y-100914119D01*
X183025629Y-100922303D01*
X183025628Y-100922306D01*
X182965349Y-101081245D01*
X182965348Y-101081251D01*
X182944859Y-101249999D01*
X173105836Y-101249999D01*
X173001963Y-101219500D01*
X173001961Y-101219500D01*
X172905833Y-101219500D01*
X172838794Y-101199815D01*
X172818152Y-101183181D01*
X172409971Y-100775000D01*
X183457843Y-100775000D01*
X183650000Y-100967157D01*
X183842157Y-100775000D01*
X183650000Y-100582843D01*
X183457843Y-100775000D01*
X172409971Y-100775000D01*
X171934970Y-100299999D01*
X182944859Y-100299999D01*
X182944859Y-100300000D01*
X182965348Y-100468748D01*
X182965349Y-100468751D01*
X183025629Y-100627694D01*
X183031277Y-100635878D01*
X183367157Y-100300000D01*
X183367157Y-100299999D01*
X183347267Y-100280109D01*
X183550000Y-100280109D01*
X183550000Y-100319891D01*
X183565224Y-100356645D01*
X183593355Y-100384776D01*
X183630109Y-100400000D01*
X183669891Y-100400000D01*
X183706645Y-100384776D01*
X183734776Y-100356645D01*
X183750000Y-100319891D01*
X183750000Y-100299999D01*
X183932843Y-100299999D01*
X183932843Y-100300001D01*
X184268721Y-100635879D01*
X184274370Y-100627694D01*
X184334650Y-100468751D01*
X184334651Y-100468748D01*
X184355141Y-100300000D01*
X184355141Y-100299999D01*
X184334651Y-100131251D01*
X184334650Y-100131245D01*
X184274371Y-99972305D01*
X184268722Y-99964120D01*
X183932843Y-100299999D01*
X183750000Y-100299999D01*
X183750000Y-100280109D01*
X183734776Y-100243355D01*
X183706645Y-100215224D01*
X183669891Y-100200000D01*
X183630109Y-100200000D01*
X183593355Y-100215224D01*
X183565224Y-100243355D01*
X183550000Y-100280109D01*
X183347267Y-100280109D01*
X183031277Y-99964119D01*
X183025629Y-99972303D01*
X183025628Y-99972306D01*
X182965349Y-100131245D01*
X182965348Y-100131251D01*
X182944859Y-100299999D01*
X171934970Y-100299999D01*
X171319167Y-99684196D01*
X183317039Y-99684196D01*
X183650000Y-100017157D01*
X183650001Y-100017157D01*
X183982959Y-99684197D01*
X183982959Y-99684196D01*
X183900046Y-99640682D01*
X183734994Y-99600000D01*
X183565006Y-99600000D01*
X183399951Y-99640682D01*
X183317039Y-99684196D01*
X171319167Y-99684196D01*
X166750772Y-95115801D01*
X183342039Y-95115801D01*
X183424955Y-95159318D01*
X183590006Y-95200000D01*
X183759994Y-95200000D01*
X183925044Y-95159318D01*
X184007959Y-95115801D01*
X183675001Y-94782843D01*
X183675000Y-94782843D01*
X183342039Y-95115801D01*
X166750772Y-95115801D01*
X166134970Y-94499999D01*
X182969859Y-94499999D01*
X182969859Y-94500000D01*
X182990348Y-94668748D01*
X182990349Y-94668751D01*
X183050629Y-94827694D01*
X183056277Y-94835878D01*
X183392157Y-94500000D01*
X183392157Y-94499999D01*
X183372267Y-94480109D01*
X183575000Y-94480109D01*
X183575000Y-94519891D01*
X183590224Y-94556645D01*
X183618355Y-94584776D01*
X183655109Y-94600000D01*
X183694891Y-94600000D01*
X183731645Y-94584776D01*
X183759776Y-94556645D01*
X183775000Y-94519891D01*
X183775000Y-94499999D01*
X183957843Y-94499999D01*
X183957843Y-94500001D01*
X184293721Y-94835879D01*
X184299370Y-94827694D01*
X184359650Y-94668751D01*
X184359651Y-94668748D01*
X184380141Y-94500000D01*
X184380141Y-94499999D01*
X184359651Y-94331251D01*
X184359650Y-94331245D01*
X184299371Y-94172305D01*
X184293722Y-94164120D01*
X184293721Y-94164120D01*
X183957843Y-94499999D01*
X183775000Y-94499999D01*
X183775000Y-94480109D01*
X183759776Y-94443355D01*
X183731645Y-94415224D01*
X183694891Y-94400000D01*
X183655109Y-94400000D01*
X183618355Y-94415224D01*
X183590224Y-94443355D01*
X183575000Y-94480109D01*
X183372267Y-94480109D01*
X183056277Y-94164119D01*
X183050629Y-94172303D01*
X183050628Y-94172306D01*
X182990349Y-94331245D01*
X182990348Y-94331251D01*
X182969859Y-94499999D01*
X166134970Y-94499999D01*
X165659971Y-94025000D01*
X183482843Y-94025000D01*
X183675000Y-94217157D01*
X183867157Y-94025000D01*
X183675000Y-93832843D01*
X183482843Y-94025000D01*
X165659971Y-94025000D01*
X165394512Y-93759541D01*
X165394504Y-93759535D01*
X165325995Y-93719982D01*
X165325990Y-93719979D01*
X165300513Y-93713152D01*
X165249562Y-93699500D01*
X165249560Y-93699500D01*
X155158501Y-93699500D01*
X155091462Y-93679815D01*
X155064788Y-93656703D01*
X155058980Y-93650000D01*
X155031128Y-93617857D01*
X154925539Y-93549999D01*
X182969859Y-93549999D01*
X182969859Y-93550000D01*
X182990348Y-93718748D01*
X182990349Y-93718751D01*
X183050629Y-93877694D01*
X183056277Y-93885878D01*
X183392157Y-93550000D01*
X183392157Y-93549999D01*
X183372267Y-93530109D01*
X183575000Y-93530109D01*
X183575000Y-93569891D01*
X183590224Y-93606645D01*
X183618355Y-93634776D01*
X183655109Y-93650000D01*
X183694891Y-93650000D01*
X183731645Y-93634776D01*
X183759776Y-93606645D01*
X183775000Y-93569891D01*
X183775000Y-93549999D01*
X183957843Y-93549999D01*
X183957843Y-93550001D01*
X184293721Y-93885879D01*
X184299370Y-93877694D01*
X184359650Y-93718751D01*
X184359651Y-93718748D01*
X184380141Y-93550000D01*
X184380141Y-93549999D01*
X184359651Y-93381251D01*
X184359650Y-93381245D01*
X184299371Y-93222305D01*
X184293722Y-93214120D01*
X183957843Y-93549999D01*
X183775000Y-93549999D01*
X183775000Y-93530109D01*
X183759776Y-93493355D01*
X183731645Y-93465224D01*
X183694891Y-93450000D01*
X183655109Y-93450000D01*
X183618355Y-93465224D01*
X183590224Y-93493355D01*
X183575000Y-93530109D01*
X183372267Y-93530109D01*
X183056277Y-93214119D01*
X183050629Y-93222303D01*
X183050628Y-93222306D01*
X182990349Y-93381245D01*
X182990348Y-93381251D01*
X182969859Y-93549999D01*
X154925539Y-93549999D01*
X154910053Y-93540047D01*
X154910051Y-93540046D01*
X154910049Y-93540045D01*
X154910050Y-93540045D01*
X154771963Y-93499500D01*
X154771961Y-93499500D01*
X154628039Y-93499500D01*
X154628036Y-93499500D01*
X154489949Y-93540045D01*
X154368873Y-93617856D01*
X154274623Y-93726626D01*
X154274622Y-93726628D01*
X154214834Y-93857543D01*
X154194353Y-94000000D01*
X120638213Y-94000000D01*
X120530544Y-93885878D01*
X120462558Y-93813817D01*
X120302860Y-93679815D01*
X120194813Y-93589152D01*
X120194805Y-93589146D01*
X120175821Y-93576660D01*
X137436892Y-93576660D01*
X137436892Y-93576661D01*
X137450692Y-93585333D01*
X137450691Y-93585333D01*
X137620861Y-93644878D01*
X137799997Y-93665062D01*
X137800003Y-93665062D01*
X137979138Y-93644878D01*
X137979141Y-93644877D01*
X138149305Y-93585334D01*
X138149306Y-93585334D01*
X138163106Y-93576661D01*
X138163106Y-93576660D01*
X138836892Y-93576660D01*
X138836892Y-93576661D01*
X138850692Y-93585333D01*
X138850691Y-93585333D01*
X139020861Y-93644878D01*
X139199997Y-93665062D01*
X139200003Y-93665062D01*
X139379138Y-93644878D01*
X139379141Y-93644877D01*
X139549305Y-93585334D01*
X139549306Y-93585334D01*
X139563106Y-93576661D01*
X139563106Y-93576660D01*
X139200001Y-93213553D01*
X139200000Y-93213553D01*
X138836892Y-93576660D01*
X138163106Y-93576660D01*
X137800001Y-93213553D01*
X137800000Y-93213553D01*
X137436892Y-93576660D01*
X120175821Y-93576660D01*
X119902796Y-93397088D01*
X119590458Y-93240226D01*
X119590452Y-93240223D01*
X119262012Y-93120681D01*
X119262009Y-93120680D01*
X118921915Y-93040077D01*
X118857688Y-93032570D01*
X118574759Y-92999500D01*
X118225241Y-92999500D01*
X117942312Y-93032570D01*
X117878085Y-93040077D01*
X117878083Y-93040077D01*
X117537990Y-93120680D01*
X117537987Y-93120681D01*
X117209547Y-93240223D01*
X117209541Y-93240226D01*
X116897203Y-93397088D01*
X116605194Y-93589146D01*
X116605186Y-93589152D01*
X116337442Y-93813817D01*
X116337440Y-93813819D01*
X116097589Y-94068044D01*
X116097584Y-94068050D01*
X115888870Y-94348402D01*
X115714113Y-94651091D01*
X115714107Y-94651104D01*
X115575674Y-94972027D01*
X115475430Y-95306865D01*
X115475428Y-95306872D01*
X115414739Y-95651061D01*
X115414738Y-95651072D01*
X115394415Y-95999996D01*
X113705232Y-95999996D01*
X113705232Y-95794728D01*
X113705731Y-95783613D01*
X113707860Y-95759954D01*
X113742533Y-95374705D01*
X113744027Y-95363686D01*
X113817334Y-94959726D01*
X113819803Y-94948909D01*
X113929033Y-94553125D01*
X113932460Y-94542577D01*
X114076728Y-94158176D01*
X114081084Y-94147984D01*
X114259227Y-93778066D01*
X114264489Y-93768287D01*
X114475079Y-93415818D01*
X114481192Y-93406560D01*
X114722521Y-93074399D01*
X114729422Y-93065744D01*
X114894620Y-92876660D01*
X136736892Y-92876660D01*
X136736892Y-92876661D01*
X136750692Y-92885333D01*
X136750691Y-92885333D01*
X136920862Y-92944878D01*
X136921644Y-92945057D01*
X136922097Y-92945310D01*
X136927431Y-92947177D01*
X136927104Y-92948111D01*
X136982623Y-92979166D01*
X137011952Y-93032874D01*
X137012822Y-93032570D01*
X137014670Y-93037852D01*
X137014940Y-93038346D01*
X137015121Y-93039142D01*
X137074663Y-93209300D01*
X137074663Y-93209301D01*
X137083338Y-93223107D01*
X137446446Y-92860000D01*
X137426555Y-92840109D01*
X137700000Y-92840109D01*
X137700000Y-92879891D01*
X137715224Y-92916645D01*
X137743355Y-92944776D01*
X137780109Y-92960000D01*
X137819891Y-92960000D01*
X137856645Y-92944776D01*
X137884776Y-92916645D01*
X137900000Y-92879891D01*
X137900000Y-92859999D01*
X138153553Y-92859999D01*
X138153553Y-92860000D01*
X138500000Y-93206446D01*
X138500001Y-93206446D01*
X138846446Y-92860000D01*
X138826555Y-92840109D01*
X139100000Y-92840109D01*
X139100000Y-92879891D01*
X139115224Y-92916645D01*
X139143355Y-92944776D01*
X139180109Y-92960000D01*
X139219891Y-92960000D01*
X139256645Y-92944776D01*
X139284776Y-92916645D01*
X139300000Y-92879891D01*
X139300000Y-92859999D01*
X139553553Y-92859999D01*
X139553553Y-92860000D01*
X139916660Y-93223106D01*
X139916661Y-93223106D01*
X139925334Y-93209306D01*
X139925334Y-93209305D01*
X139972329Y-93075000D01*
X183482843Y-93075000D01*
X183675000Y-93267157D01*
X183867157Y-93075000D01*
X183675000Y-92882843D01*
X183482843Y-93075000D01*
X139972329Y-93075000D01*
X139984876Y-93039144D01*
X139985056Y-93038358D01*
X139985311Y-93037901D01*
X139987177Y-93032570D01*
X139988110Y-93032896D01*
X140019164Y-92977379D01*
X140072875Y-92948049D01*
X140072570Y-92947177D01*
X140077870Y-92945322D01*
X140078358Y-92945056D01*
X140079144Y-92944876D01*
X140249305Y-92885334D01*
X140249306Y-92885334D01*
X140263106Y-92876661D01*
X140263106Y-92876660D01*
X139986446Y-92599999D01*
X182969859Y-92599999D01*
X182969859Y-92600000D01*
X182990348Y-92768748D01*
X182990349Y-92768751D01*
X183050629Y-92927694D01*
X183056277Y-92935878D01*
X183392157Y-92600000D01*
X183392157Y-92599999D01*
X183372267Y-92580109D01*
X183575000Y-92580109D01*
X183575000Y-92619891D01*
X183590224Y-92656645D01*
X183618355Y-92684776D01*
X183655109Y-92700000D01*
X183694891Y-92700000D01*
X183731645Y-92684776D01*
X183759776Y-92656645D01*
X183775000Y-92619891D01*
X183775000Y-92599999D01*
X183957843Y-92599999D01*
X183957843Y-92600001D01*
X184293721Y-92935879D01*
X184299370Y-92927694D01*
X184359650Y-92768751D01*
X184359651Y-92768748D01*
X184380141Y-92600000D01*
X184380141Y-92599999D01*
X184359651Y-92431251D01*
X184359650Y-92431245D01*
X184299371Y-92272305D01*
X184293722Y-92264120D01*
X184293721Y-92264120D01*
X183957843Y-92599999D01*
X183775000Y-92599999D01*
X183775000Y-92580109D01*
X183759776Y-92543355D01*
X183731645Y-92515224D01*
X183694891Y-92500000D01*
X183655109Y-92500000D01*
X183618355Y-92515224D01*
X183590224Y-92543355D01*
X183575000Y-92580109D01*
X183372267Y-92580109D01*
X183056277Y-92264119D01*
X183050629Y-92272303D01*
X183050628Y-92272306D01*
X182990349Y-92431245D01*
X182990348Y-92431251D01*
X182969859Y-92599999D01*
X139986446Y-92599999D01*
X139900000Y-92513553D01*
X139834240Y-92579314D01*
X139834239Y-92579314D01*
X139553553Y-92859999D01*
X139300000Y-92859999D01*
X139300000Y-92840109D01*
X139284776Y-92803355D01*
X139256645Y-92775224D01*
X139219891Y-92760000D01*
X139180109Y-92760000D01*
X139143355Y-92775224D01*
X139115224Y-92803355D01*
X139100000Y-92840109D01*
X138826555Y-92840109D01*
X138565760Y-92579314D01*
X138500000Y-92513553D01*
X138434240Y-92579314D01*
X138434239Y-92579314D01*
X138153553Y-92859999D01*
X137900000Y-92859999D01*
X137900000Y-92840109D01*
X137884776Y-92803355D01*
X137856645Y-92775224D01*
X137819891Y-92760000D01*
X137780109Y-92760000D01*
X137743355Y-92775224D01*
X137715224Y-92803355D01*
X137700000Y-92840109D01*
X137426555Y-92840109D01*
X137099999Y-92513553D01*
X137099998Y-92513553D01*
X136736892Y-92876660D01*
X114894620Y-92876660D01*
X114999572Y-92756533D01*
X115007240Y-92748512D01*
X115304000Y-92464781D01*
X115312368Y-92457470D01*
X115633359Y-92201488D01*
X115642344Y-92194961D01*
X115695312Y-92159997D01*
X136294938Y-92159997D01*
X136294938Y-92160002D01*
X136315121Y-92339138D01*
X136374665Y-92509304D01*
X136383338Y-92523107D01*
X136746446Y-92160000D01*
X136746446Y-92159999D01*
X136726556Y-92140109D01*
X137000000Y-92140109D01*
X137000000Y-92179891D01*
X137015224Y-92216645D01*
X137043355Y-92244776D01*
X137080109Y-92260000D01*
X137119891Y-92260000D01*
X137156645Y-92244776D01*
X137184776Y-92216645D01*
X137200000Y-92179891D01*
X137200000Y-92160000D01*
X137453553Y-92160000D01*
X137491578Y-92198024D01*
X137800000Y-92506446D01*
X138146446Y-92160000D01*
X138126555Y-92140109D01*
X138400000Y-92140109D01*
X138400000Y-92179891D01*
X138415224Y-92216645D01*
X138443355Y-92244776D01*
X138480109Y-92260000D01*
X138519891Y-92260000D01*
X138556645Y-92244776D01*
X138584776Y-92216645D01*
X138600000Y-92179891D01*
X138600000Y-92160000D01*
X138853553Y-92160000D01*
X138891578Y-92198024D01*
X139200000Y-92506446D01*
X139546446Y-92160000D01*
X139526555Y-92140109D01*
X139800000Y-92140109D01*
X139800000Y-92179891D01*
X139815224Y-92216645D01*
X139843355Y-92244776D01*
X139880109Y-92260000D01*
X139919891Y-92260000D01*
X139956645Y-92244776D01*
X139984776Y-92216645D01*
X140000000Y-92179891D01*
X140000000Y-92160000D01*
X140253553Y-92160000D01*
X140616660Y-92523106D01*
X140616661Y-92523106D01*
X140625334Y-92509306D01*
X140625334Y-92509305D01*
X140684877Y-92339141D01*
X140684878Y-92339138D01*
X140705062Y-92160002D01*
X140705062Y-92159997D01*
X140685254Y-91984196D01*
X183342039Y-91984196D01*
X183675000Y-92317157D01*
X183675001Y-92317157D01*
X184007959Y-91984197D01*
X184007959Y-91984196D01*
X183925046Y-91940682D01*
X183759994Y-91900000D01*
X183590006Y-91900000D01*
X183424951Y-91940682D01*
X183342039Y-91984196D01*
X140685254Y-91984196D01*
X140684878Y-91980861D01*
X140625333Y-91810692D01*
X140616661Y-91796892D01*
X140616660Y-91796892D01*
X140253553Y-92160000D01*
X140000000Y-92160000D01*
X140000000Y-92140109D01*
X139984776Y-92103355D01*
X139956645Y-92075224D01*
X139919891Y-92060000D01*
X139880109Y-92060000D01*
X139843355Y-92075224D01*
X139815224Y-92103355D01*
X139800000Y-92140109D01*
X139526555Y-92140109D01*
X139265760Y-91879314D01*
X139200000Y-91813553D01*
X139134240Y-91879314D01*
X139134239Y-91879314D01*
X138853553Y-92160000D01*
X138600000Y-92160000D01*
X138600000Y-92140109D01*
X138584776Y-92103355D01*
X138556645Y-92075224D01*
X138519891Y-92060000D01*
X138480109Y-92060000D01*
X138443355Y-92075224D01*
X138415224Y-92103355D01*
X138400000Y-92140109D01*
X138126555Y-92140109D01*
X137865760Y-91879314D01*
X137800000Y-91813553D01*
X137734240Y-91879314D01*
X137734239Y-91879314D01*
X137453553Y-92160000D01*
X137200000Y-92160000D01*
X137200000Y-92140109D01*
X137184776Y-92103355D01*
X137156645Y-92075224D01*
X137119891Y-92060000D01*
X137080109Y-92060000D01*
X137043355Y-92075224D01*
X137015224Y-92103355D01*
X137000000Y-92140109D01*
X136726556Y-92140109D01*
X136383338Y-91796891D01*
X136383337Y-91796891D01*
X136374667Y-91810691D01*
X136374662Y-91810701D01*
X136315122Y-91980858D01*
X136315121Y-91980861D01*
X136294938Y-92159997D01*
X115695312Y-92159997D01*
X115984990Y-91968782D01*
X115994516Y-91963090D01*
X116356069Y-91768530D01*
X116366091Y-91763705D01*
X116743606Y-91602347D01*
X116753987Y-91598450D01*
X117144464Y-91471577D01*
X117155188Y-91468618D01*
X117192950Y-91459999D01*
X136753553Y-91459999D01*
X136753553Y-91460001D01*
X137099998Y-91806446D01*
X137099999Y-91806446D01*
X137375869Y-91530577D01*
X137446446Y-91460000D01*
X137426555Y-91440109D01*
X137700000Y-91440109D01*
X137700000Y-91479891D01*
X137715224Y-91516645D01*
X137743355Y-91544776D01*
X137780109Y-91560000D01*
X137819891Y-91560000D01*
X137856645Y-91544776D01*
X137884776Y-91516645D01*
X137900000Y-91479891D01*
X137900000Y-91459999D01*
X138153553Y-91459999D01*
X138500000Y-91806446D01*
X138846446Y-91460000D01*
X138826555Y-91440109D01*
X139100000Y-91440109D01*
X139100000Y-91479891D01*
X139115224Y-91516645D01*
X139143355Y-91544776D01*
X139180109Y-91560000D01*
X139219891Y-91560000D01*
X139256645Y-91544776D01*
X139284776Y-91516645D01*
X139300000Y-91479891D01*
X139300000Y-91459999D01*
X139553553Y-91459999D01*
X139900000Y-91806446D01*
X140246446Y-91460000D01*
X140246446Y-91459999D01*
X139900000Y-91113553D01*
X139864056Y-91149498D01*
X139864054Y-91149500D01*
X139553553Y-91459999D01*
X139300000Y-91459999D01*
X139300000Y-91440109D01*
X139284776Y-91403355D01*
X139256645Y-91375224D01*
X139219891Y-91360000D01*
X139180109Y-91360000D01*
X139143355Y-91375224D01*
X139115224Y-91403355D01*
X139100000Y-91440109D01*
X138826555Y-91440109D01*
X138535945Y-91149499D01*
X138500000Y-91113553D01*
X138464055Y-91149499D01*
X138464054Y-91149500D01*
X138153553Y-91459999D01*
X137900000Y-91459999D01*
X137900000Y-91440109D01*
X137884776Y-91403355D01*
X137856645Y-91375224D01*
X137819891Y-91360000D01*
X137780109Y-91360000D01*
X137743355Y-91375224D01*
X137715224Y-91403355D01*
X137700000Y-91440109D01*
X137426555Y-91440109D01*
X137099999Y-91113553D01*
X137099998Y-91113553D01*
X136753553Y-91459999D01*
X117192950Y-91459999D01*
X117555457Y-91377258D01*
X117566370Y-91375278D01*
X117973248Y-91320162D01*
X117984285Y-91319169D01*
X118397217Y-91300625D01*
X118402780Y-91300500D01*
X121339158Y-91300500D01*
X121397378Y-91293430D01*
X121615435Y-91266954D01*
X121885657Y-91200350D01*
X122145880Y-91101660D01*
X122392311Y-90972323D01*
X122621355Y-90814226D01*
X122682567Y-90759997D01*
X136294938Y-90759997D01*
X136294938Y-90760002D01*
X136315121Y-90939138D01*
X136374665Y-91109304D01*
X136383338Y-91123107D01*
X136746446Y-90760000D01*
X136746446Y-90759999D01*
X136726556Y-90740109D01*
X137000000Y-90740109D01*
X137000000Y-90779891D01*
X137015224Y-90816645D01*
X137043355Y-90844776D01*
X137080109Y-90860000D01*
X137119891Y-90860000D01*
X137156645Y-90844776D01*
X137184776Y-90816645D01*
X137200000Y-90779891D01*
X137200000Y-90760000D01*
X137453553Y-90760000D01*
X137507350Y-90813796D01*
X137800000Y-91106446D01*
X138146446Y-90760000D01*
X138126555Y-90740109D01*
X138400000Y-90740109D01*
X138400000Y-90779891D01*
X138415224Y-90816645D01*
X138443355Y-90844776D01*
X138480109Y-90860000D01*
X138519891Y-90860000D01*
X138556645Y-90844776D01*
X138584776Y-90816645D01*
X138600000Y-90779891D01*
X138600000Y-90760000D01*
X138853553Y-90760000D01*
X138907350Y-90813796D01*
X139200000Y-91106446D01*
X139546446Y-90760000D01*
X139526555Y-90740109D01*
X139800000Y-90740109D01*
X139800000Y-90779891D01*
X139815224Y-90816645D01*
X139843355Y-90844776D01*
X139880109Y-90860000D01*
X139919891Y-90860000D01*
X139956645Y-90844776D01*
X139984776Y-90816645D01*
X140000000Y-90779891D01*
X140000000Y-90760000D01*
X140253553Y-90760000D01*
X140616660Y-91123106D01*
X140616661Y-91123106D01*
X140625334Y-91109306D01*
X140625334Y-91109305D01*
X140684877Y-90939141D01*
X140684878Y-90939138D01*
X140705062Y-90760002D01*
X140705062Y-90759997D01*
X140684878Y-90580861D01*
X140625333Y-90410692D01*
X140616661Y-90396892D01*
X140616660Y-90396892D01*
X140253553Y-90760000D01*
X140000000Y-90760000D01*
X140000000Y-90740109D01*
X139984776Y-90703355D01*
X139956645Y-90675224D01*
X139919891Y-90660000D01*
X139880109Y-90660000D01*
X139843355Y-90675224D01*
X139815224Y-90703355D01*
X139800000Y-90740109D01*
X139526555Y-90740109D01*
X139243988Y-90457542D01*
X139200000Y-90413553D01*
X139156012Y-90457542D01*
X139156011Y-90457543D01*
X138853553Y-90760000D01*
X138600000Y-90760000D01*
X138600000Y-90740109D01*
X138584776Y-90703355D01*
X138556645Y-90675224D01*
X138519891Y-90660000D01*
X138480109Y-90660000D01*
X138443355Y-90675224D01*
X138415224Y-90703355D01*
X138400000Y-90740109D01*
X138126555Y-90740109D01*
X137843988Y-90457542D01*
X137800000Y-90413553D01*
X137756012Y-90457542D01*
X137756011Y-90457543D01*
X137453553Y-90760000D01*
X137200000Y-90760000D01*
X137200000Y-90740109D01*
X137184776Y-90703355D01*
X137156645Y-90675224D01*
X137119891Y-90660000D01*
X137080109Y-90660000D01*
X137043355Y-90675224D01*
X137015224Y-90703355D01*
X137000000Y-90740109D01*
X136726556Y-90740109D01*
X136383338Y-90396891D01*
X136383337Y-90396891D01*
X136374667Y-90410691D01*
X136374662Y-90410701D01*
X136315122Y-90580858D01*
X136315121Y-90580861D01*
X136294938Y-90759997D01*
X122682567Y-90759997D01*
X122829673Y-90629673D01*
X123014226Y-90421355D01*
X123172323Y-90192311D01*
X123250511Y-90043337D01*
X136736891Y-90043337D01*
X136736891Y-90043338D01*
X137099998Y-90406446D01*
X137099999Y-90406446D01*
X137406945Y-90099501D01*
X137446446Y-90059998D01*
X137426557Y-90040109D01*
X137700000Y-90040109D01*
X137700000Y-90079891D01*
X137715224Y-90116645D01*
X137743355Y-90144776D01*
X137780109Y-90160000D01*
X137819891Y-90160000D01*
X137856645Y-90144776D01*
X137884776Y-90116645D01*
X137900000Y-90079891D01*
X137900000Y-90059998D01*
X138153553Y-90059998D01*
X138153553Y-90059999D01*
X138500000Y-90406446D01*
X138806945Y-90099501D01*
X138846446Y-90059998D01*
X138826557Y-90040109D01*
X139100000Y-90040109D01*
X139100000Y-90079891D01*
X139115224Y-90116645D01*
X139143355Y-90144776D01*
X139180109Y-90160000D01*
X139219891Y-90160000D01*
X139256645Y-90144776D01*
X139284776Y-90116645D01*
X139300000Y-90079891D01*
X139300000Y-90059998D01*
X139553553Y-90059998D01*
X139553553Y-90059999D01*
X139900000Y-90406446D01*
X139900001Y-90406446D01*
X140263107Y-90043338D01*
X140249301Y-90034663D01*
X140079142Y-89975121D01*
X140078346Y-89974940D01*
X140077883Y-89974681D01*
X140072570Y-89972822D01*
X140072895Y-89971890D01*
X140017370Y-89940827D01*
X139988049Y-89887125D01*
X139987177Y-89887431D01*
X139985321Y-89882128D01*
X139985057Y-89881644D01*
X139984878Y-89880862D01*
X139925333Y-89710692D01*
X139916661Y-89696892D01*
X139916660Y-89696892D01*
X139553553Y-90059998D01*
X139300000Y-90059998D01*
X139300000Y-90040109D01*
X139284776Y-90003355D01*
X139256645Y-89975224D01*
X139219891Y-89960000D01*
X139180109Y-89960000D01*
X139143355Y-89975224D01*
X139115224Y-90003355D01*
X139100000Y-90040109D01*
X138826557Y-90040109D01*
X138500001Y-89713553D01*
X138500000Y-89713553D01*
X138153553Y-90059998D01*
X137900000Y-90059998D01*
X137900000Y-90040109D01*
X137884776Y-90003355D01*
X137856645Y-89975224D01*
X137819891Y-89960000D01*
X137780109Y-89960000D01*
X137743355Y-89975224D01*
X137715224Y-90003355D01*
X137700000Y-90040109D01*
X137426557Y-90040109D01*
X137083338Y-89696891D01*
X137083337Y-89696891D01*
X137074667Y-89710691D01*
X137074662Y-89710701D01*
X137015119Y-89880866D01*
X137014939Y-89881656D01*
X137014682Y-89882113D01*
X137012823Y-89887429D01*
X137011891Y-89887103D01*
X136980824Y-89942631D01*
X136927124Y-89971952D01*
X136927429Y-89972823D01*
X136922145Y-89974671D01*
X136921656Y-89974939D01*
X136920866Y-89975119D01*
X136750701Y-90034662D01*
X136750691Y-90034667D01*
X136736891Y-90043337D01*
X123250511Y-90043337D01*
X123301660Y-89945880D01*
X123400350Y-89685657D01*
X123466954Y-89415435D01*
X123475708Y-89343337D01*
X137436891Y-89343337D01*
X137436891Y-89343338D01*
X137800000Y-89706446D01*
X137800001Y-89706446D01*
X138163107Y-89343338D01*
X138163105Y-89343337D01*
X138836891Y-89343337D01*
X138836891Y-89343338D01*
X139200000Y-89706446D01*
X139200001Y-89706446D01*
X139563107Y-89343338D01*
X139549304Y-89334665D01*
X139379138Y-89275121D01*
X139200003Y-89254938D01*
X139199997Y-89254938D01*
X139020861Y-89275121D01*
X139020858Y-89275122D01*
X138850701Y-89334662D01*
X138850691Y-89334667D01*
X138836891Y-89343337D01*
X138163105Y-89343337D01*
X138149304Y-89334665D01*
X137979138Y-89275121D01*
X137800003Y-89254938D01*
X137799997Y-89254938D01*
X137620861Y-89275121D01*
X137620858Y-89275122D01*
X137450701Y-89334662D01*
X137450691Y-89334667D01*
X137436891Y-89343337D01*
X123475708Y-89343337D01*
X123500500Y-89139155D01*
X123500500Y-89000000D01*
X123500500Y-88952405D01*
X123500500Y-85010000D01*
X129244353Y-85010000D01*
X129264834Y-85152456D01*
X129324622Y-85283371D01*
X129324623Y-85283373D01*
X129418872Y-85392143D01*
X129539947Y-85469953D01*
X129539950Y-85469954D01*
X129539949Y-85469954D01*
X129678036Y-85510499D01*
X129678038Y-85510500D01*
X129678039Y-85510500D01*
X129821962Y-85510500D01*
X129821962Y-85510499D01*
X129960050Y-85469954D01*
X129960051Y-85469954D01*
X130021936Y-85430184D01*
X130088974Y-85410500D01*
X163123745Y-85410500D01*
X163190784Y-85430185D01*
X163236539Y-85482989D01*
X163246483Y-85552147D01*
X163217458Y-85615703D01*
X163211426Y-85622181D01*
X158759009Y-90074597D01*
X158706263Y-90105893D01*
X158589949Y-90140045D01*
X158468873Y-90217856D01*
X158374623Y-90326626D01*
X158374622Y-90326628D01*
X158314834Y-90457543D01*
X158294353Y-90600000D01*
X158314834Y-90742456D01*
X158348716Y-90816645D01*
X158374623Y-90873373D01*
X158431608Y-90939138D01*
X158436079Y-90944297D01*
X158465104Y-91007853D01*
X158455160Y-91077012D01*
X158409405Y-91129816D01*
X158342366Y-91149500D01*
X158025833Y-91149500D01*
X157958794Y-91129815D01*
X157938152Y-91113181D01*
X155239395Y-88414424D01*
X155205910Y-88353101D01*
X155204339Y-88309094D01*
X155205647Y-88300000D01*
X155185165Y-88157543D01*
X155125377Y-88026627D01*
X155031128Y-87917857D01*
X154910053Y-87840047D01*
X154910051Y-87840046D01*
X154910049Y-87840045D01*
X154910050Y-87840045D01*
X154771963Y-87799500D01*
X154771961Y-87799500D01*
X154628039Y-87799500D01*
X154628036Y-87799500D01*
X154489949Y-87840045D01*
X154368873Y-87917856D01*
X154274623Y-88026626D01*
X154274622Y-88026628D01*
X154214834Y-88157543D01*
X154194353Y-88300000D01*
X154214834Y-88442456D01*
X154274622Y-88573371D01*
X154274623Y-88573373D01*
X154368872Y-88682143D01*
X154489947Y-88759953D01*
X154489950Y-88759954D01*
X154489949Y-88759954D01*
X154597107Y-88791417D01*
X154625280Y-88799690D01*
X154628036Y-88800499D01*
X154628038Y-88800500D01*
X154724167Y-88800500D01*
X154791206Y-88820185D01*
X154811848Y-88836819D01*
X157665489Y-91690460D01*
X157724829Y-91724720D01*
X157734008Y-91730020D01*
X157734012Y-91730022D01*
X157810438Y-91750500D01*
X157810440Y-91750500D01*
X182039560Y-91750500D01*
X182039562Y-91750500D01*
X182115989Y-91730021D01*
X182184511Y-91690460D01*
X182240460Y-91634511D01*
X183238151Y-90636818D01*
X183299474Y-90603334D01*
X183325832Y-90600500D01*
X183421962Y-90600500D01*
X183421962Y-90600499D01*
X183560053Y-90559953D01*
X183681128Y-90482143D01*
X183775377Y-90373373D01*
X183835165Y-90242457D01*
X183855647Y-90100000D01*
X183835165Y-89957543D01*
X183775377Y-89826627D01*
X183681128Y-89717857D01*
X183560053Y-89640047D01*
X183560051Y-89640046D01*
X183560049Y-89640045D01*
X183560050Y-89640045D01*
X183421963Y-89599500D01*
X183421961Y-89599500D01*
X183278039Y-89599500D01*
X183278036Y-89599500D01*
X183139949Y-89640045D01*
X183018873Y-89717856D01*
X182924623Y-89826626D01*
X182924622Y-89826628D01*
X182864834Y-89957543D01*
X182844353Y-90100000D01*
X182844353Y-90100001D01*
X182845661Y-90109103D01*
X182835713Y-90178261D01*
X182810603Y-90214424D01*
X181911848Y-91113181D01*
X181850525Y-91146666D01*
X181824167Y-91149500D01*
X159257634Y-91149500D01*
X159190595Y-91129815D01*
X159144840Y-91077011D01*
X159134896Y-91007853D01*
X159163921Y-90944297D01*
X159168389Y-90939141D01*
X159225377Y-90873373D01*
X159285165Y-90742457D01*
X159289573Y-90711797D01*
X159318597Y-90648241D01*
X159324630Y-90641762D01*
X164519574Y-85446819D01*
X164580897Y-85413334D01*
X164607255Y-85410500D01*
X164647273Y-85410500D01*
X173215166Y-85410500D01*
X173282205Y-85430185D01*
X173327960Y-85482989D01*
X173337904Y-85552147D01*
X173308879Y-85615703D01*
X173302847Y-85622181D01*
X173211847Y-85713181D01*
X173150524Y-85746666D01*
X173124166Y-85749500D01*
X173028036Y-85749500D01*
X172889949Y-85790045D01*
X172768873Y-85867856D01*
X172674623Y-85976626D01*
X172674622Y-85976628D01*
X172614834Y-86107543D01*
X172594353Y-86250000D01*
X172614834Y-86392456D01*
X172674622Y-86523371D01*
X172674623Y-86523373D01*
X172768872Y-86632143D01*
X172889947Y-86709953D01*
X172889950Y-86709954D01*
X172889949Y-86709954D01*
X173028036Y-86750499D01*
X173028038Y-86750500D01*
X173028039Y-86750500D01*
X173171962Y-86750500D01*
X173171962Y-86750499D01*
X173310053Y-86709953D01*
X173431128Y-86632143D01*
X173525377Y-86523373D01*
X173585165Y-86392457D01*
X173605647Y-86250000D01*
X173604339Y-86240905D01*
X173614279Y-86171749D01*
X173639392Y-86135577D01*
X174328152Y-85446819D01*
X174389475Y-85413334D01*
X174415833Y-85410500D01*
X179592725Y-85410500D01*
X179592727Y-85410500D01*
X179694588Y-85383207D01*
X179721372Y-85367742D01*
X179789272Y-85351269D01*
X179855299Y-85374120D01*
X179871055Y-85387448D01*
X192813181Y-98329574D01*
X192846666Y-98390897D01*
X192849500Y-98417255D01*
X192849500Y-148265362D01*
X192829815Y-148332401D01*
X192777011Y-148378156D01*
X192765763Y-148382643D01*
X192665351Y-148417114D01*
X192665342Y-148417118D01*
X192453930Y-148531529D01*
X192453924Y-148531533D01*
X192264242Y-148679169D01*
X192264239Y-148679172D01*
X192101430Y-148856029D01*
X192101427Y-148856033D01*
X191969951Y-149057270D01*
X191873389Y-149277410D01*
X191814379Y-149510440D01*
X191794529Y-149749994D01*
X191794529Y-149750005D01*
X191814379Y-149989559D01*
X191873389Y-150222589D01*
X191920740Y-150330539D01*
X191929643Y-150399840D01*
X191899665Y-150462952D01*
X191894865Y-150468030D01*
X190049716Y-152313181D01*
X189988393Y-152346666D01*
X189962035Y-152349500D01*
X165537965Y-152349500D01*
X165470926Y-152329815D01*
X165450284Y-152313181D01*
X163605134Y-150468031D01*
X163571649Y-150406708D01*
X163576633Y-150337016D01*
X163579259Y-150330539D01*
X163626610Y-150222591D01*
X163685620Y-149989563D01*
X163700166Y-149814019D01*
X163705471Y-149750005D01*
X163705471Y-149749995D01*
X166095093Y-149749995D01*
X166095093Y-149750004D01*
X166114692Y-150011545D01*
X166114693Y-150011550D01*
X166173058Y-150267270D01*
X166268883Y-150511426D01*
X166268882Y-150511426D01*
X166400027Y-150738573D01*
X166447874Y-150798571D01*
X167248958Y-149997488D01*
X167273978Y-150057890D01*
X167345112Y-150164351D01*
X167435649Y-150254888D01*
X167542110Y-150326022D01*
X167602510Y-150351041D01*
X166800830Y-151152720D01*
X166972546Y-151269793D01*
X166972550Y-151269795D01*
X167208854Y-151383594D01*
X167208858Y-151383595D01*
X167459494Y-151460907D01*
X167459500Y-151460909D01*
X167718848Y-151499999D01*
X167718857Y-151500000D01*
X167981143Y-151500000D01*
X167981151Y-151499999D01*
X168240499Y-151460909D01*
X168240505Y-151460907D01*
X168491143Y-151383595D01*
X168727445Y-151269798D01*
X168727447Y-151269797D01*
X168899168Y-151152720D01*
X168097488Y-150351041D01*
X168157890Y-150326022D01*
X168264351Y-150254888D01*
X168354888Y-150164351D01*
X168426022Y-150057890D01*
X168451041Y-149997488D01*
X169252125Y-150798572D01*
X169299971Y-150738573D01*
X169431116Y-150511426D01*
X169526941Y-150267270D01*
X169585306Y-150011550D01*
X169585307Y-150011545D01*
X169604907Y-149750004D01*
X169604907Y-149749995D01*
X169604907Y-149749994D01*
X171474529Y-149749994D01*
X171474529Y-149750005D01*
X171494379Y-149989559D01*
X171553389Y-150222589D01*
X171649951Y-150442729D01*
X171769036Y-150625000D01*
X171781429Y-150643969D01*
X171944236Y-150820825D01*
X171944239Y-150820827D01*
X171944242Y-150820830D01*
X172133924Y-150968466D01*
X172133930Y-150968470D01*
X172133933Y-150968472D01*
X172345344Y-151082882D01*
X172345347Y-151082883D01*
X172572699Y-151160933D01*
X172572701Y-151160933D01*
X172572703Y-151160934D01*
X172809808Y-151200500D01*
X172809809Y-151200500D01*
X173050191Y-151200500D01*
X173050192Y-151200500D01*
X173287297Y-151160934D01*
X173514656Y-151082882D01*
X173726067Y-150968472D01*
X173915764Y-150820825D01*
X174078571Y-150643969D01*
X174210049Y-150442728D01*
X174306610Y-150222591D01*
X174365620Y-149989563D01*
X174380166Y-149814019D01*
X174385471Y-149750005D01*
X174385471Y-149749995D01*
X176255093Y-149749995D01*
X176255093Y-149750004D01*
X176274692Y-150011545D01*
X176274693Y-150011550D01*
X176333058Y-150267270D01*
X176428883Y-150511426D01*
X176428882Y-150511426D01*
X176560027Y-150738573D01*
X176607874Y-150798571D01*
X177408958Y-149997488D01*
X177433978Y-150057890D01*
X177505112Y-150164351D01*
X177595649Y-150254888D01*
X177702110Y-150326022D01*
X177762510Y-150351041D01*
X176960830Y-151152720D01*
X177132546Y-151269793D01*
X177132550Y-151269795D01*
X177368854Y-151383594D01*
X177368858Y-151383595D01*
X177619494Y-151460907D01*
X177619500Y-151460909D01*
X177878848Y-151499999D01*
X177878857Y-151500000D01*
X178141143Y-151500000D01*
X178141151Y-151499999D01*
X178400499Y-151460909D01*
X178400505Y-151460907D01*
X178651143Y-151383595D01*
X178887445Y-151269798D01*
X178887447Y-151269797D01*
X179059168Y-151152720D01*
X178257488Y-150351041D01*
X178317890Y-150326022D01*
X178424351Y-150254888D01*
X178514888Y-150164351D01*
X178586022Y-150057890D01*
X178611041Y-149997488D01*
X179412125Y-150798572D01*
X179459971Y-150738573D01*
X179591116Y-150511426D01*
X179686941Y-150267270D01*
X179745306Y-150011550D01*
X179745307Y-150011545D01*
X179764907Y-149750004D01*
X179764907Y-149749995D01*
X179745307Y-149488454D01*
X179745306Y-149488449D01*
X179686941Y-149232729D01*
X179591116Y-148988573D01*
X179591117Y-148988573D01*
X179459972Y-148761426D01*
X179412124Y-148701427D01*
X178611041Y-149502510D01*
X178586022Y-149442110D01*
X178514888Y-149335649D01*
X178424351Y-149245112D01*
X178317890Y-149173978D01*
X178257488Y-149148958D01*
X179059168Y-148347278D01*
X178887454Y-148230206D01*
X178887445Y-148230201D01*
X178651142Y-148116404D01*
X178651144Y-148116404D01*
X178400505Y-148039092D01*
X178400499Y-148039090D01*
X178141151Y-148000000D01*
X177878848Y-148000000D01*
X177619500Y-148039090D01*
X177619494Y-148039092D01*
X177368858Y-148116404D01*
X177368854Y-148116405D01*
X177132547Y-148230205D01*
X177132539Y-148230210D01*
X176960830Y-148347277D01*
X177762511Y-149148958D01*
X177702110Y-149173978D01*
X177595649Y-149245112D01*
X177505112Y-149335649D01*
X177433978Y-149442110D01*
X177408958Y-149502510D01*
X176607875Y-148701427D01*
X176607874Y-148701427D01*
X176560028Y-148761425D01*
X176428883Y-148988573D01*
X176333058Y-149232729D01*
X176274693Y-149488449D01*
X176274692Y-149488454D01*
X176255093Y-149749995D01*
X174385471Y-149749995D01*
X174385471Y-149749994D01*
X174365620Y-149510440D01*
X174365620Y-149510437D01*
X174306610Y-149277409D01*
X174210049Y-149057272D01*
X174165165Y-148988573D01*
X174129293Y-148933666D01*
X174078571Y-148856031D01*
X173915764Y-148679175D01*
X173915759Y-148679171D01*
X173915757Y-148679169D01*
X173726075Y-148531533D01*
X173726069Y-148531529D01*
X173514657Y-148417118D01*
X173514652Y-148417116D01*
X173287300Y-148339066D01*
X173066168Y-148302166D01*
X173050192Y-148299500D01*
X172809808Y-148299500D01*
X172793832Y-148302166D01*
X172572699Y-148339066D01*
X172345347Y-148417116D01*
X172345342Y-148417118D01*
X172133930Y-148531529D01*
X172133924Y-148531533D01*
X171944242Y-148679169D01*
X171944239Y-148679172D01*
X171781430Y-148856029D01*
X171781427Y-148856033D01*
X171649951Y-149057270D01*
X171553389Y-149277410D01*
X171494379Y-149510440D01*
X171474529Y-149749994D01*
X169604907Y-149749994D01*
X169585307Y-149488454D01*
X169585306Y-149488449D01*
X169526941Y-149232729D01*
X169431116Y-148988573D01*
X169431117Y-148988573D01*
X169299972Y-148761426D01*
X169252124Y-148701427D01*
X168451041Y-149502510D01*
X168426022Y-149442110D01*
X168354888Y-149335649D01*
X168264351Y-149245112D01*
X168157890Y-149173978D01*
X168097488Y-149148958D01*
X168899168Y-148347278D01*
X168727454Y-148230206D01*
X168727445Y-148230201D01*
X168491142Y-148116404D01*
X168491144Y-148116404D01*
X168240505Y-148039092D01*
X168240499Y-148039090D01*
X167981151Y-148000000D01*
X167718848Y-148000000D01*
X167459500Y-148039090D01*
X167459494Y-148039092D01*
X167208858Y-148116404D01*
X167208854Y-148116405D01*
X166972547Y-148230205D01*
X166972539Y-148230210D01*
X166800830Y-148347277D01*
X167602511Y-149148958D01*
X167542110Y-149173978D01*
X167435649Y-149245112D01*
X167345112Y-149335649D01*
X167273978Y-149442110D01*
X167248958Y-149502510D01*
X166447874Y-148701427D01*
X166400028Y-148761425D01*
X166268883Y-148988573D01*
X166173058Y-149232729D01*
X166114693Y-149488449D01*
X166114692Y-149488454D01*
X166095093Y-149749995D01*
X163705471Y-149749995D01*
X163705471Y-149749994D01*
X163685620Y-149510440D01*
X163685620Y-149510437D01*
X163626610Y-149277409D01*
X163530049Y-149057272D01*
X163485165Y-148988573D01*
X163449293Y-148933666D01*
X163398571Y-148856031D01*
X163235764Y-148679175D01*
X163235759Y-148679171D01*
X163235757Y-148679169D01*
X163046075Y-148531533D01*
X163046069Y-148531529D01*
X162834657Y-148417118D01*
X162834652Y-148417116D01*
X162607300Y-148339066D01*
X162386168Y-148302166D01*
X162370192Y-148299500D01*
X162129808Y-148299500D01*
X162113832Y-148302166D01*
X161892699Y-148339066D01*
X161665347Y-148417116D01*
X161665342Y-148417118D01*
X161453930Y-148531529D01*
X161453924Y-148531533D01*
X161264242Y-148679169D01*
X161264239Y-148679172D01*
X161101430Y-148856029D01*
X161101427Y-148856033D01*
X160969951Y-149057270D01*
X160873389Y-149277410D01*
X160814379Y-149510440D01*
X160794529Y-149749994D01*
X160794529Y-149750005D01*
X160814379Y-149989559D01*
X160873389Y-150222589D01*
X160969951Y-150442729D01*
X161089036Y-150625000D01*
X161101429Y-150643969D01*
X161264236Y-150820825D01*
X161264239Y-150820827D01*
X161264242Y-150820830D01*
X161453924Y-150968466D01*
X161453930Y-150968470D01*
X161453933Y-150968472D01*
X161665344Y-151082882D01*
X161665347Y-151082883D01*
X161892699Y-151160933D01*
X161892701Y-151160933D01*
X161892703Y-151160934D01*
X162129808Y-151200500D01*
X162129809Y-151200500D01*
X162370191Y-151200500D01*
X162370192Y-151200500D01*
X162607297Y-151160934D01*
X162631224Y-151152720D01*
X162839507Y-151081217D01*
X162839885Y-151082319D01*
X162903599Y-151074127D01*
X162966715Y-151104097D01*
X162971803Y-151108906D01*
X165023386Y-153160489D01*
X165023387Y-153160490D01*
X165023389Y-153160491D01*
X165078501Y-153192309D01*
X165078503Y-153192311D01*
X165078504Y-153192311D01*
X165126114Y-153219799D01*
X165240691Y-153250500D01*
X165240694Y-153250500D01*
X190259308Y-153250500D01*
X190259309Y-153250500D01*
X190349673Y-153226286D01*
X190373887Y-153219799D01*
X190476614Y-153160489D01*
X192528197Y-151108904D01*
X192589518Y-151075421D01*
X192659210Y-151080405D01*
X192665176Y-151082824D01*
X192665342Y-151082881D01*
X192665344Y-151082882D01*
X192727142Y-151104097D01*
X192892699Y-151160933D01*
X192892701Y-151160933D01*
X192892703Y-151160934D01*
X193129808Y-151200500D01*
X193129809Y-151200500D01*
X193370191Y-151200500D01*
X193370192Y-151200500D01*
X193607297Y-151160934D01*
X193834656Y-151082882D01*
X194046067Y-150968472D01*
X194235764Y-150820825D01*
X194398571Y-150643969D01*
X194530049Y-150442728D01*
X194626610Y-150222591D01*
X194685620Y-149989563D01*
X194700166Y-149814019D01*
X194705471Y-149750005D01*
X194705471Y-149749994D01*
X194685620Y-149510440D01*
X194685620Y-149510437D01*
X194626610Y-149277409D01*
X194530049Y-149057272D01*
X194485165Y-148988573D01*
X194449293Y-148933666D01*
X194398571Y-148856031D01*
X194235764Y-148679175D01*
X194235759Y-148679171D01*
X194235757Y-148679169D01*
X194046075Y-148531533D01*
X194046069Y-148531529D01*
X193834657Y-148417118D01*
X193834648Y-148417114D01*
X193734237Y-148382643D01*
X193677221Y-148342257D01*
X193651091Y-148277457D01*
X193650500Y-148265362D01*
X193650500Y-130199995D01*
X194544732Y-130199995D01*
X194544732Y-130200004D01*
X194563777Y-130454154D01*
X194620490Y-130702630D01*
X194620492Y-130702637D01*
X194713608Y-130939890D01*
X194725174Y-130959923D01*
X194841041Y-131160612D01*
X194999950Y-131359877D01*
X195186783Y-131533232D01*
X195397366Y-131676805D01*
X195397371Y-131676807D01*
X195397372Y-131676808D01*
X195397373Y-131676809D01*
X195519328Y-131735538D01*
X195626992Y-131787387D01*
X195626993Y-131787387D01*
X195626996Y-131787389D01*
X195870542Y-131862513D01*
X196122565Y-131900500D01*
X196377435Y-131900500D01*
X196629458Y-131862513D01*
X196873004Y-131787389D01*
X197102634Y-131676805D01*
X197313217Y-131533232D01*
X197500050Y-131359877D01*
X197658959Y-131160612D01*
X197786393Y-130939888D01*
X197879508Y-130702637D01*
X197936222Y-130454157D01*
X197955268Y-130200000D01*
X197954232Y-130186180D01*
X197936222Y-129945845D01*
X197933051Y-129931953D01*
X197879508Y-129697363D01*
X197786393Y-129460112D01*
X197658959Y-129239388D01*
X197500050Y-129040123D01*
X197313217Y-128866768D01*
X197102634Y-128723195D01*
X197102630Y-128723193D01*
X197102627Y-128723191D01*
X197102626Y-128723190D01*
X196873006Y-128612612D01*
X196873008Y-128612612D01*
X196629466Y-128537489D01*
X196629462Y-128537488D01*
X196629458Y-128537487D01*
X196508231Y-128519214D01*
X196377440Y-128499500D01*
X196377435Y-128499500D01*
X196122565Y-128499500D01*
X196122559Y-128499500D01*
X195965609Y-128523157D01*
X195870542Y-128537487D01*
X195870539Y-128537488D01*
X195870533Y-128537489D01*
X195626992Y-128612612D01*
X195397373Y-128723190D01*
X195397372Y-128723191D01*
X195186782Y-128866768D01*
X194999952Y-129040121D01*
X194999950Y-129040123D01*
X194841041Y-129239388D01*
X194713608Y-129460109D01*
X194620492Y-129697362D01*
X194620490Y-129697369D01*
X194563777Y-129945845D01*
X194544732Y-130199995D01*
X193650500Y-130199995D01*
X193650500Y-127999996D01*
X202494415Y-127999996D01*
X202494415Y-128000003D01*
X202514738Y-128348927D01*
X202514739Y-128348938D01*
X202575428Y-128693127D01*
X202575430Y-128693134D01*
X202675674Y-129027972D01*
X202814107Y-129348895D01*
X202814113Y-129348908D01*
X202988870Y-129651597D01*
X203197584Y-129931949D01*
X203197585Y-129931950D01*
X203210694Y-129945845D01*
X203437442Y-130186183D01*
X203613903Y-130334251D01*
X203705186Y-130410847D01*
X203705194Y-130410853D01*
X203997203Y-130602911D01*
X203997207Y-130602913D01*
X204309549Y-130759777D01*
X204637989Y-130879319D01*
X204978086Y-130959923D01*
X205325241Y-131000500D01*
X205325248Y-131000500D01*
X205674752Y-131000500D01*
X205674759Y-131000500D01*
X206021914Y-130959923D01*
X206362011Y-130879319D01*
X206690451Y-130759777D01*
X207002793Y-130602913D01*
X207294811Y-130410849D01*
X207562558Y-130186183D01*
X207789306Y-129945845D01*
X207802415Y-129931950D01*
X207802415Y-129931949D01*
X207861909Y-129852035D01*
X208011130Y-129651596D01*
X208185889Y-129348904D01*
X208324326Y-129027971D01*
X208424569Y-128693136D01*
X208434589Y-128636313D01*
X208485260Y-128348938D01*
X208485259Y-128348938D01*
X208485262Y-128348927D01*
X208505585Y-128000000D01*
X208485262Y-127651073D01*
X208485260Y-127651061D01*
X208424571Y-127306872D01*
X208424569Y-127306865D01*
X208424569Y-127306864D01*
X208324326Y-126972029D01*
X208185889Y-126651096D01*
X208011130Y-126348404D01*
X208011129Y-126348402D01*
X207802415Y-126068050D01*
X207802410Y-126068044D01*
X207686433Y-125945117D01*
X207562558Y-125813817D01*
X207414488Y-125689572D01*
X207294813Y-125589152D01*
X207294805Y-125589146D01*
X207002796Y-125397088D01*
X206690458Y-125240226D01*
X206690452Y-125240223D01*
X206362012Y-125120681D01*
X206362009Y-125120680D01*
X206021915Y-125040077D01*
X205978519Y-125035004D01*
X205674759Y-124999500D01*
X205325241Y-124999500D01*
X205021480Y-125035004D01*
X204978085Y-125040077D01*
X204978083Y-125040077D01*
X204637990Y-125120680D01*
X204637987Y-125120681D01*
X204309547Y-125240223D01*
X204309541Y-125240226D01*
X203997203Y-125397088D01*
X203705194Y-125589146D01*
X203705186Y-125589152D01*
X203437442Y-125813817D01*
X203437440Y-125813819D01*
X203197589Y-126068044D01*
X203197584Y-126068050D01*
X202988870Y-126348402D01*
X202814113Y-126651091D01*
X202814107Y-126651104D01*
X202675674Y-126972027D01*
X202575430Y-127306865D01*
X202575428Y-127306872D01*
X202514739Y-127651061D01*
X202514738Y-127651072D01*
X202494415Y-127999996D01*
X193650500Y-127999996D01*
X193650500Y-120499995D01*
X195994732Y-120499995D01*
X195994732Y-120500004D01*
X196013777Y-120754154D01*
X196059026Y-120952405D01*
X196070492Y-121002637D01*
X196163607Y-121239888D01*
X196291041Y-121460612D01*
X196449950Y-121659877D01*
X196636783Y-121833232D01*
X196847366Y-121976805D01*
X196847371Y-121976807D01*
X196847372Y-121976808D01*
X196847373Y-121976809D01*
X196969328Y-122035538D01*
X197076992Y-122087387D01*
X197076993Y-122087387D01*
X197076996Y-122087389D01*
X197320542Y-122162513D01*
X197572565Y-122200500D01*
X197827435Y-122200500D01*
X198079458Y-122162513D01*
X198323004Y-122087389D01*
X198552634Y-121976805D01*
X198763217Y-121833232D01*
X198950050Y-121659877D01*
X199108959Y-121460612D01*
X199236393Y-121239888D01*
X199329508Y-121002637D01*
X199386222Y-120754157D01*
X199405268Y-120500000D01*
X199398625Y-120411358D01*
X199386222Y-120245845D01*
X199369800Y-120173896D01*
X199329508Y-119997363D01*
X199236393Y-119760112D01*
X199108959Y-119539388D01*
X198950050Y-119340123D01*
X198763217Y-119166768D01*
X198552634Y-119023195D01*
X198552630Y-119023193D01*
X198552627Y-119023191D01*
X198552626Y-119023190D01*
X198323006Y-118912612D01*
X198323008Y-118912612D01*
X198079466Y-118837489D01*
X198079462Y-118837488D01*
X198079458Y-118837487D01*
X197958231Y-118819214D01*
X197827440Y-118799500D01*
X197827435Y-118799500D01*
X197572565Y-118799500D01*
X197572559Y-118799500D01*
X197415609Y-118823157D01*
X197320542Y-118837487D01*
X197320539Y-118837488D01*
X197320533Y-118837489D01*
X197076992Y-118912612D01*
X196847373Y-119023190D01*
X196847372Y-119023191D01*
X196636782Y-119166768D01*
X196449952Y-119340121D01*
X196449950Y-119340123D01*
X196291041Y-119539388D01*
X196163608Y-119760109D01*
X196070492Y-119997362D01*
X196070490Y-119997369D01*
X196013777Y-120245845D01*
X195994732Y-120499995D01*
X193650500Y-120499995D01*
X193650500Y-106999995D01*
X195994732Y-106999995D01*
X195994732Y-107000004D01*
X196013777Y-107254154D01*
X196053070Y-107426310D01*
X196070492Y-107502637D01*
X196163607Y-107739888D01*
X196291041Y-107960612D01*
X196449950Y-108159877D01*
X196636783Y-108333232D01*
X196847366Y-108476805D01*
X196847371Y-108476807D01*
X196847372Y-108476808D01*
X196847373Y-108476809D01*
X196969328Y-108535538D01*
X197076992Y-108587387D01*
X197076993Y-108587387D01*
X197076996Y-108587389D01*
X197320542Y-108662513D01*
X197572565Y-108700500D01*
X197827435Y-108700500D01*
X198079458Y-108662513D01*
X198323004Y-108587389D01*
X198552634Y-108476805D01*
X198763217Y-108333232D01*
X198950050Y-108159877D01*
X199108959Y-107960612D01*
X199236393Y-107739888D01*
X199329508Y-107502637D01*
X199386222Y-107254157D01*
X199405268Y-107000000D01*
X199398625Y-106911358D01*
X199386222Y-106745845D01*
X199369800Y-106673896D01*
X199329508Y-106497363D01*
X199236393Y-106260112D01*
X199108959Y-106039388D01*
X198950050Y-105840123D01*
X198763217Y-105666768D01*
X198552634Y-105523195D01*
X198552630Y-105523193D01*
X198552627Y-105523191D01*
X198552626Y-105523190D01*
X198323006Y-105412612D01*
X198323008Y-105412612D01*
X198079466Y-105337489D01*
X198079462Y-105337488D01*
X198079458Y-105337487D01*
X197958231Y-105319214D01*
X197827440Y-105299500D01*
X197827435Y-105299500D01*
X197572565Y-105299500D01*
X197572559Y-105299500D01*
X197415609Y-105323157D01*
X197320542Y-105337487D01*
X197320539Y-105337488D01*
X197320533Y-105337489D01*
X197076992Y-105412612D01*
X196847373Y-105523190D01*
X196847372Y-105523191D01*
X196636782Y-105666768D01*
X196449952Y-105840121D01*
X196449950Y-105840123D01*
X196291041Y-106039388D01*
X196163608Y-106260109D01*
X196070492Y-106497362D01*
X196070490Y-106497369D01*
X196013777Y-106745845D01*
X195994732Y-106999995D01*
X193650500Y-106999995D01*
X193650500Y-98147275D01*
X193650500Y-98147273D01*
X193623207Y-98045413D01*
X193570480Y-97954087D01*
X193495913Y-97879520D01*
X192916388Y-97299995D01*
X194544732Y-97299995D01*
X194544732Y-97300004D01*
X194563777Y-97554154D01*
X194608363Y-97749500D01*
X194620492Y-97802637D01*
X194713607Y-98039888D01*
X194841041Y-98260612D01*
X194999950Y-98459877D01*
X195186783Y-98633232D01*
X195397366Y-98776805D01*
X195397371Y-98776807D01*
X195397372Y-98776808D01*
X195397373Y-98776809D01*
X195519328Y-98835538D01*
X195626992Y-98887387D01*
X195626993Y-98887387D01*
X195626996Y-98887389D01*
X195870542Y-98962513D01*
X196122565Y-99000500D01*
X196377435Y-99000500D01*
X196629458Y-98962513D01*
X196873004Y-98887389D01*
X197102634Y-98776805D01*
X197313217Y-98633232D01*
X197500050Y-98459877D01*
X197658959Y-98260612D01*
X197786393Y-98039888D01*
X197879508Y-97802637D01*
X197936222Y-97554157D01*
X197952509Y-97336814D01*
X197955268Y-97300004D01*
X197955268Y-97299995D01*
X197936222Y-97045845D01*
X197936197Y-97045737D01*
X197879508Y-96797363D01*
X197786393Y-96560112D01*
X197658959Y-96339388D01*
X197500050Y-96140123D01*
X197349028Y-95999996D01*
X202494415Y-95999996D01*
X202494415Y-96000003D01*
X202514738Y-96348927D01*
X202514739Y-96348938D01*
X202575428Y-96693127D01*
X202575430Y-96693134D01*
X202675674Y-97027972D01*
X202814107Y-97348895D01*
X202814113Y-97348908D01*
X202988870Y-97651597D01*
X203197584Y-97931949D01*
X203197589Y-97931955D01*
X203299421Y-98039890D01*
X203437442Y-98186183D01*
X203608329Y-98329574D01*
X203705186Y-98410847D01*
X203705194Y-98410853D01*
X203997203Y-98602911D01*
X203997207Y-98602913D01*
X204309549Y-98759777D01*
X204637989Y-98879319D01*
X204978086Y-98959923D01*
X205325241Y-99000500D01*
X205325248Y-99000500D01*
X205674752Y-99000500D01*
X205674759Y-99000500D01*
X206021914Y-98959923D01*
X206362011Y-98879319D01*
X206690451Y-98759777D01*
X207002793Y-98602913D01*
X207294811Y-98410849D01*
X207562558Y-98186183D01*
X207802412Y-97931953D01*
X208011130Y-97651596D01*
X208185889Y-97348904D01*
X208324326Y-97027971D01*
X208424569Y-96693136D01*
X208434589Y-96636313D01*
X208485260Y-96348938D01*
X208485259Y-96348938D01*
X208485262Y-96348927D01*
X208505585Y-96000000D01*
X208503649Y-95966768D01*
X208497739Y-95865298D01*
X208485262Y-95651073D01*
X208482867Y-95637488D01*
X208424571Y-95306872D01*
X208424569Y-95306865D01*
X208392576Y-95200000D01*
X208324326Y-94972029D01*
X208185889Y-94651096D01*
X208065950Y-94443355D01*
X208011129Y-94348402D01*
X207802415Y-94068050D01*
X207802410Y-94068044D01*
X207630544Y-93885878D01*
X207562558Y-93813817D01*
X207402860Y-93679815D01*
X207294813Y-93589152D01*
X207294805Y-93589146D01*
X207002796Y-93397088D01*
X206690458Y-93240226D01*
X206690452Y-93240223D01*
X206362012Y-93120681D01*
X206362009Y-93120680D01*
X206021915Y-93040077D01*
X205957688Y-93032570D01*
X205674759Y-92999500D01*
X205325241Y-92999500D01*
X205042312Y-93032570D01*
X204978085Y-93040077D01*
X204978083Y-93040077D01*
X204637990Y-93120680D01*
X204637987Y-93120681D01*
X204309547Y-93240223D01*
X204309541Y-93240226D01*
X203997203Y-93397088D01*
X203705194Y-93589146D01*
X203705186Y-93589152D01*
X203437442Y-93813817D01*
X203437440Y-93813819D01*
X203197589Y-94068044D01*
X203197584Y-94068050D01*
X202988870Y-94348402D01*
X202814113Y-94651091D01*
X202814107Y-94651104D01*
X202675674Y-94972027D01*
X202575430Y-95306865D01*
X202575428Y-95306872D01*
X202514739Y-95651061D01*
X202514738Y-95651072D01*
X202494415Y-95999996D01*
X197349028Y-95999996D01*
X197313217Y-95966768D01*
X197102634Y-95823195D01*
X197102630Y-95823193D01*
X197102627Y-95823191D01*
X197102626Y-95823190D01*
X196873006Y-95712612D01*
X196873008Y-95712612D01*
X196629466Y-95637489D01*
X196629462Y-95637488D01*
X196629458Y-95637487D01*
X196508231Y-95619214D01*
X196377440Y-95599500D01*
X196377435Y-95599500D01*
X196122565Y-95599500D01*
X196122559Y-95599500D01*
X195965609Y-95623157D01*
X195870542Y-95637487D01*
X195870539Y-95637488D01*
X195870533Y-95637489D01*
X195626992Y-95712612D01*
X195397373Y-95823190D01*
X195397372Y-95823191D01*
X195186782Y-95966768D01*
X194999952Y-96140121D01*
X194999950Y-96140123D01*
X194841041Y-96339388D01*
X194713608Y-96560109D01*
X194620492Y-96797362D01*
X194620490Y-96797369D01*
X194563777Y-97045845D01*
X194544732Y-97299995D01*
X192916388Y-97299995D01*
X180324629Y-84708236D01*
X180291144Y-84646913D01*
X180289572Y-84638198D01*
X180285165Y-84607543D01*
X180277069Y-84589816D01*
X180249219Y-84528834D01*
X180225377Y-84476627D01*
X180131128Y-84367857D01*
X180010053Y-84290047D01*
X180010051Y-84290046D01*
X180010049Y-84290045D01*
X180010050Y-84290045D01*
X179871963Y-84249500D01*
X179871961Y-84249500D01*
X179728039Y-84249500D01*
X179728036Y-84249500D01*
X179589949Y-84290045D01*
X179468873Y-84367856D01*
X179374623Y-84476626D01*
X179374620Y-84476630D01*
X179347046Y-84537011D01*
X179301291Y-84589815D01*
X179234252Y-84609500D01*
X176785833Y-84609500D01*
X176718794Y-84589815D01*
X176698152Y-84573181D01*
X174539395Y-82414424D01*
X174505910Y-82353101D01*
X174504339Y-82309094D01*
X174505647Y-82300000D01*
X174485165Y-82157543D01*
X174425377Y-82026627D01*
X174425375Y-82026625D01*
X174425374Y-82026622D01*
X174330787Y-81917462D01*
X174301762Y-81853906D01*
X174300500Y-81836260D01*
X174300500Y-78825832D01*
X174320185Y-78758793D01*
X174336815Y-78738155D01*
X174438151Y-78636818D01*
X174499474Y-78603334D01*
X174525832Y-78600500D01*
X174621962Y-78600500D01*
X174621962Y-78600499D01*
X174760053Y-78559953D01*
X174881128Y-78482143D01*
X174975377Y-78373373D01*
X175035165Y-78242457D01*
X175055647Y-78100000D01*
X175035165Y-77957543D01*
X174975377Y-77826627D01*
X174881128Y-77717857D01*
X174760053Y-77640047D01*
X174760051Y-77640046D01*
X174760049Y-77640045D01*
X174760050Y-77640045D01*
X174621963Y-77599500D01*
X174621961Y-77599500D01*
X174478039Y-77599500D01*
X174478036Y-77599500D01*
X174339949Y-77640045D01*
X174218873Y-77717856D01*
X174124623Y-77826626D01*
X174124622Y-77826628D01*
X174064834Y-77957543D01*
X174044353Y-78100000D01*
X174044353Y-78100001D01*
X174045661Y-78109103D01*
X174035713Y-78178261D01*
X174010603Y-78214424D01*
X173815489Y-78409540D01*
X173759541Y-78465487D01*
X173759535Y-78465495D01*
X173719982Y-78534004D01*
X173719979Y-78534009D01*
X173699500Y-78610439D01*
X173699500Y-81836260D01*
X173679815Y-81903299D01*
X173669213Y-81917462D01*
X173574625Y-82026622D01*
X173574622Y-82026628D01*
X173514834Y-82157543D01*
X173494353Y-82300000D01*
X173514834Y-82442456D01*
X173563720Y-82549500D01*
X173574623Y-82573373D01*
X173668872Y-82682143D01*
X173789947Y-82759953D01*
X173789950Y-82759954D01*
X173789949Y-82759954D01*
X173846737Y-82776628D01*
X173925280Y-82799690D01*
X173928036Y-82800499D01*
X173928038Y-82800500D01*
X174024167Y-82800500D01*
X174091206Y-82820185D01*
X174111848Y-82836819D01*
X175672848Y-84397819D01*
X175706333Y-84459142D01*
X175701349Y-84528834D01*
X175659477Y-84584767D01*
X175594013Y-84609184D01*
X175585167Y-84609500D01*
X169668794Y-84609500D01*
X169601755Y-84589815D01*
X169556000Y-84537011D01*
X169546056Y-84467853D01*
X169575081Y-84404297D01*
X169606794Y-84378113D01*
X169626423Y-84366780D01*
X169672011Y-84340460D01*
X169727960Y-84284511D01*
X170038151Y-83974318D01*
X170099474Y-83940834D01*
X170125832Y-83938000D01*
X170221962Y-83938000D01*
X170221962Y-83937999D01*
X170360053Y-83897453D01*
X170481128Y-83819643D01*
X170575377Y-83710873D01*
X170635165Y-83579957D01*
X170655647Y-83437500D01*
X170635165Y-83295043D01*
X170575377Y-83164127D01*
X170481128Y-83055357D01*
X170360053Y-82977547D01*
X170360051Y-82977546D01*
X170360049Y-82977545D01*
X170360050Y-82977545D01*
X170221963Y-82937000D01*
X170221961Y-82937000D01*
X170078039Y-82937000D01*
X170078036Y-82937000D01*
X169939949Y-82977545D01*
X169818873Y-83055356D01*
X169724623Y-83164126D01*
X169724622Y-83164128D01*
X169664834Y-83295043D01*
X169644353Y-83437500D01*
X169644353Y-83437501D01*
X169645661Y-83446603D01*
X169635713Y-83515761D01*
X169610603Y-83551924D01*
X169399346Y-83763182D01*
X169338026Y-83796666D01*
X169311667Y-83799500D01*
X139951826Y-83799500D01*
X139884787Y-83779815D01*
X139858113Y-83756702D01*
X139797302Y-83686522D01*
X139768277Y-83622967D01*
X139778221Y-83553808D01*
X139823973Y-83501006D01*
X139931128Y-83432143D01*
X139964788Y-83393296D01*
X140023567Y-83355523D01*
X140058501Y-83350500D01*
X167414560Y-83350500D01*
X167414562Y-83350500D01*
X167490989Y-83330021D01*
X167559511Y-83290460D01*
X167615460Y-83234511D01*
X170888151Y-79961818D01*
X170949474Y-79928334D01*
X170975832Y-79925500D01*
X171071962Y-79925500D01*
X171071962Y-79925499D01*
X171210053Y-79884953D01*
X171331128Y-79807143D01*
X171425377Y-79698373D01*
X171485165Y-79567457D01*
X171505647Y-79425000D01*
X171485165Y-79282543D01*
X171425377Y-79151627D01*
X171331128Y-79042857D01*
X171210053Y-78965047D01*
X171210051Y-78965046D01*
X171210049Y-78965045D01*
X171210050Y-78965045D01*
X171071963Y-78924500D01*
X171071961Y-78924500D01*
X170928039Y-78924500D01*
X170928036Y-78924500D01*
X170789949Y-78965045D01*
X170668873Y-79042856D01*
X170574623Y-79151626D01*
X170574622Y-79151628D01*
X170514834Y-79282543D01*
X170494353Y-79425000D01*
X170494353Y-79425001D01*
X170495661Y-79434103D01*
X170485713Y-79503261D01*
X170460603Y-79539424D01*
X167286848Y-82713181D01*
X167225525Y-82746666D01*
X167199167Y-82749500D01*
X140058501Y-82749500D01*
X139991462Y-82729815D01*
X139964788Y-82706703D01*
X139931128Y-82667857D01*
X139810053Y-82590047D01*
X139810051Y-82590046D01*
X139810049Y-82590045D01*
X139810050Y-82590045D01*
X139671963Y-82549500D01*
X139671961Y-82549500D01*
X139528039Y-82549500D01*
X139528036Y-82549500D01*
X139389949Y-82590045D01*
X139268873Y-82667856D01*
X139174623Y-82776626D01*
X139174622Y-82776628D01*
X139114834Y-82907543D01*
X139094353Y-83050000D01*
X139114834Y-83192456D01*
X139174622Y-83323371D01*
X139174625Y-83323377D01*
X139252697Y-83413477D01*
X139281722Y-83477033D01*
X139271778Y-83546191D01*
X139226024Y-83598994D01*
X139118874Y-83667855D01*
X139024623Y-83776626D01*
X139024622Y-83776628D01*
X138964834Y-83907543D01*
X138944353Y-84050000D01*
X138964834Y-84192456D01*
X138990886Y-84249500D01*
X139024623Y-84323373D01*
X139094744Y-84404298D01*
X139123769Y-84467853D01*
X139113825Y-84537012D01*
X139068070Y-84589816D01*
X139001031Y-84609500D01*
X130088974Y-84609500D01*
X130021936Y-84589816D01*
X129960050Y-84550045D01*
X129821963Y-84509500D01*
X129821961Y-84509500D01*
X129678039Y-84509500D01*
X129678036Y-84509500D01*
X129539949Y-84550045D01*
X129418873Y-84627856D01*
X129324623Y-84736626D01*
X129324622Y-84736628D01*
X129264834Y-84867543D01*
X129244353Y-85010000D01*
X123500500Y-85010000D01*
X123500500Y-82374000D01*
X123520185Y-82306961D01*
X123572989Y-82261206D01*
X123624500Y-82250000D01*
X163999998Y-82250000D01*
X164000000Y-82250000D01*
X169957637Y-76336492D01*
X170019085Y-76303237D01*
X170044992Y-76300500D01*
X198694321Y-76300500D01*
X198703564Y-76300845D01*
G37*
%TD.AperFunction*%
%TD*%
M02*
