%TF.GenerationSoftware,KiCad,Pcbnew,8.0.2*%
%TF.CreationDate,2025-08-03T00:44:15+02:00*%
%TF.ProjectId,MarinaWatch,4d617269-6e61-4576-9174-63682e6b6963,rev?*%
%TF.SameCoordinates,Original*%
%TF.FileFunction,Drillmap*%
%TF.FilePolarity,Positive*%
%FSLAX45Y45*%
G04 Gerber Fmt 4.5, Leading zero omitted, Abs format (unit mm)*
G04 Created by KiCad (PCBNEW 8.0.2) date 2025-08-03 00:44:15*
%MOMM*%
%LPD*%
G01*
G04 APERTURE LIST*
%ADD10C,0.050000*%
%ADD11C,0.200000*%
%ADD12C,0.100000*%
%ADD13C,0.180000*%
%ADD14C,0.300000*%
G04 APERTURE END LIST*
D10*
X11840000Y-12300000D02*
X12120000Y-12300000D01*
X20270000Y-9100000D02*
G75*
G02*
X20070000Y-8900000I0J200000D01*
G01*
X20270000Y-12300000D02*
G75*
G02*
X20070000Y-12100000I0J200000D01*
G01*
X11840000Y-10100000D02*
X12120000Y-10100000D01*
X11840000Y-13300000D02*
G75*
G02*
X11840000Y-12300000I0J500000D01*
G01*
X20070000Y-15200000D02*
G75*
G02*
X19870000Y-15400000I-200000J0D01*
G01*
X20070000Y-12100000D02*
X20070000Y-10300000D01*
X20550000Y-12300000D02*
G75*
G02*
X20550000Y-13300000I0J-500000D01*
G01*
X20550000Y-9100000D02*
G75*
G02*
X20550000Y-10100000I0J-500000D01*
G01*
X19870000Y-7600000D02*
X12520000Y-7600000D01*
X20550000Y-12300000D02*
X20270000Y-12300000D01*
X11840000Y-9100000D02*
X12120000Y-9100000D01*
X11840000Y-10100000D02*
G75*
G02*
X11840000Y-9100000I0J500000D01*
G01*
X12320000Y-8900000D02*
G75*
G02*
X12120000Y-9100000I-200000J0D01*
G01*
X20550000Y-10100000D02*
X20270000Y-10100000D01*
X20550000Y-13300000D02*
X20270000Y-13300000D01*
X12320000Y-7800000D02*
X12320000Y-8900000D01*
X12120000Y-10100000D02*
G75*
G02*
X12320000Y-10300000I0J-200000D01*
G01*
X11840000Y-13300000D02*
X12120000Y-13300000D01*
X12520000Y-15400000D02*
X19870000Y-15400000D01*
X20070000Y-7800000D02*
X20070000Y-8900000D01*
X20070000Y-13500000D02*
X20070000Y-15200000D01*
X20550000Y-9100000D02*
X20270000Y-9100000D01*
X12120000Y-13300000D02*
G75*
G02*
X12320000Y-13500000I0J-200000D01*
G01*
X12320000Y-7800000D02*
G75*
G02*
X12520000Y-7600000I200000J0D01*
G01*
X20070000Y-13500000D02*
G75*
G02*
X20270000Y-13300000I200000J0D01*
G01*
X12320000Y-10300000D02*
X12320000Y-12100000D01*
X20070000Y-10300000D02*
G75*
G02*
X20270000Y-10100000I200000J0D01*
G01*
X12320000Y-12100000D02*
G75*
G02*
X12120000Y-12300000I-200000J0D01*
G01*
X12520000Y-15400000D02*
G75*
G02*
X12320000Y-15200000I0J200000D01*
G01*
X19870000Y-7600000D02*
G75*
G02*
X20070000Y-7800000I-710J-200710D01*
G01*
X12320000Y-13500000D02*
X12320000Y-15200000D01*
D11*
D12*
X12553500Y-14732000D02*
X12618500Y-14797000D01*
X12618500Y-14732000D02*
X12553500Y-14797000D01*
X13131500Y-14732000D02*
X13196500Y-14797000D01*
X13196500Y-14732000D02*
X13131500Y-14797000D01*
D13*
X19715000Y-9730000D02*
G75*
G02*
X19535000Y-9730000I-90000J0D01*
G01*
X19535000Y-9730000D02*
G75*
G02*
X19715000Y-9730000I90000J0D01*
G01*
X19715000Y-13020000D02*
G75*
G02*
X19535000Y-13020000I-90000J0D01*
G01*
X19535000Y-13020000D02*
G75*
G02*
X19715000Y-13020000I90000J0D01*
G01*
D14*
X13515000Y-10550000D02*
X13515000Y-10850000D01*
X13365000Y-10700000D02*
X13665000Y-10700000D01*
X13515000Y-11900000D02*
X13515000Y-12200000D01*
X13365000Y-12050000D02*
X13665000Y-12050000D01*
X18885000Y-10550000D02*
X18885000Y-10850000D01*
X18735000Y-10700000D02*
X19035000Y-10700000D01*
X18885000Y-11900000D02*
X18885000Y-12200000D01*
X18735000Y-12050000D02*
X19035000Y-12050000D01*
D11*
X11598277Y-15713984D02*
X11598277Y-15513984D01*
X11598277Y-15513984D02*
X11645896Y-15513984D01*
X11645896Y-15513984D02*
X11674467Y-15523508D01*
X11674467Y-15523508D02*
X11693515Y-15542555D01*
X11693515Y-15542555D02*
X11703039Y-15561603D01*
X11703039Y-15561603D02*
X11712562Y-15599698D01*
X11712562Y-15599698D02*
X11712562Y-15628269D01*
X11712562Y-15628269D02*
X11703039Y-15666365D01*
X11703039Y-15666365D02*
X11693515Y-15685412D01*
X11693515Y-15685412D02*
X11674467Y-15704460D01*
X11674467Y-15704460D02*
X11645896Y-15713984D01*
X11645896Y-15713984D02*
X11598277Y-15713984D01*
X11798277Y-15713984D02*
X11798277Y-15580650D01*
X11798277Y-15618746D02*
X11807801Y-15599698D01*
X11807801Y-15599698D02*
X11817324Y-15590174D01*
X11817324Y-15590174D02*
X11836372Y-15580650D01*
X11836372Y-15580650D02*
X11855420Y-15580650D01*
X11922086Y-15713984D02*
X11922086Y-15580650D01*
X11922086Y-15513984D02*
X11912562Y-15523508D01*
X11912562Y-15523508D02*
X11922086Y-15533031D01*
X11922086Y-15533031D02*
X11931610Y-15523508D01*
X11931610Y-15523508D02*
X11922086Y-15513984D01*
X11922086Y-15513984D02*
X11922086Y-15533031D01*
X12045896Y-15713984D02*
X12026848Y-15704460D01*
X12026848Y-15704460D02*
X12017324Y-15685412D01*
X12017324Y-15685412D02*
X12017324Y-15513984D01*
X12150658Y-15713984D02*
X12131610Y-15704460D01*
X12131610Y-15704460D02*
X12122086Y-15685412D01*
X12122086Y-15685412D02*
X12122086Y-15513984D01*
X12379229Y-15713984D02*
X12379229Y-15513984D01*
X12379229Y-15513984D02*
X12445896Y-15656841D01*
X12445896Y-15656841D02*
X12512562Y-15513984D01*
X12512562Y-15513984D02*
X12512562Y-15713984D01*
X12693515Y-15713984D02*
X12693515Y-15609222D01*
X12693515Y-15609222D02*
X12683991Y-15590174D01*
X12683991Y-15590174D02*
X12664943Y-15580650D01*
X12664943Y-15580650D02*
X12626848Y-15580650D01*
X12626848Y-15580650D02*
X12607801Y-15590174D01*
X12693515Y-15704460D02*
X12674467Y-15713984D01*
X12674467Y-15713984D02*
X12626848Y-15713984D01*
X12626848Y-15713984D02*
X12607801Y-15704460D01*
X12607801Y-15704460D02*
X12598277Y-15685412D01*
X12598277Y-15685412D02*
X12598277Y-15666365D01*
X12598277Y-15666365D02*
X12607801Y-15647317D01*
X12607801Y-15647317D02*
X12626848Y-15637793D01*
X12626848Y-15637793D02*
X12674467Y-15637793D01*
X12674467Y-15637793D02*
X12693515Y-15628269D01*
X12788753Y-15580650D02*
X12788753Y-15780650D01*
X12788753Y-15590174D02*
X12807801Y-15580650D01*
X12807801Y-15580650D02*
X12845896Y-15580650D01*
X12845896Y-15580650D02*
X12864943Y-15590174D01*
X12864943Y-15590174D02*
X12874467Y-15599698D01*
X12874467Y-15599698D02*
X12883991Y-15618746D01*
X12883991Y-15618746D02*
X12883991Y-15675888D01*
X12883991Y-15675888D02*
X12874467Y-15694936D01*
X12874467Y-15694936D02*
X12864943Y-15704460D01*
X12864943Y-15704460D02*
X12845896Y-15713984D01*
X12845896Y-15713984D02*
X12807801Y-15713984D01*
X12807801Y-15713984D02*
X12788753Y-15704460D01*
X12969705Y-15694936D02*
X12979229Y-15704460D01*
X12979229Y-15704460D02*
X12969705Y-15713984D01*
X12969705Y-15713984D02*
X12960182Y-15704460D01*
X12960182Y-15704460D02*
X12969705Y-15694936D01*
X12969705Y-15694936D02*
X12969705Y-15713984D01*
X12969705Y-15590174D02*
X12979229Y-15599698D01*
X12979229Y-15599698D02*
X12969705Y-15609222D01*
X12969705Y-15609222D02*
X12960182Y-15599698D01*
X12960182Y-15599698D02*
X12969705Y-15590174D01*
X12969705Y-15590174D02*
X12969705Y-15609222D01*
D12*
X11272500Y-16010000D02*
X11337500Y-16075000D01*
X11337500Y-16010000D02*
X11272500Y-16075000D01*
D11*
X11636372Y-15933984D02*
X11655420Y-15933984D01*
X11655420Y-15933984D02*
X11674467Y-15943508D01*
X11674467Y-15943508D02*
X11683991Y-15953031D01*
X11683991Y-15953031D02*
X11693515Y-15972079D01*
X11693515Y-15972079D02*
X11703039Y-16010174D01*
X11703039Y-16010174D02*
X11703039Y-16057793D01*
X11703039Y-16057793D02*
X11693515Y-16095888D01*
X11693515Y-16095888D02*
X11683991Y-16114936D01*
X11683991Y-16114936D02*
X11674467Y-16124460D01*
X11674467Y-16124460D02*
X11655420Y-16133984D01*
X11655420Y-16133984D02*
X11636372Y-16133984D01*
X11636372Y-16133984D02*
X11617324Y-16124460D01*
X11617324Y-16124460D02*
X11607801Y-16114936D01*
X11607801Y-16114936D02*
X11598277Y-16095888D01*
X11598277Y-16095888D02*
X11588753Y-16057793D01*
X11588753Y-16057793D02*
X11588753Y-16010174D01*
X11588753Y-16010174D02*
X11598277Y-15972079D01*
X11598277Y-15972079D02*
X11607801Y-15953031D01*
X11607801Y-15953031D02*
X11617324Y-15943508D01*
X11617324Y-15943508D02*
X11636372Y-15933984D01*
X11788753Y-16114936D02*
X11798277Y-16124460D01*
X11798277Y-16124460D02*
X11788753Y-16133984D01*
X11788753Y-16133984D02*
X11779229Y-16124460D01*
X11779229Y-16124460D02*
X11788753Y-16114936D01*
X11788753Y-16114936D02*
X11788753Y-16133984D01*
X11969705Y-15933984D02*
X11931610Y-15933984D01*
X11931610Y-15933984D02*
X11912562Y-15943508D01*
X11912562Y-15943508D02*
X11903039Y-15953031D01*
X11903039Y-15953031D02*
X11883991Y-15981603D01*
X11883991Y-15981603D02*
X11874467Y-16019698D01*
X11874467Y-16019698D02*
X11874467Y-16095888D01*
X11874467Y-16095888D02*
X11883991Y-16114936D01*
X11883991Y-16114936D02*
X11893515Y-16124460D01*
X11893515Y-16124460D02*
X11912562Y-16133984D01*
X11912562Y-16133984D02*
X11950658Y-16133984D01*
X11950658Y-16133984D02*
X11969705Y-16124460D01*
X11969705Y-16124460D02*
X11979229Y-16114936D01*
X11979229Y-16114936D02*
X11988753Y-16095888D01*
X11988753Y-16095888D02*
X11988753Y-16048269D01*
X11988753Y-16048269D02*
X11979229Y-16029222D01*
X11979229Y-16029222D02*
X11969705Y-16019698D01*
X11969705Y-16019698D02*
X11950658Y-16010174D01*
X11950658Y-16010174D02*
X11912562Y-16010174D01*
X11912562Y-16010174D02*
X11893515Y-16019698D01*
X11893515Y-16019698D02*
X11883991Y-16029222D01*
X11883991Y-16029222D02*
X11874467Y-16048269D01*
X12169705Y-15933984D02*
X12074467Y-15933984D01*
X12074467Y-15933984D02*
X12064943Y-16029222D01*
X12064943Y-16029222D02*
X12074467Y-16019698D01*
X12074467Y-16019698D02*
X12093515Y-16010174D01*
X12093515Y-16010174D02*
X12141134Y-16010174D01*
X12141134Y-16010174D02*
X12160182Y-16019698D01*
X12160182Y-16019698D02*
X12169705Y-16029222D01*
X12169705Y-16029222D02*
X12179229Y-16048269D01*
X12179229Y-16048269D02*
X12179229Y-16095888D01*
X12179229Y-16095888D02*
X12169705Y-16114936D01*
X12169705Y-16114936D02*
X12160182Y-16124460D01*
X12160182Y-16124460D02*
X12141134Y-16133984D01*
X12141134Y-16133984D02*
X12093515Y-16133984D01*
X12093515Y-16133984D02*
X12074467Y-16124460D01*
X12074467Y-16124460D02*
X12064943Y-16114936D01*
X12303039Y-15933984D02*
X12322086Y-15933984D01*
X12322086Y-15933984D02*
X12341134Y-15943508D01*
X12341134Y-15943508D02*
X12350658Y-15953031D01*
X12350658Y-15953031D02*
X12360182Y-15972079D01*
X12360182Y-15972079D02*
X12369705Y-16010174D01*
X12369705Y-16010174D02*
X12369705Y-16057793D01*
X12369705Y-16057793D02*
X12360182Y-16095888D01*
X12360182Y-16095888D02*
X12350658Y-16114936D01*
X12350658Y-16114936D02*
X12341134Y-16124460D01*
X12341134Y-16124460D02*
X12322086Y-16133984D01*
X12322086Y-16133984D02*
X12303039Y-16133984D01*
X12303039Y-16133984D02*
X12283991Y-16124460D01*
X12283991Y-16124460D02*
X12274467Y-16114936D01*
X12274467Y-16114936D02*
X12264943Y-16095888D01*
X12264943Y-16095888D02*
X12255420Y-16057793D01*
X12255420Y-16057793D02*
X12255420Y-16010174D01*
X12255420Y-16010174D02*
X12264943Y-15972079D01*
X12264943Y-15972079D02*
X12274467Y-15953031D01*
X12274467Y-15953031D02*
X12283991Y-15943508D01*
X12283991Y-15943508D02*
X12303039Y-15933984D01*
X12455420Y-16133984D02*
X12455420Y-16000650D01*
X12455420Y-16019698D02*
X12464943Y-16010174D01*
X12464943Y-16010174D02*
X12483991Y-16000650D01*
X12483991Y-16000650D02*
X12512563Y-16000650D01*
X12512563Y-16000650D02*
X12531610Y-16010174D01*
X12531610Y-16010174D02*
X12541134Y-16029222D01*
X12541134Y-16029222D02*
X12541134Y-16133984D01*
X12541134Y-16029222D02*
X12550658Y-16010174D01*
X12550658Y-16010174D02*
X12569705Y-16000650D01*
X12569705Y-16000650D02*
X12598277Y-16000650D01*
X12598277Y-16000650D02*
X12617324Y-16010174D01*
X12617324Y-16010174D02*
X12626848Y-16029222D01*
X12626848Y-16029222D02*
X12626848Y-16133984D01*
X12722086Y-16133984D02*
X12722086Y-16000650D01*
X12722086Y-16019698D02*
X12731610Y-16010174D01*
X12731610Y-16010174D02*
X12750658Y-16000650D01*
X12750658Y-16000650D02*
X12779229Y-16000650D01*
X12779229Y-16000650D02*
X12798277Y-16010174D01*
X12798277Y-16010174D02*
X12807801Y-16029222D01*
X12807801Y-16029222D02*
X12807801Y-16133984D01*
X12807801Y-16029222D02*
X12817324Y-16010174D01*
X12817324Y-16010174D02*
X12836372Y-16000650D01*
X12836372Y-16000650D02*
X12864943Y-16000650D01*
X12864943Y-16000650D02*
X12883991Y-16010174D01*
X12883991Y-16010174D02*
X12893515Y-16029222D01*
X12893515Y-16029222D02*
X12893515Y-16133984D01*
X13283991Y-15924460D02*
X13112563Y-16181603D01*
X13541134Y-15933984D02*
X13560182Y-15933984D01*
X13560182Y-15933984D02*
X13579229Y-15943508D01*
X13579229Y-15943508D02*
X13588753Y-15953031D01*
X13588753Y-15953031D02*
X13598277Y-15972079D01*
X13598277Y-15972079D02*
X13607801Y-16010174D01*
X13607801Y-16010174D02*
X13607801Y-16057793D01*
X13607801Y-16057793D02*
X13598277Y-16095888D01*
X13598277Y-16095888D02*
X13588753Y-16114936D01*
X13588753Y-16114936D02*
X13579229Y-16124460D01*
X13579229Y-16124460D02*
X13560182Y-16133984D01*
X13560182Y-16133984D02*
X13541134Y-16133984D01*
X13541134Y-16133984D02*
X13522086Y-16124460D01*
X13522086Y-16124460D02*
X13512563Y-16114936D01*
X13512563Y-16114936D02*
X13503039Y-16095888D01*
X13503039Y-16095888D02*
X13493515Y-16057793D01*
X13493515Y-16057793D02*
X13493515Y-16010174D01*
X13493515Y-16010174D02*
X13503039Y-15972079D01*
X13503039Y-15972079D02*
X13512563Y-15953031D01*
X13512563Y-15953031D02*
X13522086Y-15943508D01*
X13522086Y-15943508D02*
X13541134Y-15933984D01*
X13693515Y-16114936D02*
X13703039Y-16124460D01*
X13703039Y-16124460D02*
X13693515Y-16133984D01*
X13693515Y-16133984D02*
X13683991Y-16124460D01*
X13683991Y-16124460D02*
X13693515Y-16114936D01*
X13693515Y-16114936D02*
X13693515Y-16133984D01*
X13826848Y-15933984D02*
X13845896Y-15933984D01*
X13845896Y-15933984D02*
X13864944Y-15943508D01*
X13864944Y-15943508D02*
X13874467Y-15953031D01*
X13874467Y-15953031D02*
X13883991Y-15972079D01*
X13883991Y-15972079D02*
X13893515Y-16010174D01*
X13893515Y-16010174D02*
X13893515Y-16057793D01*
X13893515Y-16057793D02*
X13883991Y-16095888D01*
X13883991Y-16095888D02*
X13874467Y-16114936D01*
X13874467Y-16114936D02*
X13864944Y-16124460D01*
X13864944Y-16124460D02*
X13845896Y-16133984D01*
X13845896Y-16133984D02*
X13826848Y-16133984D01*
X13826848Y-16133984D02*
X13807801Y-16124460D01*
X13807801Y-16124460D02*
X13798277Y-16114936D01*
X13798277Y-16114936D02*
X13788753Y-16095888D01*
X13788753Y-16095888D02*
X13779229Y-16057793D01*
X13779229Y-16057793D02*
X13779229Y-16010174D01*
X13779229Y-16010174D02*
X13788753Y-15972079D01*
X13788753Y-15972079D02*
X13798277Y-15953031D01*
X13798277Y-15953031D02*
X13807801Y-15943508D01*
X13807801Y-15943508D02*
X13826848Y-15933984D01*
X13969706Y-15953031D02*
X13979229Y-15943508D01*
X13979229Y-15943508D02*
X13998277Y-15933984D01*
X13998277Y-15933984D02*
X14045896Y-15933984D01*
X14045896Y-15933984D02*
X14064944Y-15943508D01*
X14064944Y-15943508D02*
X14074467Y-15953031D01*
X14074467Y-15953031D02*
X14083991Y-15972079D01*
X14083991Y-15972079D02*
X14083991Y-15991127D01*
X14083991Y-15991127D02*
X14074467Y-16019698D01*
X14074467Y-16019698D02*
X13960182Y-16133984D01*
X13960182Y-16133984D02*
X14083991Y-16133984D01*
X14264944Y-15933984D02*
X14169706Y-15933984D01*
X14169706Y-15933984D02*
X14160182Y-16029222D01*
X14160182Y-16029222D02*
X14169706Y-16019698D01*
X14169706Y-16019698D02*
X14188753Y-16010174D01*
X14188753Y-16010174D02*
X14236372Y-16010174D01*
X14236372Y-16010174D02*
X14255420Y-16019698D01*
X14255420Y-16019698D02*
X14264944Y-16029222D01*
X14264944Y-16029222D02*
X14274467Y-16048269D01*
X14274467Y-16048269D02*
X14274467Y-16095888D01*
X14274467Y-16095888D02*
X14264944Y-16114936D01*
X14264944Y-16114936D02*
X14255420Y-16124460D01*
X14255420Y-16124460D02*
X14236372Y-16133984D01*
X14236372Y-16133984D02*
X14188753Y-16133984D01*
X14188753Y-16133984D02*
X14169706Y-16124460D01*
X14169706Y-16124460D02*
X14160182Y-16114936D01*
X14445896Y-15933984D02*
X14407801Y-15933984D01*
X14407801Y-15933984D02*
X14388753Y-15943508D01*
X14388753Y-15943508D02*
X14379229Y-15953031D01*
X14379229Y-15953031D02*
X14360182Y-15981603D01*
X14360182Y-15981603D02*
X14350658Y-16019698D01*
X14350658Y-16019698D02*
X14350658Y-16095888D01*
X14350658Y-16095888D02*
X14360182Y-16114936D01*
X14360182Y-16114936D02*
X14369706Y-16124460D01*
X14369706Y-16124460D02*
X14388753Y-16133984D01*
X14388753Y-16133984D02*
X14426848Y-16133984D01*
X14426848Y-16133984D02*
X14445896Y-16124460D01*
X14445896Y-16124460D02*
X14455420Y-16114936D01*
X14455420Y-16114936D02*
X14464944Y-16095888D01*
X14464944Y-16095888D02*
X14464944Y-16048269D01*
X14464944Y-16048269D02*
X14455420Y-16029222D01*
X14455420Y-16029222D02*
X14445896Y-16019698D01*
X14445896Y-16019698D02*
X14426848Y-16010174D01*
X14426848Y-16010174D02*
X14388753Y-16010174D01*
X14388753Y-16010174D02*
X14369706Y-16019698D01*
X14369706Y-16019698D02*
X14360182Y-16029222D01*
X14360182Y-16029222D02*
X14350658Y-16048269D01*
X14541134Y-15933984D02*
X14541134Y-15972079D01*
X14617325Y-15933984D02*
X14617325Y-15972079D01*
X14912563Y-16210174D02*
X14903039Y-16200650D01*
X14903039Y-16200650D02*
X14883991Y-16172079D01*
X14883991Y-16172079D02*
X14874468Y-16153031D01*
X14874468Y-16153031D02*
X14864944Y-16124460D01*
X14864944Y-16124460D02*
X14855420Y-16076841D01*
X14855420Y-16076841D02*
X14855420Y-16038746D01*
X14855420Y-16038746D02*
X14864944Y-15991127D01*
X14864944Y-15991127D02*
X14874468Y-15962555D01*
X14874468Y-15962555D02*
X14883991Y-15943508D01*
X14883991Y-15943508D02*
X14903039Y-15914936D01*
X14903039Y-15914936D02*
X14912563Y-15905412D01*
X14979229Y-15953031D02*
X14988753Y-15943508D01*
X14988753Y-15943508D02*
X15007801Y-15933984D01*
X15007801Y-15933984D02*
X15055420Y-15933984D01*
X15055420Y-15933984D02*
X15074468Y-15943508D01*
X15074468Y-15943508D02*
X15083991Y-15953031D01*
X15083991Y-15953031D02*
X15093515Y-15972079D01*
X15093515Y-15972079D02*
X15093515Y-15991127D01*
X15093515Y-15991127D02*
X15083991Y-16019698D01*
X15083991Y-16019698D02*
X14969706Y-16133984D01*
X14969706Y-16133984D02*
X15093515Y-16133984D01*
X15331610Y-16133984D02*
X15331610Y-15933984D01*
X15417325Y-16133984D02*
X15417325Y-16029222D01*
X15417325Y-16029222D02*
X15407801Y-16010174D01*
X15407801Y-16010174D02*
X15388753Y-16000650D01*
X15388753Y-16000650D02*
X15360182Y-16000650D01*
X15360182Y-16000650D02*
X15341134Y-16010174D01*
X15341134Y-16010174D02*
X15331610Y-16019698D01*
X15541134Y-16133984D02*
X15522087Y-16124460D01*
X15522087Y-16124460D02*
X15512563Y-16114936D01*
X15512563Y-16114936D02*
X15503039Y-16095888D01*
X15503039Y-16095888D02*
X15503039Y-16038746D01*
X15503039Y-16038746D02*
X15512563Y-16019698D01*
X15512563Y-16019698D02*
X15522087Y-16010174D01*
X15522087Y-16010174D02*
X15541134Y-16000650D01*
X15541134Y-16000650D02*
X15569706Y-16000650D01*
X15569706Y-16000650D02*
X15588753Y-16010174D01*
X15588753Y-16010174D02*
X15598277Y-16019698D01*
X15598277Y-16019698D02*
X15607801Y-16038746D01*
X15607801Y-16038746D02*
X15607801Y-16095888D01*
X15607801Y-16095888D02*
X15598277Y-16114936D01*
X15598277Y-16114936D02*
X15588753Y-16124460D01*
X15588753Y-16124460D02*
X15569706Y-16133984D01*
X15569706Y-16133984D02*
X15541134Y-16133984D01*
X15722087Y-16133984D02*
X15703039Y-16124460D01*
X15703039Y-16124460D02*
X15693515Y-16105412D01*
X15693515Y-16105412D02*
X15693515Y-15933984D01*
X15874468Y-16124460D02*
X15855420Y-16133984D01*
X15855420Y-16133984D02*
X15817325Y-16133984D01*
X15817325Y-16133984D02*
X15798277Y-16124460D01*
X15798277Y-16124460D02*
X15788753Y-16105412D01*
X15788753Y-16105412D02*
X15788753Y-16029222D01*
X15788753Y-16029222D02*
X15798277Y-16010174D01*
X15798277Y-16010174D02*
X15817325Y-16000650D01*
X15817325Y-16000650D02*
X15855420Y-16000650D01*
X15855420Y-16000650D02*
X15874468Y-16010174D01*
X15874468Y-16010174D02*
X15883991Y-16029222D01*
X15883991Y-16029222D02*
X15883991Y-16048269D01*
X15883991Y-16048269D02*
X15788753Y-16067317D01*
X15960182Y-16124460D02*
X15979230Y-16133984D01*
X15979230Y-16133984D02*
X16017325Y-16133984D01*
X16017325Y-16133984D02*
X16036372Y-16124460D01*
X16036372Y-16124460D02*
X16045896Y-16105412D01*
X16045896Y-16105412D02*
X16045896Y-16095888D01*
X16045896Y-16095888D02*
X16036372Y-16076841D01*
X16036372Y-16076841D02*
X16017325Y-16067317D01*
X16017325Y-16067317D02*
X15988753Y-16067317D01*
X15988753Y-16067317D02*
X15969706Y-16057793D01*
X15969706Y-16057793D02*
X15960182Y-16038746D01*
X15960182Y-16038746D02*
X15960182Y-16029222D01*
X15960182Y-16029222D02*
X15969706Y-16010174D01*
X15969706Y-16010174D02*
X15988753Y-16000650D01*
X15988753Y-16000650D02*
X16017325Y-16000650D01*
X16017325Y-16000650D02*
X16036372Y-16010174D01*
X16112563Y-16210174D02*
X16122087Y-16200650D01*
X16122087Y-16200650D02*
X16141134Y-16172079D01*
X16141134Y-16172079D02*
X16150658Y-16153031D01*
X16150658Y-16153031D02*
X16160182Y-16124460D01*
X16160182Y-16124460D02*
X16169706Y-16076841D01*
X16169706Y-16076841D02*
X16169706Y-16038746D01*
X16169706Y-16038746D02*
X16160182Y-15991127D01*
X16160182Y-15991127D02*
X16150658Y-15962555D01*
X16150658Y-15962555D02*
X16141134Y-15943508D01*
X16141134Y-15943508D02*
X16122087Y-15914936D01*
X16122087Y-15914936D02*
X16112563Y-15905412D01*
X16474468Y-16210174D02*
X16464944Y-16200650D01*
X16464944Y-16200650D02*
X16445896Y-16172079D01*
X16445896Y-16172079D02*
X16436372Y-16153031D01*
X16436372Y-16153031D02*
X16426849Y-16124460D01*
X16426849Y-16124460D02*
X16417325Y-16076841D01*
X16417325Y-16076841D02*
X16417325Y-16038746D01*
X16417325Y-16038746D02*
X16426849Y-15991127D01*
X16426849Y-15991127D02*
X16436372Y-15962555D01*
X16436372Y-15962555D02*
X16445896Y-15943508D01*
X16445896Y-15943508D02*
X16464944Y-15914936D01*
X16464944Y-15914936D02*
X16474468Y-15905412D01*
X16550658Y-16000650D02*
X16550658Y-16133984D01*
X16550658Y-16019698D02*
X16560182Y-16010174D01*
X16560182Y-16010174D02*
X16579230Y-16000650D01*
X16579230Y-16000650D02*
X16607801Y-16000650D01*
X16607801Y-16000650D02*
X16626849Y-16010174D01*
X16626849Y-16010174D02*
X16636372Y-16029222D01*
X16636372Y-16029222D02*
X16636372Y-16133984D01*
X16760182Y-16133984D02*
X16741134Y-16124460D01*
X16741134Y-16124460D02*
X16731611Y-16114936D01*
X16731611Y-16114936D02*
X16722087Y-16095888D01*
X16722087Y-16095888D02*
X16722087Y-16038746D01*
X16722087Y-16038746D02*
X16731611Y-16019698D01*
X16731611Y-16019698D02*
X16741134Y-16010174D01*
X16741134Y-16010174D02*
X16760182Y-16000650D01*
X16760182Y-16000650D02*
X16788754Y-16000650D01*
X16788754Y-16000650D02*
X16807801Y-16010174D01*
X16807801Y-16010174D02*
X16817325Y-16019698D01*
X16817325Y-16019698D02*
X16826849Y-16038746D01*
X16826849Y-16038746D02*
X16826849Y-16095888D01*
X16826849Y-16095888D02*
X16817325Y-16114936D01*
X16817325Y-16114936D02*
X16807801Y-16124460D01*
X16807801Y-16124460D02*
X16788754Y-16133984D01*
X16788754Y-16133984D02*
X16760182Y-16133984D01*
X16883992Y-16000650D02*
X16960182Y-16000650D01*
X16912563Y-15933984D02*
X16912563Y-16105412D01*
X16912563Y-16105412D02*
X16922087Y-16124460D01*
X16922087Y-16124460D02*
X16941134Y-16133984D01*
X16941134Y-16133984D02*
X16960182Y-16133984D01*
X17179230Y-16000650D02*
X17179230Y-16200650D01*
X17179230Y-16010174D02*
X17198277Y-16000650D01*
X17198277Y-16000650D02*
X17236373Y-16000650D01*
X17236373Y-16000650D02*
X17255420Y-16010174D01*
X17255420Y-16010174D02*
X17264944Y-16019698D01*
X17264944Y-16019698D02*
X17274468Y-16038746D01*
X17274468Y-16038746D02*
X17274468Y-16095888D01*
X17274468Y-16095888D02*
X17264944Y-16114936D01*
X17264944Y-16114936D02*
X17255420Y-16124460D01*
X17255420Y-16124460D02*
X17236373Y-16133984D01*
X17236373Y-16133984D02*
X17198277Y-16133984D01*
X17198277Y-16133984D02*
X17179230Y-16124460D01*
X17388754Y-16133984D02*
X17369706Y-16124460D01*
X17369706Y-16124460D02*
X17360182Y-16105412D01*
X17360182Y-16105412D02*
X17360182Y-15933984D01*
X17550658Y-16133984D02*
X17550658Y-16029222D01*
X17550658Y-16029222D02*
X17541135Y-16010174D01*
X17541135Y-16010174D02*
X17522087Y-16000650D01*
X17522087Y-16000650D02*
X17483992Y-16000650D01*
X17483992Y-16000650D02*
X17464944Y-16010174D01*
X17550658Y-16124460D02*
X17531611Y-16133984D01*
X17531611Y-16133984D02*
X17483992Y-16133984D01*
X17483992Y-16133984D02*
X17464944Y-16124460D01*
X17464944Y-16124460D02*
X17455420Y-16105412D01*
X17455420Y-16105412D02*
X17455420Y-16086365D01*
X17455420Y-16086365D02*
X17464944Y-16067317D01*
X17464944Y-16067317D02*
X17483992Y-16057793D01*
X17483992Y-16057793D02*
X17531611Y-16057793D01*
X17531611Y-16057793D02*
X17550658Y-16048269D01*
X17617325Y-16000650D02*
X17693515Y-16000650D01*
X17645896Y-15933984D02*
X17645896Y-16105412D01*
X17645896Y-16105412D02*
X17655420Y-16124460D01*
X17655420Y-16124460D02*
X17674468Y-16133984D01*
X17674468Y-16133984D02*
X17693515Y-16133984D01*
X17836373Y-16124460D02*
X17817325Y-16133984D01*
X17817325Y-16133984D02*
X17779230Y-16133984D01*
X17779230Y-16133984D02*
X17760182Y-16124460D01*
X17760182Y-16124460D02*
X17750658Y-16105412D01*
X17750658Y-16105412D02*
X17750658Y-16029222D01*
X17750658Y-16029222D02*
X17760182Y-16010174D01*
X17760182Y-16010174D02*
X17779230Y-16000650D01*
X17779230Y-16000650D02*
X17817325Y-16000650D01*
X17817325Y-16000650D02*
X17836373Y-16010174D01*
X17836373Y-16010174D02*
X17845896Y-16029222D01*
X17845896Y-16029222D02*
X17845896Y-16048269D01*
X17845896Y-16048269D02*
X17750658Y-16067317D01*
X18017325Y-16133984D02*
X18017325Y-15933984D01*
X18017325Y-16124460D02*
X17998277Y-16133984D01*
X17998277Y-16133984D02*
X17960182Y-16133984D01*
X17960182Y-16133984D02*
X17941135Y-16124460D01*
X17941135Y-16124460D02*
X17931611Y-16114936D01*
X17931611Y-16114936D02*
X17922087Y-16095888D01*
X17922087Y-16095888D02*
X17922087Y-16038746D01*
X17922087Y-16038746D02*
X17931611Y-16019698D01*
X17931611Y-16019698D02*
X17941135Y-16010174D01*
X17941135Y-16010174D02*
X17960182Y-16000650D01*
X17960182Y-16000650D02*
X17998277Y-16000650D01*
X17998277Y-16000650D02*
X18017325Y-16010174D01*
X18093516Y-16210174D02*
X18103039Y-16200650D01*
X18103039Y-16200650D02*
X18122087Y-16172079D01*
X18122087Y-16172079D02*
X18131611Y-16153031D01*
X18131611Y-16153031D02*
X18141135Y-16124460D01*
X18141135Y-16124460D02*
X18150658Y-16076841D01*
X18150658Y-16076841D02*
X18150658Y-16038746D01*
X18150658Y-16038746D02*
X18141135Y-15991127D01*
X18141135Y-15991127D02*
X18131611Y-15962555D01*
X18131611Y-15962555D02*
X18122087Y-15943508D01*
X18122087Y-15943508D02*
X18103039Y-15914936D01*
X18103039Y-15914936D02*
X18093516Y-15905412D01*
D13*
X11337500Y-16306500D02*
G75*
G02*
X11157500Y-16306500I-90000J0D01*
G01*
X11157500Y-16306500D02*
G75*
G02*
X11337500Y-16306500I90000J0D01*
G01*
D11*
X11703039Y-16397984D02*
X11588753Y-16397984D01*
X11645896Y-16397984D02*
X11645896Y-16197984D01*
X11645896Y-16197984D02*
X11626848Y-16226555D01*
X11626848Y-16226555D02*
X11607801Y-16245603D01*
X11607801Y-16245603D02*
X11588753Y-16255127D01*
X11788753Y-16378936D02*
X11798277Y-16388460D01*
X11798277Y-16388460D02*
X11788753Y-16397984D01*
X11788753Y-16397984D02*
X11779229Y-16388460D01*
X11779229Y-16388460D02*
X11788753Y-16378936D01*
X11788753Y-16378936D02*
X11788753Y-16397984D01*
X11912562Y-16283698D02*
X11893515Y-16274174D01*
X11893515Y-16274174D02*
X11883991Y-16264650D01*
X11883991Y-16264650D02*
X11874467Y-16245603D01*
X11874467Y-16245603D02*
X11874467Y-16236079D01*
X11874467Y-16236079D02*
X11883991Y-16217031D01*
X11883991Y-16217031D02*
X11893515Y-16207508D01*
X11893515Y-16207508D02*
X11912562Y-16197984D01*
X11912562Y-16197984D02*
X11950658Y-16197984D01*
X11950658Y-16197984D02*
X11969705Y-16207508D01*
X11969705Y-16207508D02*
X11979229Y-16217031D01*
X11979229Y-16217031D02*
X11988753Y-16236079D01*
X11988753Y-16236079D02*
X11988753Y-16245603D01*
X11988753Y-16245603D02*
X11979229Y-16264650D01*
X11979229Y-16264650D02*
X11969705Y-16274174D01*
X11969705Y-16274174D02*
X11950658Y-16283698D01*
X11950658Y-16283698D02*
X11912562Y-16283698D01*
X11912562Y-16283698D02*
X11893515Y-16293222D01*
X11893515Y-16293222D02*
X11883991Y-16302746D01*
X11883991Y-16302746D02*
X11874467Y-16321793D01*
X11874467Y-16321793D02*
X11874467Y-16359888D01*
X11874467Y-16359888D02*
X11883991Y-16378936D01*
X11883991Y-16378936D02*
X11893515Y-16388460D01*
X11893515Y-16388460D02*
X11912562Y-16397984D01*
X11912562Y-16397984D02*
X11950658Y-16397984D01*
X11950658Y-16397984D02*
X11969705Y-16388460D01*
X11969705Y-16388460D02*
X11979229Y-16378936D01*
X11979229Y-16378936D02*
X11988753Y-16359888D01*
X11988753Y-16359888D02*
X11988753Y-16321793D01*
X11988753Y-16321793D02*
X11979229Y-16302746D01*
X11979229Y-16302746D02*
X11969705Y-16293222D01*
X11969705Y-16293222D02*
X11950658Y-16283698D01*
X12112562Y-16197984D02*
X12131610Y-16197984D01*
X12131610Y-16197984D02*
X12150658Y-16207508D01*
X12150658Y-16207508D02*
X12160182Y-16217031D01*
X12160182Y-16217031D02*
X12169705Y-16236079D01*
X12169705Y-16236079D02*
X12179229Y-16274174D01*
X12179229Y-16274174D02*
X12179229Y-16321793D01*
X12179229Y-16321793D02*
X12169705Y-16359888D01*
X12169705Y-16359888D02*
X12160182Y-16378936D01*
X12160182Y-16378936D02*
X12150658Y-16388460D01*
X12150658Y-16388460D02*
X12131610Y-16397984D01*
X12131610Y-16397984D02*
X12112562Y-16397984D01*
X12112562Y-16397984D02*
X12093515Y-16388460D01*
X12093515Y-16388460D02*
X12083991Y-16378936D01*
X12083991Y-16378936D02*
X12074467Y-16359888D01*
X12074467Y-16359888D02*
X12064943Y-16321793D01*
X12064943Y-16321793D02*
X12064943Y-16274174D01*
X12064943Y-16274174D02*
X12074467Y-16236079D01*
X12074467Y-16236079D02*
X12083991Y-16217031D01*
X12083991Y-16217031D02*
X12093515Y-16207508D01*
X12093515Y-16207508D02*
X12112562Y-16197984D01*
X12303039Y-16197984D02*
X12322086Y-16197984D01*
X12322086Y-16197984D02*
X12341134Y-16207508D01*
X12341134Y-16207508D02*
X12350658Y-16217031D01*
X12350658Y-16217031D02*
X12360182Y-16236079D01*
X12360182Y-16236079D02*
X12369705Y-16274174D01*
X12369705Y-16274174D02*
X12369705Y-16321793D01*
X12369705Y-16321793D02*
X12360182Y-16359888D01*
X12360182Y-16359888D02*
X12350658Y-16378936D01*
X12350658Y-16378936D02*
X12341134Y-16388460D01*
X12341134Y-16388460D02*
X12322086Y-16397984D01*
X12322086Y-16397984D02*
X12303039Y-16397984D01*
X12303039Y-16397984D02*
X12283991Y-16388460D01*
X12283991Y-16388460D02*
X12274467Y-16378936D01*
X12274467Y-16378936D02*
X12264943Y-16359888D01*
X12264943Y-16359888D02*
X12255420Y-16321793D01*
X12255420Y-16321793D02*
X12255420Y-16274174D01*
X12255420Y-16274174D02*
X12264943Y-16236079D01*
X12264943Y-16236079D02*
X12274467Y-16217031D01*
X12274467Y-16217031D02*
X12283991Y-16207508D01*
X12283991Y-16207508D02*
X12303039Y-16197984D01*
X12455420Y-16397984D02*
X12455420Y-16264650D01*
X12455420Y-16283698D02*
X12464943Y-16274174D01*
X12464943Y-16274174D02*
X12483991Y-16264650D01*
X12483991Y-16264650D02*
X12512563Y-16264650D01*
X12512563Y-16264650D02*
X12531610Y-16274174D01*
X12531610Y-16274174D02*
X12541134Y-16293222D01*
X12541134Y-16293222D02*
X12541134Y-16397984D01*
X12541134Y-16293222D02*
X12550658Y-16274174D01*
X12550658Y-16274174D02*
X12569705Y-16264650D01*
X12569705Y-16264650D02*
X12598277Y-16264650D01*
X12598277Y-16264650D02*
X12617324Y-16274174D01*
X12617324Y-16274174D02*
X12626848Y-16293222D01*
X12626848Y-16293222D02*
X12626848Y-16397984D01*
X12722086Y-16397984D02*
X12722086Y-16264650D01*
X12722086Y-16283698D02*
X12731610Y-16274174D01*
X12731610Y-16274174D02*
X12750658Y-16264650D01*
X12750658Y-16264650D02*
X12779229Y-16264650D01*
X12779229Y-16264650D02*
X12798277Y-16274174D01*
X12798277Y-16274174D02*
X12807801Y-16293222D01*
X12807801Y-16293222D02*
X12807801Y-16397984D01*
X12807801Y-16293222D02*
X12817324Y-16274174D01*
X12817324Y-16274174D02*
X12836372Y-16264650D01*
X12836372Y-16264650D02*
X12864943Y-16264650D01*
X12864943Y-16264650D02*
X12883991Y-16274174D01*
X12883991Y-16274174D02*
X12893515Y-16293222D01*
X12893515Y-16293222D02*
X12893515Y-16397984D01*
X13283991Y-16188460D02*
X13112563Y-16445603D01*
X13541134Y-16197984D02*
X13560182Y-16197984D01*
X13560182Y-16197984D02*
X13579229Y-16207508D01*
X13579229Y-16207508D02*
X13588753Y-16217031D01*
X13588753Y-16217031D02*
X13598277Y-16236079D01*
X13598277Y-16236079D02*
X13607801Y-16274174D01*
X13607801Y-16274174D02*
X13607801Y-16321793D01*
X13607801Y-16321793D02*
X13598277Y-16359888D01*
X13598277Y-16359888D02*
X13588753Y-16378936D01*
X13588753Y-16378936D02*
X13579229Y-16388460D01*
X13579229Y-16388460D02*
X13560182Y-16397984D01*
X13560182Y-16397984D02*
X13541134Y-16397984D01*
X13541134Y-16397984D02*
X13522086Y-16388460D01*
X13522086Y-16388460D02*
X13512563Y-16378936D01*
X13512563Y-16378936D02*
X13503039Y-16359888D01*
X13503039Y-16359888D02*
X13493515Y-16321793D01*
X13493515Y-16321793D02*
X13493515Y-16274174D01*
X13493515Y-16274174D02*
X13503039Y-16236079D01*
X13503039Y-16236079D02*
X13512563Y-16217031D01*
X13512563Y-16217031D02*
X13522086Y-16207508D01*
X13522086Y-16207508D02*
X13541134Y-16197984D01*
X13693515Y-16378936D02*
X13703039Y-16388460D01*
X13703039Y-16388460D02*
X13693515Y-16397984D01*
X13693515Y-16397984D02*
X13683991Y-16388460D01*
X13683991Y-16388460D02*
X13693515Y-16378936D01*
X13693515Y-16378936D02*
X13693515Y-16397984D01*
X13826848Y-16197984D02*
X13845896Y-16197984D01*
X13845896Y-16197984D02*
X13864944Y-16207508D01*
X13864944Y-16207508D02*
X13874467Y-16217031D01*
X13874467Y-16217031D02*
X13883991Y-16236079D01*
X13883991Y-16236079D02*
X13893515Y-16274174D01*
X13893515Y-16274174D02*
X13893515Y-16321793D01*
X13893515Y-16321793D02*
X13883991Y-16359888D01*
X13883991Y-16359888D02*
X13874467Y-16378936D01*
X13874467Y-16378936D02*
X13864944Y-16388460D01*
X13864944Y-16388460D02*
X13845896Y-16397984D01*
X13845896Y-16397984D02*
X13826848Y-16397984D01*
X13826848Y-16397984D02*
X13807801Y-16388460D01*
X13807801Y-16388460D02*
X13798277Y-16378936D01*
X13798277Y-16378936D02*
X13788753Y-16359888D01*
X13788753Y-16359888D02*
X13779229Y-16321793D01*
X13779229Y-16321793D02*
X13779229Y-16274174D01*
X13779229Y-16274174D02*
X13788753Y-16236079D01*
X13788753Y-16236079D02*
X13798277Y-16217031D01*
X13798277Y-16217031D02*
X13807801Y-16207508D01*
X13807801Y-16207508D02*
X13826848Y-16197984D01*
X13960182Y-16197984D02*
X14093515Y-16197984D01*
X14093515Y-16197984D02*
X14007801Y-16397984D01*
X14207801Y-16197984D02*
X14226848Y-16197984D01*
X14226848Y-16197984D02*
X14245896Y-16207508D01*
X14245896Y-16207508D02*
X14255420Y-16217031D01*
X14255420Y-16217031D02*
X14264944Y-16236079D01*
X14264944Y-16236079D02*
X14274467Y-16274174D01*
X14274467Y-16274174D02*
X14274467Y-16321793D01*
X14274467Y-16321793D02*
X14264944Y-16359888D01*
X14264944Y-16359888D02*
X14255420Y-16378936D01*
X14255420Y-16378936D02*
X14245896Y-16388460D01*
X14245896Y-16388460D02*
X14226848Y-16397984D01*
X14226848Y-16397984D02*
X14207801Y-16397984D01*
X14207801Y-16397984D02*
X14188753Y-16388460D01*
X14188753Y-16388460D02*
X14179229Y-16378936D01*
X14179229Y-16378936D02*
X14169706Y-16359888D01*
X14169706Y-16359888D02*
X14160182Y-16321793D01*
X14160182Y-16321793D02*
X14160182Y-16274174D01*
X14160182Y-16274174D02*
X14169706Y-16236079D01*
X14169706Y-16236079D02*
X14179229Y-16217031D01*
X14179229Y-16217031D02*
X14188753Y-16207508D01*
X14188753Y-16207508D02*
X14207801Y-16197984D01*
X14369706Y-16397984D02*
X14407801Y-16397984D01*
X14407801Y-16397984D02*
X14426848Y-16388460D01*
X14426848Y-16388460D02*
X14436372Y-16378936D01*
X14436372Y-16378936D02*
X14455420Y-16350365D01*
X14455420Y-16350365D02*
X14464944Y-16312269D01*
X14464944Y-16312269D02*
X14464944Y-16236079D01*
X14464944Y-16236079D02*
X14455420Y-16217031D01*
X14455420Y-16217031D02*
X14445896Y-16207508D01*
X14445896Y-16207508D02*
X14426848Y-16197984D01*
X14426848Y-16197984D02*
X14388753Y-16197984D01*
X14388753Y-16197984D02*
X14369706Y-16207508D01*
X14369706Y-16207508D02*
X14360182Y-16217031D01*
X14360182Y-16217031D02*
X14350658Y-16236079D01*
X14350658Y-16236079D02*
X14350658Y-16283698D01*
X14350658Y-16283698D02*
X14360182Y-16302746D01*
X14360182Y-16302746D02*
X14369706Y-16312269D01*
X14369706Y-16312269D02*
X14388753Y-16321793D01*
X14388753Y-16321793D02*
X14426848Y-16321793D01*
X14426848Y-16321793D02*
X14445896Y-16312269D01*
X14445896Y-16312269D02*
X14455420Y-16302746D01*
X14455420Y-16302746D02*
X14464944Y-16283698D01*
X14541134Y-16197984D02*
X14541134Y-16236079D01*
X14617325Y-16197984D02*
X14617325Y-16236079D01*
X14912563Y-16474174D02*
X14903039Y-16464650D01*
X14903039Y-16464650D02*
X14883991Y-16436079D01*
X14883991Y-16436079D02*
X14874468Y-16417031D01*
X14874468Y-16417031D02*
X14864944Y-16388460D01*
X14864944Y-16388460D02*
X14855420Y-16340841D01*
X14855420Y-16340841D02*
X14855420Y-16302746D01*
X14855420Y-16302746D02*
X14864944Y-16255127D01*
X14864944Y-16255127D02*
X14874468Y-16226555D01*
X14874468Y-16226555D02*
X14883991Y-16207508D01*
X14883991Y-16207508D02*
X14903039Y-16178936D01*
X14903039Y-16178936D02*
X14912563Y-16169412D01*
X14979229Y-16217031D02*
X14988753Y-16207508D01*
X14988753Y-16207508D02*
X15007801Y-16197984D01*
X15007801Y-16197984D02*
X15055420Y-16197984D01*
X15055420Y-16197984D02*
X15074468Y-16207508D01*
X15074468Y-16207508D02*
X15083991Y-16217031D01*
X15083991Y-16217031D02*
X15093515Y-16236079D01*
X15093515Y-16236079D02*
X15093515Y-16255127D01*
X15093515Y-16255127D02*
X15083991Y-16283698D01*
X15083991Y-16283698D02*
X14969706Y-16397984D01*
X14969706Y-16397984D02*
X15093515Y-16397984D01*
X15331610Y-16397984D02*
X15331610Y-16197984D01*
X15417325Y-16397984D02*
X15417325Y-16293222D01*
X15417325Y-16293222D02*
X15407801Y-16274174D01*
X15407801Y-16274174D02*
X15388753Y-16264650D01*
X15388753Y-16264650D02*
X15360182Y-16264650D01*
X15360182Y-16264650D02*
X15341134Y-16274174D01*
X15341134Y-16274174D02*
X15331610Y-16283698D01*
X15541134Y-16397984D02*
X15522087Y-16388460D01*
X15522087Y-16388460D02*
X15512563Y-16378936D01*
X15512563Y-16378936D02*
X15503039Y-16359888D01*
X15503039Y-16359888D02*
X15503039Y-16302746D01*
X15503039Y-16302746D02*
X15512563Y-16283698D01*
X15512563Y-16283698D02*
X15522087Y-16274174D01*
X15522087Y-16274174D02*
X15541134Y-16264650D01*
X15541134Y-16264650D02*
X15569706Y-16264650D01*
X15569706Y-16264650D02*
X15588753Y-16274174D01*
X15588753Y-16274174D02*
X15598277Y-16283698D01*
X15598277Y-16283698D02*
X15607801Y-16302746D01*
X15607801Y-16302746D02*
X15607801Y-16359888D01*
X15607801Y-16359888D02*
X15598277Y-16378936D01*
X15598277Y-16378936D02*
X15588753Y-16388460D01*
X15588753Y-16388460D02*
X15569706Y-16397984D01*
X15569706Y-16397984D02*
X15541134Y-16397984D01*
X15722087Y-16397984D02*
X15703039Y-16388460D01*
X15703039Y-16388460D02*
X15693515Y-16369412D01*
X15693515Y-16369412D02*
X15693515Y-16197984D01*
X15874468Y-16388460D02*
X15855420Y-16397984D01*
X15855420Y-16397984D02*
X15817325Y-16397984D01*
X15817325Y-16397984D02*
X15798277Y-16388460D01*
X15798277Y-16388460D02*
X15788753Y-16369412D01*
X15788753Y-16369412D02*
X15788753Y-16293222D01*
X15788753Y-16293222D02*
X15798277Y-16274174D01*
X15798277Y-16274174D02*
X15817325Y-16264650D01*
X15817325Y-16264650D02*
X15855420Y-16264650D01*
X15855420Y-16264650D02*
X15874468Y-16274174D01*
X15874468Y-16274174D02*
X15883991Y-16293222D01*
X15883991Y-16293222D02*
X15883991Y-16312269D01*
X15883991Y-16312269D02*
X15788753Y-16331317D01*
X15960182Y-16388460D02*
X15979230Y-16397984D01*
X15979230Y-16397984D02*
X16017325Y-16397984D01*
X16017325Y-16397984D02*
X16036372Y-16388460D01*
X16036372Y-16388460D02*
X16045896Y-16369412D01*
X16045896Y-16369412D02*
X16045896Y-16359888D01*
X16045896Y-16359888D02*
X16036372Y-16340841D01*
X16036372Y-16340841D02*
X16017325Y-16331317D01*
X16017325Y-16331317D02*
X15988753Y-16331317D01*
X15988753Y-16331317D02*
X15969706Y-16321793D01*
X15969706Y-16321793D02*
X15960182Y-16302746D01*
X15960182Y-16302746D02*
X15960182Y-16293222D01*
X15960182Y-16293222D02*
X15969706Y-16274174D01*
X15969706Y-16274174D02*
X15988753Y-16264650D01*
X15988753Y-16264650D02*
X16017325Y-16264650D01*
X16017325Y-16264650D02*
X16036372Y-16274174D01*
X16112563Y-16474174D02*
X16122087Y-16464650D01*
X16122087Y-16464650D02*
X16141134Y-16436079D01*
X16141134Y-16436079D02*
X16150658Y-16417031D01*
X16150658Y-16417031D02*
X16160182Y-16388460D01*
X16160182Y-16388460D02*
X16169706Y-16340841D01*
X16169706Y-16340841D02*
X16169706Y-16302746D01*
X16169706Y-16302746D02*
X16160182Y-16255127D01*
X16160182Y-16255127D02*
X16150658Y-16226555D01*
X16150658Y-16226555D02*
X16141134Y-16207508D01*
X16141134Y-16207508D02*
X16122087Y-16178936D01*
X16122087Y-16178936D02*
X16112563Y-16169412D01*
X16474468Y-16474174D02*
X16464944Y-16464650D01*
X16464944Y-16464650D02*
X16445896Y-16436079D01*
X16445896Y-16436079D02*
X16436372Y-16417031D01*
X16436372Y-16417031D02*
X16426849Y-16388460D01*
X16426849Y-16388460D02*
X16417325Y-16340841D01*
X16417325Y-16340841D02*
X16417325Y-16302746D01*
X16417325Y-16302746D02*
X16426849Y-16255127D01*
X16426849Y-16255127D02*
X16436372Y-16226555D01*
X16436372Y-16226555D02*
X16445896Y-16207508D01*
X16445896Y-16207508D02*
X16464944Y-16178936D01*
X16464944Y-16178936D02*
X16474468Y-16169412D01*
X16550658Y-16264650D02*
X16550658Y-16397984D01*
X16550658Y-16283698D02*
X16560182Y-16274174D01*
X16560182Y-16274174D02*
X16579230Y-16264650D01*
X16579230Y-16264650D02*
X16607801Y-16264650D01*
X16607801Y-16264650D02*
X16626849Y-16274174D01*
X16626849Y-16274174D02*
X16636372Y-16293222D01*
X16636372Y-16293222D02*
X16636372Y-16397984D01*
X16760182Y-16397984D02*
X16741134Y-16388460D01*
X16741134Y-16388460D02*
X16731611Y-16378936D01*
X16731611Y-16378936D02*
X16722087Y-16359888D01*
X16722087Y-16359888D02*
X16722087Y-16302746D01*
X16722087Y-16302746D02*
X16731611Y-16283698D01*
X16731611Y-16283698D02*
X16741134Y-16274174D01*
X16741134Y-16274174D02*
X16760182Y-16264650D01*
X16760182Y-16264650D02*
X16788754Y-16264650D01*
X16788754Y-16264650D02*
X16807801Y-16274174D01*
X16807801Y-16274174D02*
X16817325Y-16283698D01*
X16817325Y-16283698D02*
X16826849Y-16302746D01*
X16826849Y-16302746D02*
X16826849Y-16359888D01*
X16826849Y-16359888D02*
X16817325Y-16378936D01*
X16817325Y-16378936D02*
X16807801Y-16388460D01*
X16807801Y-16388460D02*
X16788754Y-16397984D01*
X16788754Y-16397984D02*
X16760182Y-16397984D01*
X16883992Y-16264650D02*
X16960182Y-16264650D01*
X16912563Y-16197984D02*
X16912563Y-16369412D01*
X16912563Y-16369412D02*
X16922087Y-16388460D01*
X16922087Y-16388460D02*
X16941134Y-16397984D01*
X16941134Y-16397984D02*
X16960182Y-16397984D01*
X17179230Y-16264650D02*
X17179230Y-16464650D01*
X17179230Y-16274174D02*
X17198277Y-16264650D01*
X17198277Y-16264650D02*
X17236373Y-16264650D01*
X17236373Y-16264650D02*
X17255420Y-16274174D01*
X17255420Y-16274174D02*
X17264944Y-16283698D01*
X17264944Y-16283698D02*
X17274468Y-16302746D01*
X17274468Y-16302746D02*
X17274468Y-16359888D01*
X17274468Y-16359888D02*
X17264944Y-16378936D01*
X17264944Y-16378936D02*
X17255420Y-16388460D01*
X17255420Y-16388460D02*
X17236373Y-16397984D01*
X17236373Y-16397984D02*
X17198277Y-16397984D01*
X17198277Y-16397984D02*
X17179230Y-16388460D01*
X17388754Y-16397984D02*
X17369706Y-16388460D01*
X17369706Y-16388460D02*
X17360182Y-16369412D01*
X17360182Y-16369412D02*
X17360182Y-16197984D01*
X17550658Y-16397984D02*
X17550658Y-16293222D01*
X17550658Y-16293222D02*
X17541135Y-16274174D01*
X17541135Y-16274174D02*
X17522087Y-16264650D01*
X17522087Y-16264650D02*
X17483992Y-16264650D01*
X17483992Y-16264650D02*
X17464944Y-16274174D01*
X17550658Y-16388460D02*
X17531611Y-16397984D01*
X17531611Y-16397984D02*
X17483992Y-16397984D01*
X17483992Y-16397984D02*
X17464944Y-16388460D01*
X17464944Y-16388460D02*
X17455420Y-16369412D01*
X17455420Y-16369412D02*
X17455420Y-16350365D01*
X17455420Y-16350365D02*
X17464944Y-16331317D01*
X17464944Y-16331317D02*
X17483992Y-16321793D01*
X17483992Y-16321793D02*
X17531611Y-16321793D01*
X17531611Y-16321793D02*
X17550658Y-16312269D01*
X17617325Y-16264650D02*
X17693515Y-16264650D01*
X17645896Y-16197984D02*
X17645896Y-16369412D01*
X17645896Y-16369412D02*
X17655420Y-16388460D01*
X17655420Y-16388460D02*
X17674468Y-16397984D01*
X17674468Y-16397984D02*
X17693515Y-16397984D01*
X17836373Y-16388460D02*
X17817325Y-16397984D01*
X17817325Y-16397984D02*
X17779230Y-16397984D01*
X17779230Y-16397984D02*
X17760182Y-16388460D01*
X17760182Y-16388460D02*
X17750658Y-16369412D01*
X17750658Y-16369412D02*
X17750658Y-16293222D01*
X17750658Y-16293222D02*
X17760182Y-16274174D01*
X17760182Y-16274174D02*
X17779230Y-16264650D01*
X17779230Y-16264650D02*
X17817325Y-16264650D01*
X17817325Y-16264650D02*
X17836373Y-16274174D01*
X17836373Y-16274174D02*
X17845896Y-16293222D01*
X17845896Y-16293222D02*
X17845896Y-16312269D01*
X17845896Y-16312269D02*
X17750658Y-16331317D01*
X18017325Y-16397984D02*
X18017325Y-16197984D01*
X18017325Y-16388460D02*
X17998277Y-16397984D01*
X17998277Y-16397984D02*
X17960182Y-16397984D01*
X17960182Y-16397984D02*
X17941135Y-16388460D01*
X17941135Y-16388460D02*
X17931611Y-16378936D01*
X17931611Y-16378936D02*
X17922087Y-16359888D01*
X17922087Y-16359888D02*
X17922087Y-16302746D01*
X17922087Y-16302746D02*
X17931611Y-16283698D01*
X17931611Y-16283698D02*
X17941135Y-16274174D01*
X17941135Y-16274174D02*
X17960182Y-16264650D01*
X17960182Y-16264650D02*
X17998277Y-16264650D01*
X17998277Y-16264650D02*
X18017325Y-16274174D01*
X18093516Y-16474174D02*
X18103039Y-16464650D01*
X18103039Y-16464650D02*
X18122087Y-16436079D01*
X18122087Y-16436079D02*
X18131611Y-16417031D01*
X18131611Y-16417031D02*
X18141135Y-16388460D01*
X18141135Y-16388460D02*
X18150658Y-16340841D01*
X18150658Y-16340841D02*
X18150658Y-16302746D01*
X18150658Y-16302746D02*
X18141135Y-16255127D01*
X18141135Y-16255127D02*
X18131611Y-16226555D01*
X18131611Y-16226555D02*
X18122087Y-16207508D01*
X18122087Y-16207508D02*
X18103039Y-16178936D01*
X18103039Y-16178936D02*
X18093516Y-16169412D01*
X11237500Y-16506500D02*
X11237500Y-16706500D01*
X11137500Y-16606500D02*
X11337500Y-16606500D01*
X11579229Y-16497984D02*
X11703039Y-16497984D01*
X11703039Y-16497984D02*
X11636372Y-16574174D01*
X11636372Y-16574174D02*
X11664943Y-16574174D01*
X11664943Y-16574174D02*
X11683991Y-16583698D01*
X11683991Y-16583698D02*
X11693515Y-16593222D01*
X11693515Y-16593222D02*
X11703039Y-16612269D01*
X11703039Y-16612269D02*
X11703039Y-16659888D01*
X11703039Y-16659888D02*
X11693515Y-16678936D01*
X11693515Y-16678936D02*
X11683991Y-16688460D01*
X11683991Y-16688460D02*
X11664943Y-16697984D01*
X11664943Y-16697984D02*
X11607801Y-16697984D01*
X11607801Y-16697984D02*
X11588753Y-16688460D01*
X11588753Y-16688460D02*
X11579229Y-16678936D01*
X11788753Y-16678936D02*
X11798277Y-16688460D01*
X11798277Y-16688460D02*
X11788753Y-16697984D01*
X11788753Y-16697984D02*
X11779229Y-16688460D01*
X11779229Y-16688460D02*
X11788753Y-16678936D01*
X11788753Y-16678936D02*
X11788753Y-16697984D01*
X11922086Y-16497984D02*
X11941134Y-16497984D01*
X11941134Y-16497984D02*
X11960182Y-16507508D01*
X11960182Y-16507508D02*
X11969705Y-16517031D01*
X11969705Y-16517031D02*
X11979229Y-16536079D01*
X11979229Y-16536079D02*
X11988753Y-16574174D01*
X11988753Y-16574174D02*
X11988753Y-16621793D01*
X11988753Y-16621793D02*
X11979229Y-16659888D01*
X11979229Y-16659888D02*
X11969705Y-16678936D01*
X11969705Y-16678936D02*
X11960182Y-16688460D01*
X11960182Y-16688460D02*
X11941134Y-16697984D01*
X11941134Y-16697984D02*
X11922086Y-16697984D01*
X11922086Y-16697984D02*
X11903039Y-16688460D01*
X11903039Y-16688460D02*
X11893515Y-16678936D01*
X11893515Y-16678936D02*
X11883991Y-16659888D01*
X11883991Y-16659888D02*
X11874467Y-16621793D01*
X11874467Y-16621793D02*
X11874467Y-16574174D01*
X11874467Y-16574174D02*
X11883991Y-16536079D01*
X11883991Y-16536079D02*
X11893515Y-16517031D01*
X11893515Y-16517031D02*
X11903039Y-16507508D01*
X11903039Y-16507508D02*
X11922086Y-16497984D01*
X12112562Y-16497984D02*
X12131610Y-16497984D01*
X12131610Y-16497984D02*
X12150658Y-16507508D01*
X12150658Y-16507508D02*
X12160182Y-16517031D01*
X12160182Y-16517031D02*
X12169705Y-16536079D01*
X12169705Y-16536079D02*
X12179229Y-16574174D01*
X12179229Y-16574174D02*
X12179229Y-16621793D01*
X12179229Y-16621793D02*
X12169705Y-16659888D01*
X12169705Y-16659888D02*
X12160182Y-16678936D01*
X12160182Y-16678936D02*
X12150658Y-16688460D01*
X12150658Y-16688460D02*
X12131610Y-16697984D01*
X12131610Y-16697984D02*
X12112562Y-16697984D01*
X12112562Y-16697984D02*
X12093515Y-16688460D01*
X12093515Y-16688460D02*
X12083991Y-16678936D01*
X12083991Y-16678936D02*
X12074467Y-16659888D01*
X12074467Y-16659888D02*
X12064943Y-16621793D01*
X12064943Y-16621793D02*
X12064943Y-16574174D01*
X12064943Y-16574174D02*
X12074467Y-16536079D01*
X12074467Y-16536079D02*
X12083991Y-16517031D01*
X12083991Y-16517031D02*
X12093515Y-16507508D01*
X12093515Y-16507508D02*
X12112562Y-16497984D01*
X12303039Y-16497984D02*
X12322086Y-16497984D01*
X12322086Y-16497984D02*
X12341134Y-16507508D01*
X12341134Y-16507508D02*
X12350658Y-16517031D01*
X12350658Y-16517031D02*
X12360182Y-16536079D01*
X12360182Y-16536079D02*
X12369705Y-16574174D01*
X12369705Y-16574174D02*
X12369705Y-16621793D01*
X12369705Y-16621793D02*
X12360182Y-16659888D01*
X12360182Y-16659888D02*
X12350658Y-16678936D01*
X12350658Y-16678936D02*
X12341134Y-16688460D01*
X12341134Y-16688460D02*
X12322086Y-16697984D01*
X12322086Y-16697984D02*
X12303039Y-16697984D01*
X12303039Y-16697984D02*
X12283991Y-16688460D01*
X12283991Y-16688460D02*
X12274467Y-16678936D01*
X12274467Y-16678936D02*
X12264943Y-16659888D01*
X12264943Y-16659888D02*
X12255420Y-16621793D01*
X12255420Y-16621793D02*
X12255420Y-16574174D01*
X12255420Y-16574174D02*
X12264943Y-16536079D01*
X12264943Y-16536079D02*
X12274467Y-16517031D01*
X12274467Y-16517031D02*
X12283991Y-16507508D01*
X12283991Y-16507508D02*
X12303039Y-16497984D01*
X12455420Y-16697984D02*
X12455420Y-16564650D01*
X12455420Y-16583698D02*
X12464943Y-16574174D01*
X12464943Y-16574174D02*
X12483991Y-16564650D01*
X12483991Y-16564650D02*
X12512563Y-16564650D01*
X12512563Y-16564650D02*
X12531610Y-16574174D01*
X12531610Y-16574174D02*
X12541134Y-16593222D01*
X12541134Y-16593222D02*
X12541134Y-16697984D01*
X12541134Y-16593222D02*
X12550658Y-16574174D01*
X12550658Y-16574174D02*
X12569705Y-16564650D01*
X12569705Y-16564650D02*
X12598277Y-16564650D01*
X12598277Y-16564650D02*
X12617324Y-16574174D01*
X12617324Y-16574174D02*
X12626848Y-16593222D01*
X12626848Y-16593222D02*
X12626848Y-16697984D01*
X12722086Y-16697984D02*
X12722086Y-16564650D01*
X12722086Y-16583698D02*
X12731610Y-16574174D01*
X12731610Y-16574174D02*
X12750658Y-16564650D01*
X12750658Y-16564650D02*
X12779229Y-16564650D01*
X12779229Y-16564650D02*
X12798277Y-16574174D01*
X12798277Y-16574174D02*
X12807801Y-16593222D01*
X12807801Y-16593222D02*
X12807801Y-16697984D01*
X12807801Y-16593222D02*
X12817324Y-16574174D01*
X12817324Y-16574174D02*
X12836372Y-16564650D01*
X12836372Y-16564650D02*
X12864943Y-16564650D01*
X12864943Y-16564650D02*
X12883991Y-16574174D01*
X12883991Y-16574174D02*
X12893515Y-16593222D01*
X12893515Y-16593222D02*
X12893515Y-16697984D01*
X13283991Y-16488460D02*
X13112563Y-16745603D01*
X13541134Y-16497984D02*
X13560182Y-16497984D01*
X13560182Y-16497984D02*
X13579229Y-16507508D01*
X13579229Y-16507508D02*
X13588753Y-16517031D01*
X13588753Y-16517031D02*
X13598277Y-16536079D01*
X13598277Y-16536079D02*
X13607801Y-16574174D01*
X13607801Y-16574174D02*
X13607801Y-16621793D01*
X13607801Y-16621793D02*
X13598277Y-16659888D01*
X13598277Y-16659888D02*
X13588753Y-16678936D01*
X13588753Y-16678936D02*
X13579229Y-16688460D01*
X13579229Y-16688460D02*
X13560182Y-16697984D01*
X13560182Y-16697984D02*
X13541134Y-16697984D01*
X13541134Y-16697984D02*
X13522086Y-16688460D01*
X13522086Y-16688460D02*
X13512563Y-16678936D01*
X13512563Y-16678936D02*
X13503039Y-16659888D01*
X13503039Y-16659888D02*
X13493515Y-16621793D01*
X13493515Y-16621793D02*
X13493515Y-16574174D01*
X13493515Y-16574174D02*
X13503039Y-16536079D01*
X13503039Y-16536079D02*
X13512563Y-16517031D01*
X13512563Y-16517031D02*
X13522086Y-16507508D01*
X13522086Y-16507508D02*
X13541134Y-16497984D01*
X13693515Y-16678936D02*
X13703039Y-16688460D01*
X13703039Y-16688460D02*
X13693515Y-16697984D01*
X13693515Y-16697984D02*
X13683991Y-16688460D01*
X13683991Y-16688460D02*
X13693515Y-16678936D01*
X13693515Y-16678936D02*
X13693515Y-16697984D01*
X13893515Y-16697984D02*
X13779229Y-16697984D01*
X13836372Y-16697984D02*
X13836372Y-16497984D01*
X13836372Y-16497984D02*
X13817325Y-16526555D01*
X13817325Y-16526555D02*
X13798277Y-16545603D01*
X13798277Y-16545603D02*
X13779229Y-16555127D01*
X14083991Y-16697984D02*
X13969706Y-16697984D01*
X14026848Y-16697984D02*
X14026848Y-16497984D01*
X14026848Y-16497984D02*
X14007801Y-16526555D01*
X14007801Y-16526555D02*
X13988753Y-16545603D01*
X13988753Y-16545603D02*
X13969706Y-16555127D01*
X14198277Y-16583698D02*
X14179229Y-16574174D01*
X14179229Y-16574174D02*
X14169706Y-16564650D01*
X14169706Y-16564650D02*
X14160182Y-16545603D01*
X14160182Y-16545603D02*
X14160182Y-16536079D01*
X14160182Y-16536079D02*
X14169706Y-16517031D01*
X14169706Y-16517031D02*
X14179229Y-16507508D01*
X14179229Y-16507508D02*
X14198277Y-16497984D01*
X14198277Y-16497984D02*
X14236372Y-16497984D01*
X14236372Y-16497984D02*
X14255420Y-16507508D01*
X14255420Y-16507508D02*
X14264944Y-16517031D01*
X14264944Y-16517031D02*
X14274467Y-16536079D01*
X14274467Y-16536079D02*
X14274467Y-16545603D01*
X14274467Y-16545603D02*
X14264944Y-16564650D01*
X14264944Y-16564650D02*
X14255420Y-16574174D01*
X14255420Y-16574174D02*
X14236372Y-16583698D01*
X14236372Y-16583698D02*
X14198277Y-16583698D01*
X14198277Y-16583698D02*
X14179229Y-16593222D01*
X14179229Y-16593222D02*
X14169706Y-16602746D01*
X14169706Y-16602746D02*
X14160182Y-16621793D01*
X14160182Y-16621793D02*
X14160182Y-16659888D01*
X14160182Y-16659888D02*
X14169706Y-16678936D01*
X14169706Y-16678936D02*
X14179229Y-16688460D01*
X14179229Y-16688460D02*
X14198277Y-16697984D01*
X14198277Y-16697984D02*
X14236372Y-16697984D01*
X14236372Y-16697984D02*
X14255420Y-16688460D01*
X14255420Y-16688460D02*
X14264944Y-16678936D01*
X14264944Y-16678936D02*
X14274467Y-16659888D01*
X14274467Y-16659888D02*
X14274467Y-16621793D01*
X14274467Y-16621793D02*
X14264944Y-16602746D01*
X14264944Y-16602746D02*
X14255420Y-16593222D01*
X14255420Y-16593222D02*
X14236372Y-16583698D01*
X14464944Y-16697984D02*
X14350658Y-16697984D01*
X14407801Y-16697984D02*
X14407801Y-16497984D01*
X14407801Y-16497984D02*
X14388753Y-16526555D01*
X14388753Y-16526555D02*
X14369706Y-16545603D01*
X14369706Y-16545603D02*
X14350658Y-16555127D01*
X14541134Y-16497984D02*
X14541134Y-16536079D01*
X14617325Y-16497984D02*
X14617325Y-16536079D01*
X14912563Y-16774174D02*
X14903039Y-16764650D01*
X14903039Y-16764650D02*
X14883991Y-16736079D01*
X14883991Y-16736079D02*
X14874468Y-16717031D01*
X14874468Y-16717031D02*
X14864944Y-16688460D01*
X14864944Y-16688460D02*
X14855420Y-16640841D01*
X14855420Y-16640841D02*
X14855420Y-16602746D01*
X14855420Y-16602746D02*
X14864944Y-16555127D01*
X14864944Y-16555127D02*
X14874468Y-16526555D01*
X14874468Y-16526555D02*
X14883991Y-16507508D01*
X14883991Y-16507508D02*
X14903039Y-16478936D01*
X14903039Y-16478936D02*
X14912563Y-16469412D01*
X15074468Y-16564650D02*
X15074468Y-16697984D01*
X15026848Y-16488460D02*
X14979229Y-16631317D01*
X14979229Y-16631317D02*
X15103039Y-16631317D01*
X15331610Y-16697984D02*
X15331610Y-16497984D01*
X15417325Y-16697984D02*
X15417325Y-16593222D01*
X15417325Y-16593222D02*
X15407801Y-16574174D01*
X15407801Y-16574174D02*
X15388753Y-16564650D01*
X15388753Y-16564650D02*
X15360182Y-16564650D01*
X15360182Y-16564650D02*
X15341134Y-16574174D01*
X15341134Y-16574174D02*
X15331610Y-16583698D01*
X15541134Y-16697984D02*
X15522087Y-16688460D01*
X15522087Y-16688460D02*
X15512563Y-16678936D01*
X15512563Y-16678936D02*
X15503039Y-16659888D01*
X15503039Y-16659888D02*
X15503039Y-16602746D01*
X15503039Y-16602746D02*
X15512563Y-16583698D01*
X15512563Y-16583698D02*
X15522087Y-16574174D01*
X15522087Y-16574174D02*
X15541134Y-16564650D01*
X15541134Y-16564650D02*
X15569706Y-16564650D01*
X15569706Y-16564650D02*
X15588753Y-16574174D01*
X15588753Y-16574174D02*
X15598277Y-16583698D01*
X15598277Y-16583698D02*
X15607801Y-16602746D01*
X15607801Y-16602746D02*
X15607801Y-16659888D01*
X15607801Y-16659888D02*
X15598277Y-16678936D01*
X15598277Y-16678936D02*
X15588753Y-16688460D01*
X15588753Y-16688460D02*
X15569706Y-16697984D01*
X15569706Y-16697984D02*
X15541134Y-16697984D01*
X15722087Y-16697984D02*
X15703039Y-16688460D01*
X15703039Y-16688460D02*
X15693515Y-16669412D01*
X15693515Y-16669412D02*
X15693515Y-16497984D01*
X15874468Y-16688460D02*
X15855420Y-16697984D01*
X15855420Y-16697984D02*
X15817325Y-16697984D01*
X15817325Y-16697984D02*
X15798277Y-16688460D01*
X15798277Y-16688460D02*
X15788753Y-16669412D01*
X15788753Y-16669412D02*
X15788753Y-16593222D01*
X15788753Y-16593222D02*
X15798277Y-16574174D01*
X15798277Y-16574174D02*
X15817325Y-16564650D01*
X15817325Y-16564650D02*
X15855420Y-16564650D01*
X15855420Y-16564650D02*
X15874468Y-16574174D01*
X15874468Y-16574174D02*
X15883991Y-16593222D01*
X15883991Y-16593222D02*
X15883991Y-16612269D01*
X15883991Y-16612269D02*
X15788753Y-16631317D01*
X15960182Y-16688460D02*
X15979230Y-16697984D01*
X15979230Y-16697984D02*
X16017325Y-16697984D01*
X16017325Y-16697984D02*
X16036372Y-16688460D01*
X16036372Y-16688460D02*
X16045896Y-16669412D01*
X16045896Y-16669412D02*
X16045896Y-16659888D01*
X16045896Y-16659888D02*
X16036372Y-16640841D01*
X16036372Y-16640841D02*
X16017325Y-16631317D01*
X16017325Y-16631317D02*
X15988753Y-16631317D01*
X15988753Y-16631317D02*
X15969706Y-16621793D01*
X15969706Y-16621793D02*
X15960182Y-16602746D01*
X15960182Y-16602746D02*
X15960182Y-16593222D01*
X15960182Y-16593222D02*
X15969706Y-16574174D01*
X15969706Y-16574174D02*
X15988753Y-16564650D01*
X15988753Y-16564650D02*
X16017325Y-16564650D01*
X16017325Y-16564650D02*
X16036372Y-16574174D01*
X16112563Y-16774174D02*
X16122087Y-16764650D01*
X16122087Y-16764650D02*
X16141134Y-16736079D01*
X16141134Y-16736079D02*
X16150658Y-16717031D01*
X16150658Y-16717031D02*
X16160182Y-16688460D01*
X16160182Y-16688460D02*
X16169706Y-16640841D01*
X16169706Y-16640841D02*
X16169706Y-16602746D01*
X16169706Y-16602746D02*
X16160182Y-16555127D01*
X16160182Y-16555127D02*
X16150658Y-16526555D01*
X16150658Y-16526555D02*
X16141134Y-16507508D01*
X16141134Y-16507508D02*
X16122087Y-16478936D01*
X16122087Y-16478936D02*
X16112563Y-16469412D01*
X16474468Y-16774174D02*
X16464944Y-16764650D01*
X16464944Y-16764650D02*
X16445896Y-16736079D01*
X16445896Y-16736079D02*
X16436372Y-16717031D01*
X16436372Y-16717031D02*
X16426849Y-16688460D01*
X16426849Y-16688460D02*
X16417325Y-16640841D01*
X16417325Y-16640841D02*
X16417325Y-16602746D01*
X16417325Y-16602746D02*
X16426849Y-16555127D01*
X16426849Y-16555127D02*
X16436372Y-16526555D01*
X16436372Y-16526555D02*
X16445896Y-16507508D01*
X16445896Y-16507508D02*
X16464944Y-16478936D01*
X16464944Y-16478936D02*
X16474468Y-16469412D01*
X16550658Y-16564650D02*
X16550658Y-16697984D01*
X16550658Y-16583698D02*
X16560182Y-16574174D01*
X16560182Y-16574174D02*
X16579230Y-16564650D01*
X16579230Y-16564650D02*
X16607801Y-16564650D01*
X16607801Y-16564650D02*
X16626849Y-16574174D01*
X16626849Y-16574174D02*
X16636372Y-16593222D01*
X16636372Y-16593222D02*
X16636372Y-16697984D01*
X16760182Y-16697984D02*
X16741134Y-16688460D01*
X16741134Y-16688460D02*
X16731611Y-16678936D01*
X16731611Y-16678936D02*
X16722087Y-16659888D01*
X16722087Y-16659888D02*
X16722087Y-16602746D01*
X16722087Y-16602746D02*
X16731611Y-16583698D01*
X16731611Y-16583698D02*
X16741134Y-16574174D01*
X16741134Y-16574174D02*
X16760182Y-16564650D01*
X16760182Y-16564650D02*
X16788754Y-16564650D01*
X16788754Y-16564650D02*
X16807801Y-16574174D01*
X16807801Y-16574174D02*
X16817325Y-16583698D01*
X16817325Y-16583698D02*
X16826849Y-16602746D01*
X16826849Y-16602746D02*
X16826849Y-16659888D01*
X16826849Y-16659888D02*
X16817325Y-16678936D01*
X16817325Y-16678936D02*
X16807801Y-16688460D01*
X16807801Y-16688460D02*
X16788754Y-16697984D01*
X16788754Y-16697984D02*
X16760182Y-16697984D01*
X16883992Y-16564650D02*
X16960182Y-16564650D01*
X16912563Y-16497984D02*
X16912563Y-16669412D01*
X16912563Y-16669412D02*
X16922087Y-16688460D01*
X16922087Y-16688460D02*
X16941134Y-16697984D01*
X16941134Y-16697984D02*
X16960182Y-16697984D01*
X17179230Y-16564650D02*
X17179230Y-16764650D01*
X17179230Y-16574174D02*
X17198277Y-16564650D01*
X17198277Y-16564650D02*
X17236373Y-16564650D01*
X17236373Y-16564650D02*
X17255420Y-16574174D01*
X17255420Y-16574174D02*
X17264944Y-16583698D01*
X17264944Y-16583698D02*
X17274468Y-16602746D01*
X17274468Y-16602746D02*
X17274468Y-16659888D01*
X17274468Y-16659888D02*
X17264944Y-16678936D01*
X17264944Y-16678936D02*
X17255420Y-16688460D01*
X17255420Y-16688460D02*
X17236373Y-16697984D01*
X17236373Y-16697984D02*
X17198277Y-16697984D01*
X17198277Y-16697984D02*
X17179230Y-16688460D01*
X17388754Y-16697984D02*
X17369706Y-16688460D01*
X17369706Y-16688460D02*
X17360182Y-16669412D01*
X17360182Y-16669412D02*
X17360182Y-16497984D01*
X17550658Y-16697984D02*
X17550658Y-16593222D01*
X17550658Y-16593222D02*
X17541135Y-16574174D01*
X17541135Y-16574174D02*
X17522087Y-16564650D01*
X17522087Y-16564650D02*
X17483992Y-16564650D01*
X17483992Y-16564650D02*
X17464944Y-16574174D01*
X17550658Y-16688460D02*
X17531611Y-16697984D01*
X17531611Y-16697984D02*
X17483992Y-16697984D01*
X17483992Y-16697984D02*
X17464944Y-16688460D01*
X17464944Y-16688460D02*
X17455420Y-16669412D01*
X17455420Y-16669412D02*
X17455420Y-16650365D01*
X17455420Y-16650365D02*
X17464944Y-16631317D01*
X17464944Y-16631317D02*
X17483992Y-16621793D01*
X17483992Y-16621793D02*
X17531611Y-16621793D01*
X17531611Y-16621793D02*
X17550658Y-16612269D01*
X17617325Y-16564650D02*
X17693515Y-16564650D01*
X17645896Y-16497984D02*
X17645896Y-16669412D01*
X17645896Y-16669412D02*
X17655420Y-16688460D01*
X17655420Y-16688460D02*
X17674468Y-16697984D01*
X17674468Y-16697984D02*
X17693515Y-16697984D01*
X17836373Y-16688460D02*
X17817325Y-16697984D01*
X17817325Y-16697984D02*
X17779230Y-16697984D01*
X17779230Y-16697984D02*
X17760182Y-16688460D01*
X17760182Y-16688460D02*
X17750658Y-16669412D01*
X17750658Y-16669412D02*
X17750658Y-16593222D01*
X17750658Y-16593222D02*
X17760182Y-16574174D01*
X17760182Y-16574174D02*
X17779230Y-16564650D01*
X17779230Y-16564650D02*
X17817325Y-16564650D01*
X17817325Y-16564650D02*
X17836373Y-16574174D01*
X17836373Y-16574174D02*
X17845896Y-16593222D01*
X17845896Y-16593222D02*
X17845896Y-16612269D01*
X17845896Y-16612269D02*
X17750658Y-16631317D01*
X18017325Y-16697984D02*
X18017325Y-16497984D01*
X18017325Y-16688460D02*
X17998277Y-16697984D01*
X17998277Y-16697984D02*
X17960182Y-16697984D01*
X17960182Y-16697984D02*
X17941135Y-16688460D01*
X17941135Y-16688460D02*
X17931611Y-16678936D01*
X17931611Y-16678936D02*
X17922087Y-16659888D01*
X17922087Y-16659888D02*
X17922087Y-16602746D01*
X17922087Y-16602746D02*
X17931611Y-16583698D01*
X17931611Y-16583698D02*
X17941135Y-16574174D01*
X17941135Y-16574174D02*
X17960182Y-16564650D01*
X17960182Y-16564650D02*
X17998277Y-16564650D01*
X17998277Y-16564650D02*
X18017325Y-16574174D01*
X18093516Y-16774174D02*
X18103039Y-16764650D01*
X18103039Y-16764650D02*
X18122087Y-16736079D01*
X18122087Y-16736079D02*
X18131611Y-16717031D01*
X18131611Y-16717031D02*
X18141135Y-16688460D01*
X18141135Y-16688460D02*
X18150658Y-16640841D01*
X18150658Y-16640841D02*
X18150658Y-16602746D01*
X18150658Y-16602746D02*
X18141135Y-16555127D01*
X18141135Y-16555127D02*
X18131611Y-16526555D01*
X18131611Y-16526555D02*
X18122087Y-16507508D01*
X18122087Y-16507508D02*
X18103039Y-16478936D01*
X18103039Y-16478936D02*
X18093516Y-16469412D01*
M02*
