%TF.GenerationSoftware,KiCad,Pcbnew,8.0.2*%
%TF.CreationDate,2025-08-03T00:44:16+02:00*%
%TF.ProjectId,MarinaWatch,4d617269-6e61-4576-9174-63682e6b6963,rev?*%
%TF.SameCoordinates,Original*%
%TF.FileFunction,Legend,Bot*%
%TF.FilePolarity,Positive*%
%FSLAX46Y46*%
G04 Gerber Fmt 4.6, Leading zero omitted, Abs format (unit mm)*
G04 Created by KiCad (PCBNEW 8.0.2) date 2025-08-03 00:44:16*
%MOMM*%
%LPD*%
G01*
G04 APERTURE LIST*
%ADD10C,0.100000*%
G04 APERTURE END LIST*
D10*
X160261904Y-107066390D02*
X160404761Y-107018771D01*
X160404761Y-107018771D02*
X160452380Y-106971152D01*
X160452380Y-106971152D02*
X160499999Y-106875914D01*
X160499999Y-106875914D02*
X160499999Y-106733057D01*
X160499999Y-106733057D02*
X160452380Y-106637819D01*
X160452380Y-106637819D02*
X160404761Y-106590200D01*
X160404761Y-106590200D02*
X160309523Y-106542580D01*
X160309523Y-106542580D02*
X159928571Y-106542580D01*
X159928571Y-106542580D02*
X159928571Y-107542580D01*
X159928571Y-107542580D02*
X160261904Y-107542580D01*
X160261904Y-107542580D02*
X160357142Y-107494961D01*
X160357142Y-107494961D02*
X160404761Y-107447342D01*
X160404761Y-107447342D02*
X160452380Y-107352104D01*
X160452380Y-107352104D02*
X160452380Y-107256866D01*
X160452380Y-107256866D02*
X160404761Y-107161628D01*
X160404761Y-107161628D02*
X160357142Y-107114009D01*
X160357142Y-107114009D02*
X160261904Y-107066390D01*
X160261904Y-107066390D02*
X159928571Y-107066390D01*
X160785714Y-107542580D02*
X161357142Y-107542580D01*
X161071428Y-106542580D02*
X161071428Y-107542580D01*
X162119047Y-107209247D02*
X162119047Y-106542580D01*
X161880952Y-107590200D02*
X161642857Y-106875914D01*
X161642857Y-106875914D02*
X162261904Y-106875914D01*
X162833333Y-107542580D02*
X162928571Y-107542580D01*
X162928571Y-107542580D02*
X163023809Y-107494961D01*
X163023809Y-107494961D02*
X163071428Y-107447342D01*
X163071428Y-107447342D02*
X163119047Y-107352104D01*
X163119047Y-107352104D02*
X163166666Y-107161628D01*
X163166666Y-107161628D02*
X163166666Y-106923533D01*
X163166666Y-106923533D02*
X163119047Y-106733057D01*
X163119047Y-106733057D02*
X163071428Y-106637819D01*
X163071428Y-106637819D02*
X163023809Y-106590200D01*
X163023809Y-106590200D02*
X162928571Y-106542580D01*
X162928571Y-106542580D02*
X162833333Y-106542580D01*
X162833333Y-106542580D02*
X162738095Y-106590200D01*
X162738095Y-106590200D02*
X162690476Y-106637819D01*
X162690476Y-106637819D02*
X162642857Y-106733057D01*
X162642857Y-106733057D02*
X162595238Y-106923533D01*
X162595238Y-106923533D02*
X162595238Y-107161628D01*
X162595238Y-107161628D02*
X162642857Y-107352104D01*
X162642857Y-107352104D02*
X162690476Y-107447342D01*
X162690476Y-107447342D02*
X162738095Y-107494961D01*
X162738095Y-107494961D02*
X162833333Y-107542580D01*
X163547619Y-107447342D02*
X163595238Y-107494961D01*
X163595238Y-107494961D02*
X163690476Y-107542580D01*
X163690476Y-107542580D02*
X163928571Y-107542580D01*
X163928571Y-107542580D02*
X164023809Y-107494961D01*
X164023809Y-107494961D02*
X164071428Y-107447342D01*
X164071428Y-107447342D02*
X164119047Y-107352104D01*
X164119047Y-107352104D02*
X164119047Y-107256866D01*
X164119047Y-107256866D02*
X164071428Y-107114009D01*
X164071428Y-107114009D02*
X163500000Y-106542580D01*
X163500000Y-106542580D02*
X164119047Y-106542580D01*
%TO.C,BT402*%
X200000000Y-96000000D02*
X124000000Y-96000000D01*
X124000000Y-118000000D01*
X200000000Y-118000000D01*
X200000000Y-96000000D01*
X200000000Y-117000000D02*
X199000000Y-118000000D01*
X189500000Y-97000000D02*
X189500000Y-102000000D01*
X189500000Y-112000000D02*
X189500000Y-117000000D01*
X192000000Y-99500000D02*
X187000000Y-99500000D01*
X192000000Y-114500000D02*
X187000000Y-114500000D01*
X137000000Y-99500000D02*
X132000000Y-99500000D01*
X137000000Y-114500000D02*
X132000000Y-114500000D01*
%TD*%
M02*
