%TF.GenerationSoftware,KiCad,Pcbnew,8.0.2*%
%TF.CreationDate,2025-08-03T00:44:16+02:00*%
%TF.ProjectId,MarinaWatch,4d617269-6e61-4576-9174-63682e6b6963,rev?*%
%TF.SameCoordinates,Original*%
%TF.FileFunction,Profile,NP*%
%FSLAX46Y46*%
G04 Gerber Fmt 4.6, Leading zero omitted, Abs format (unit mm)*
G04 Created by KiCad (PCBNEW 8.0.2) date 2025-08-03 00:44:16*
%MOMM*%
%LPD*%
G01*
G04 APERTURE LIST*
%TA.AperFunction,Profile*%
%ADD10C,0.050000*%
%TD*%
G04 APERTURE END LIST*
D10*
X118400000Y-123000000D02*
X121200000Y-123000000D01*
X202700000Y-91000000D02*
G75*
G02*
X200700000Y-89000000I0J2000000D01*
G01*
X202700000Y-123000000D02*
G75*
G02*
X200700000Y-121000000I0J2000000D01*
G01*
X118400000Y-101000000D02*
X121200000Y-101000000D01*
X118400000Y-133000000D02*
G75*
G02*
X118400000Y-123000000I0J5000000D01*
G01*
X200700000Y-152000000D02*
G75*
G02*
X198700000Y-154000000I-2000000J0D01*
G01*
X200700000Y-121000000D02*
X200700000Y-103000000D01*
X205500000Y-123000000D02*
G75*
G02*
X205500000Y-133000000I0J-5000000D01*
G01*
X205500000Y-91000000D02*
G75*
G02*
X205500000Y-101000000I0J-5000000D01*
G01*
X198700000Y-76000000D02*
X125200000Y-76000000D01*
X205500000Y-123000000D02*
X202700000Y-123000000D01*
X118400000Y-91000000D02*
X121200000Y-91000000D01*
X118400000Y-101000000D02*
G75*
G02*
X118400000Y-91000000I0J5000000D01*
G01*
X123200000Y-89000000D02*
G75*
G02*
X121200000Y-91000000I-2000000J0D01*
G01*
X205500000Y-101000000D02*
X202700000Y-101000000D01*
X205500000Y-133000000D02*
X202700000Y-133000000D01*
X123200000Y-78000000D02*
X123200000Y-89000000D01*
X121200000Y-101000000D02*
G75*
G02*
X123200000Y-103000000I0J-2000000D01*
G01*
X118400000Y-133000000D02*
X121200000Y-133000000D01*
X125200000Y-154000000D02*
X198700000Y-154000000D01*
X200700000Y-78000000D02*
X200700000Y-89000000D01*
X200700000Y-135000000D02*
X200700000Y-152000000D01*
X205500000Y-91000000D02*
X202700000Y-91000000D01*
X121200000Y-133000000D02*
G75*
G02*
X123200000Y-135000000I0J-2000000D01*
G01*
X123200000Y-78000000D02*
G75*
G02*
X125200000Y-76000000I2000000J0D01*
G01*
X200700000Y-135000000D02*
G75*
G02*
X202700000Y-133000000I2000000J0D01*
G01*
X123200000Y-103000000D02*
X123200000Y-121000000D01*
X200700000Y-103000000D02*
G75*
G02*
X202700000Y-101000000I2000000J0D01*
G01*
X123200000Y-121000000D02*
G75*
G02*
X121200000Y-123000000I-2000000J0D01*
G01*
X125200000Y-154000000D02*
G75*
G02*
X123200000Y-152000000I0J2000000D01*
G01*
X198700000Y-76000000D02*
G75*
G02*
X200699999Y-78000000I-7101J-2007100D01*
G01*
X123200000Y-135000000D02*
X123200000Y-152000000D01*
M02*
